%TF.GenerationSoftware,KiCad,Pcbnew,(6.0.8)*%
%TF.CreationDate,2022-12-22T18:37:28+01:00*%
%TF.ProjectId,SimpleStepperDriver,53696d70-6c65-4537-9465-707065724472,rev?*%
%TF.SameCoordinates,Original*%
%TF.FileFunction,Copper,L1,Top*%
%TF.FilePolarity,Positive*%
%FSLAX46Y46*%
G04 Gerber Fmt 4.6, Leading zero omitted, Abs format (unit mm)*
G04 Created by KiCad (PCBNEW (6.0.8)) date 2022-12-22 18:37:28*
%MOMM*%
%LPD*%
G01*
G04 APERTURE LIST*
G04 Aperture macros list*
%AMRoundRect*
0 Rectangle with rounded corners*
0 $1 Rounding radius*
0 $2 $3 $4 $5 $6 $7 $8 $9 X,Y pos of 4 corners*
0 Add a 4 corners polygon primitive as box body*
4,1,4,$2,$3,$4,$5,$6,$7,$8,$9,$2,$3,0*
0 Add four circle primitives for the rounded corners*
1,1,$1+$1,$2,$3*
1,1,$1+$1,$4,$5*
1,1,$1+$1,$6,$7*
1,1,$1+$1,$8,$9*
0 Add four rect primitives between the rounded corners*
20,1,$1+$1,$2,$3,$4,$5,0*
20,1,$1+$1,$4,$5,$6,$7,0*
20,1,$1+$1,$6,$7,$8,$9,0*
20,1,$1+$1,$8,$9,$2,$3,0*%
G04 Aperture macros list end*
%TA.AperFunction,ComponentPad*%
%ADD10R,2.000000X2.000000*%
%TD*%
%TA.AperFunction,ComponentPad*%
%ADD11C,2.000000*%
%TD*%
%TA.AperFunction,ComponentPad*%
%ADD12R,3.500000X3.500000*%
%TD*%
%TA.AperFunction,ComponentPad*%
%ADD13RoundRect,0.750000X1.000000X-0.750000X1.000000X0.750000X-1.000000X0.750000X-1.000000X-0.750000X0*%
%TD*%
%TA.AperFunction,ComponentPad*%
%ADD14RoundRect,0.875000X0.875000X-0.875000X0.875000X0.875000X-0.875000X0.875000X-0.875000X-0.875000X0*%
%TD*%
%TA.AperFunction,ComponentPad*%
%ADD15R,1.800000X1.800000*%
%TD*%
%TA.AperFunction,ComponentPad*%
%ADD16C,1.800000*%
%TD*%
%TA.AperFunction,ComponentPad*%
%ADD17O,2.400000X1.600000*%
%TD*%
%TA.AperFunction,ComponentPad*%
%ADD18R,2.400000X1.600000*%
%TD*%
%TA.AperFunction,ComponentPad*%
%ADD19O,4.000000X4.000000*%
%TD*%
%TA.AperFunction,ComponentPad*%
%ADD20R,1.700000X1.700000*%
%TD*%
%TA.AperFunction,ComponentPad*%
%ADD21O,1.700000X1.700000*%
%TD*%
%TA.AperFunction,ComponentPad*%
%ADD22R,3.000000X3.000000*%
%TD*%
%TA.AperFunction,ComponentPad*%
%ADD23C,3.000000*%
%TD*%
%TA.AperFunction,ComponentPad*%
%ADD24O,2.000000X2.500000*%
%TD*%
%TA.AperFunction,ViaPad*%
%ADD25C,2.000000*%
%TD*%
%TA.AperFunction,Conductor*%
%ADD26C,0.500000*%
%TD*%
G04 APERTURE END LIST*
D10*
%TO.P,D1,1,K*%
%TO.N,GND*%
X186690000Y-97790000D03*
D11*
%TO.P,D1,2,A*%
%TO.N,Net-(D1-Pad2)*%
X184150000Y-97790000D03*
%TD*%
%TO.P,R3,1*%
%TO.N,DIR*%
X150495000Y-104140000D03*
%TO.P,R3,2*%
%TO.N,GND*%
X150495000Y-111760000D03*
%TD*%
D12*
%TO.P,J1,1,VCC+*%
%TO.N,+12V*%
X185420000Y-104140000D03*
D13*
%TO.P,J1,2,BAT+*%
%TO.N,unconnected-(J1-Pad2)*%
X185420000Y-110140000D03*
D14*
%TO.P,J1,3,GND-*%
%TO.N,GNDPWR*%
X180720000Y-107140000D03*
%TD*%
D15*
%TO.P,C2,1*%
%TO.N,GND*%
X182845000Y-78065000D03*
D16*
%TO.P,C2,2*%
%TO.N,Net-(C2-Pad2)*%
X180345000Y-78065000D03*
%TD*%
D17*
%TO.P,U2,8,VCC*%
%TO.N,+5V*%
X167655000Y-76200000D03*
%TO.P,U2,7,DIS*%
%TO.N,Net-(R1-Pad1)*%
X167655000Y-78740000D03*
%TO.P,U2,6,THR*%
%TO.N,Net-(C2-Pad2)*%
X167655000Y-81280000D03*
%TO.P,U2,5,CO.V*%
%TO.N,Net-(C1-Pad2)*%
X167655000Y-83820000D03*
%TO.P,U2,4,RES*%
%TO.N,+5V*%
X175275000Y-83820000D03*
%TO.P,U2,3,OUT*%
%TO.N,STEP*%
X175275000Y-81280000D03*
%TO.P,U2,2,TRI*%
%TO.N,Net-(C2-Pad2)*%
X175275000Y-78740000D03*
D18*
%TO.P,U2,1,GND*%
%TO.N,GND*%
X175275000Y-76200000D03*
%TD*%
D19*
%TO.P,R2,*%
%TO.N,*%
X148710000Y-76490000D03*
X148710000Y-85990000D03*
D15*
%TO.P,R2,1*%
%TO.N,Net-(R1-Pad1)*%
X156210000Y-78740000D03*
D16*
%TO.P,R2,2*%
%TO.N,Net-(C2-Pad2)*%
X156210000Y-81240000D03*
%TO.P,R2,3*%
%TO.N,N/C*%
X156210000Y-83740000D03*
%TD*%
D20*
%TO.P,J4,1,Pin_1*%
%TO.N,unconnected-(J4-Pad1)*%
X145415000Y-99060000D03*
D21*
%TO.P,J4,2,Pin_2*%
%TO.N,+5V*%
X145415000Y-101600000D03*
%TO.P,J4,3,Pin_3*%
%TO.N,DIR*%
X145415000Y-104140000D03*
%TD*%
D22*
%TO.P,J2,1,Pin_1*%
%TO.N,M_1B*%
X170180000Y-114300000D03*
D23*
%TO.P,J2,2,Pin_2*%
%TO.N,M_1A*%
X165100000Y-114300000D03*
%TD*%
D11*
%TO.P,R4,1*%
%TO.N,+5V*%
X189230000Y-91440000D03*
%TO.P,R4,2*%
%TO.N,Net-(D1-Pad2)*%
X181610000Y-91440000D03*
%TD*%
D22*
%TO.P,J3,1,Pin_1*%
%TO.N,M_2A*%
X160020000Y-114300000D03*
D23*
%TO.P,J3,2,Pin_2*%
%TO.N,M_2B*%
X154940000Y-114300000D03*
%TD*%
D11*
%TO.P,R1,2*%
%TO.N,+5V*%
X163830000Y-74295000D03*
%TO.P,R1,1*%
%TO.N,Net-(R1-Pad1)*%
X156210000Y-74295000D03*
%TD*%
D24*
%TO.P,U1,1,~{EN}*%
%TO.N,GND*%
X157480000Y-90170000D03*
%TO.P,U1,2,MS1*%
X160020000Y-90170000D03*
%TO.P,U1,3,MS2*%
X162560000Y-90170000D03*
%TO.P,U1,4,MS3*%
X165100000Y-90170000D03*
%TO.P,U1,5,~{RST}*%
%TO.N,+5V*%
X167640000Y-90170000D03*
%TO.P,U1,6,~{SLP}*%
X170180000Y-90170000D03*
%TO.P,U1,7,STEP*%
%TO.N,STEP*%
X172720000Y-90170000D03*
%TO.P,U1,8,DIR*%
%TO.N,DIR*%
X175260000Y-90170000D03*
%TO.P,U1,9,GND*%
%TO.N,GND*%
X175260000Y-102870000D03*
%TO.P,U1,10,VDD*%
%TO.N,+5V*%
X172720000Y-102870000D03*
%TO.P,U1,11,1B*%
%TO.N,M_1B*%
X170180000Y-102870000D03*
%TO.P,U1,12,1A*%
%TO.N,M_1A*%
X167640000Y-102870000D03*
%TO.P,U1,13,2A*%
%TO.N,M_2A*%
X165100000Y-102870000D03*
%TO.P,U1,14,2B*%
%TO.N,M_2B*%
X162560000Y-102870000D03*
%TO.P,U1,15,GND*%
%TO.N,GNDPWR*%
X160020000Y-102870000D03*
%TO.P,U1,16,VMOT*%
%TO.N,+12V*%
X157480000Y-102870000D03*
%TD*%
D22*
%TO.P,VR1,1,IN+*%
%TO.N,+12V*%
X210185000Y-115570000D03*
D23*
%TO.P,VR1,2,IN-*%
%TO.N,GNDPWR*%
X192405000Y-115570000D03*
%TO.P,VR1,3,OUT-*%
%TO.N,GND*%
X192405000Y-74930000D03*
%TO.P,VR1,4,OUT+*%
%TO.N,+5V*%
X210185000Y-74930000D03*
%TD*%
D16*
%TO.P,C1,1*%
%TO.N,GND*%
X162575000Y-86320000D03*
%TO.P,C1,2*%
%TO.N,Net-(C1-Pad2)*%
X162575000Y-83820000D03*
%TD*%
D25*
%TO.N,+5V*%
X185420000Y-83820000D03*
X165100000Y-99695000D03*
X187960000Y-74930000D03*
X187967478Y-81287478D03*
X165100000Y-93345000D03*
X179070000Y-83820000D03*
%TD*%
D26*
%TO.N,Net-(R1-Pad1)*%
X156210000Y-74295000D02*
X156210000Y-78740000D01*
%TO.N,+5V*%
X163830000Y-74930000D02*
X163830000Y-74295000D01*
X165100000Y-76200000D02*
X163830000Y-74930000D01*
X167655000Y-76200000D02*
X165100000Y-76200000D01*
%TO.N,Net-(R1-Pad1)*%
X156210000Y-78740000D02*
X167655000Y-78740000D01*
%TO.N,Net-(C1-Pad2)*%
X167655000Y-83820000D02*
X162575000Y-83820000D01*
%TO.N,Net-(C2-Pad2)*%
X179670000Y-78740000D02*
X180345000Y-78065000D01*
X172735000Y-78740000D02*
X170195000Y-81280000D01*
X170195000Y-81280000D02*
X167655000Y-81280000D01*
X175275000Y-78740000D02*
X172735000Y-78740000D01*
X175275000Y-78740000D02*
X179670000Y-78740000D01*
X156250000Y-81280000D02*
X156210000Y-81240000D01*
X167655000Y-81280000D02*
X156250000Y-81280000D01*
%TO.N,+12V*%
X181610000Y-100330000D02*
X181610000Y-97790000D01*
X201930000Y-104140000D02*
X185420000Y-104140000D01*
X158750000Y-96520000D02*
X157480000Y-97790000D01*
X185420000Y-104140000D02*
X185420000Y-102870000D01*
X185420000Y-104140000D02*
X181610000Y-100330000D01*
X180340000Y-96520000D02*
X158750000Y-96520000D01*
X210185000Y-112395000D02*
X201930000Y-104140000D01*
X157480000Y-97790000D02*
X157480000Y-102870000D01*
X210185000Y-115570000D02*
X210185000Y-112395000D01*
X181610000Y-97790000D02*
X180340000Y-96520000D01*
%TO.N,M_2B*%
X154940000Y-113030000D02*
X154940000Y-114300000D01*
X162560000Y-102870000D02*
X162560000Y-105410000D01*
X162560000Y-105410000D02*
X154940000Y-113030000D01*
%TO.N,M_2A*%
X160020000Y-110490000D02*
X160020000Y-114300000D01*
X165100000Y-102870000D02*
X165100000Y-105410000D01*
X160020000Y-110490000D02*
X165100000Y-105410000D01*
%TO.N,M_1A*%
X167640000Y-102870000D02*
X167640000Y-105410000D01*
X167640000Y-105410000D02*
X165100000Y-107950000D01*
X165100000Y-107950000D02*
X165100000Y-114300000D01*
%TO.N,+5V*%
X172720000Y-100965000D02*
X172720000Y-102870000D01*
X205105000Y-91440000D02*
X210185000Y-84455000D01*
X172720000Y-83820000D02*
X170180000Y-86360000D01*
X148590000Y-100330000D02*
X147320000Y-101600000D01*
X186690000Y-73660000D02*
X167655000Y-73660000D01*
X175275000Y-83820000D02*
X172720000Y-83820000D01*
X185420000Y-86360000D02*
X189230000Y-90170000D01*
X187967478Y-81287478D02*
X187975000Y-81280000D01*
X165100000Y-93345000D02*
X152400000Y-93345000D01*
X152400000Y-93345000D02*
X148590000Y-96520000D01*
X165100000Y-99695000D02*
X171450000Y-99695000D01*
X167655000Y-73675000D02*
X167655000Y-76200000D01*
X171450000Y-99695000D02*
X172720000Y-100965000D01*
X179070000Y-83820000D02*
X175275000Y-83820000D01*
X167640000Y-91440000D02*
X165100000Y-93345000D01*
X187960000Y-74930000D02*
X186690000Y-73660000D01*
X167655000Y-73660000D02*
X167655000Y-73675000D01*
X167640000Y-90170000D02*
X167640000Y-91440000D01*
X167640000Y-73660000D02*
X167655000Y-73675000D01*
X185420000Y-83820000D02*
X185420000Y-86360000D01*
X170180000Y-86360000D02*
X170180000Y-90170000D01*
X170180000Y-90170000D02*
X167640000Y-90170000D01*
X148590000Y-96520000D02*
X148590000Y-100330000D01*
X147320000Y-101600000D02*
X145415000Y-101600000D01*
X185420000Y-83820000D02*
X187967478Y-81287478D01*
X189230000Y-90170000D02*
X189230000Y-91440000D01*
X210185000Y-84455000D02*
X210185000Y-74295000D01*
X205105000Y-91440000D02*
X189230000Y-91440000D01*
%TO.N,DIR*%
X150495000Y-104140000D02*
X145415000Y-104140000D01*
X152400000Y-95250000D02*
X150495000Y-97155000D01*
X175260000Y-93980000D02*
X173990000Y-95250000D01*
X173990000Y-95250000D02*
X152400000Y-95250000D01*
X175260000Y-90170000D02*
X175260000Y-93980000D01*
X150495000Y-97155000D02*
X150495000Y-104140000D01*
%TO.N,STEP*%
X175275000Y-81280000D02*
X180340000Y-81280000D01*
X181610000Y-82550000D02*
X181610000Y-85090000D01*
X181610000Y-85090000D02*
X180340000Y-86360000D01*
X172720000Y-87630000D02*
X172720000Y-90170000D01*
X173990000Y-86360000D02*
X172720000Y-87630000D01*
X180340000Y-81280000D02*
X181610000Y-82550000D01*
X180340000Y-86360000D02*
X173990000Y-86360000D01*
%TO.N,GNDPWR*%
X189690000Y-107140000D02*
X180720000Y-107140000D01*
X180505274Y-99060000D02*
X179070000Y-97790000D01*
X180505274Y-99060000D02*
X180505274Y-106925274D01*
X179070000Y-97790000D02*
X161290000Y-97790000D01*
X180505274Y-106925274D02*
X180720000Y-107140000D01*
X192405000Y-115570000D02*
X192405000Y-109855000D01*
X161290000Y-97790000D02*
X160020000Y-99060000D01*
X160020000Y-99060000D02*
X160020000Y-102870000D01*
X192405000Y-109855000D02*
X189690000Y-107140000D01*
%TO.N,M_1B*%
X170180000Y-102870000D02*
X170180000Y-114300000D01*
%TO.N,Net-(D1-Pad2)*%
X184150000Y-95250000D02*
X184150000Y-97790000D01*
X181610000Y-91440000D02*
X181610000Y-92710000D01*
X181610000Y-92710000D02*
X184150000Y-95250000D01*
%TD*%
%TA.AperFunction,Conductor*%
%TO.N,GND*%
G36*
X210370018Y-72010000D02*
G01*
X210384851Y-72012310D01*
X210384855Y-72012310D01*
X210393724Y-72013691D01*
X210410012Y-72011561D01*
X210434589Y-72010767D01*
X210461441Y-72012527D01*
X210651701Y-72024998D01*
X210668041Y-72027149D01*
X210787690Y-72050948D01*
X210907343Y-72074749D01*
X210923257Y-72079013D01*
X211038776Y-72118226D01*
X211154292Y-72157439D01*
X211169519Y-72163746D01*
X211388342Y-72271657D01*
X211402616Y-72279898D01*
X211605478Y-72415447D01*
X211618553Y-72425480D01*
X211801993Y-72586352D01*
X211813648Y-72598007D01*
X211974520Y-72781447D01*
X211984553Y-72794522D01*
X212120102Y-72997384D01*
X212128343Y-73011658D01*
X212236254Y-73230481D01*
X212242561Y-73245708D01*
X212254049Y-73279550D01*
X212314791Y-73458489D01*
X212320986Y-73476740D01*
X212325251Y-73492657D01*
X212342598Y-73579865D01*
X212372851Y-73731959D01*
X212375002Y-73748299D01*
X212388763Y-73958236D01*
X212387733Y-73981350D01*
X212387690Y-73984854D01*
X212386309Y-73993724D01*
X212387473Y-74002626D01*
X212387473Y-74002628D01*
X212388771Y-74012552D01*
X212390013Y-74022045D01*
X212390436Y-74025283D01*
X212391500Y-74041621D01*
X212391500Y-74450394D01*
X212371498Y-74518515D01*
X212317842Y-74565008D01*
X212247568Y-74575112D01*
X212182988Y-74545618D01*
X212144604Y-74485892D01*
X212142118Y-74475945D01*
X212134364Y-74438502D01*
X212124032Y-74388612D01*
X212032617Y-74130465D01*
X211974231Y-74017344D01*
X211908978Y-73890919D01*
X211908978Y-73890918D01*
X211907013Y-73887112D01*
X211897040Y-73872921D01*
X211779602Y-73705824D01*
X211749545Y-73663057D01*
X211672238Y-73579865D01*
X211566046Y-73465588D01*
X211566043Y-73465585D01*
X211563125Y-73462445D01*
X211559810Y-73459731D01*
X211559806Y-73459728D01*
X211366159Y-73301230D01*
X211351205Y-73288990D01*
X211117704Y-73145901D01*
X211102398Y-73139182D01*
X210870873Y-73037549D01*
X210870869Y-73037548D01*
X210866945Y-73035825D01*
X210603566Y-72960800D01*
X210599324Y-72960196D01*
X210599318Y-72960195D01*
X210389988Y-72930403D01*
X210332443Y-72922213D01*
X210188589Y-72921460D01*
X210062877Y-72920802D01*
X210062871Y-72920802D01*
X210058591Y-72920780D01*
X210054347Y-72921339D01*
X210054343Y-72921339D01*
X209947707Y-72935378D01*
X209787078Y-72956525D01*
X209782938Y-72957658D01*
X209782936Y-72957658D01*
X209710629Y-72977439D01*
X209522928Y-73028788D01*
X209518980Y-73030472D01*
X209274982Y-73134546D01*
X209274978Y-73134548D01*
X209271030Y-73136232D01*
X209212788Y-73171089D01*
X209039725Y-73274664D01*
X209039721Y-73274667D01*
X209036043Y-73276868D01*
X208822318Y-73448094D01*
X208779904Y-73492789D01*
X208639595Y-73640644D01*
X208633808Y-73646742D01*
X208474002Y-73869136D01*
X208345857Y-74111161D01*
X208344385Y-74115184D01*
X208344383Y-74115188D01*
X208253214Y-74364317D01*
X208251743Y-74368337D01*
X208193404Y-74635907D01*
X208183812Y-74757782D01*
X208172785Y-74897895D01*
X208171917Y-74908918D01*
X208187682Y-75182320D01*
X208188507Y-75186525D01*
X208188508Y-75186533D01*
X208210532Y-75298790D01*
X208240405Y-75451053D01*
X208241792Y-75455103D01*
X208241793Y-75455108D01*
X208327657Y-75705894D01*
X208329112Y-75710144D01*
X208349538Y-75750757D01*
X208447735Y-75946000D01*
X208452160Y-75954799D01*
X208454586Y-75958328D01*
X208454589Y-75958334D01*
X208583741Y-76146250D01*
X208607274Y-76180490D01*
X208791582Y-76383043D01*
X208794877Y-76385798D01*
X208794878Y-76385799D01*
X208876446Y-76454000D01*
X209001675Y-76558707D01*
X209005316Y-76560991D01*
X209230024Y-76701951D01*
X209230028Y-76701953D01*
X209233664Y-76704234D01*
X209352352Y-76757824D01*
X209406205Y-76804086D01*
X209426500Y-76872660D01*
X209426500Y-84167375D01*
X209406498Y-84235496D01*
X209402401Y-84241485D01*
X204756491Y-90629610D01*
X204700248Y-90672937D01*
X204654590Y-90681500D01*
X190604965Y-90681500D01*
X190536844Y-90661498D01*
X190497533Y-90621336D01*
X190454176Y-90550584D01*
X190436163Y-90529494D01*
X190303177Y-90373787D01*
X190299969Y-90370031D01*
X190119416Y-90215824D01*
X190042778Y-90168860D01*
X189995150Y-90116215D01*
X189983031Y-90071645D01*
X189979454Y-90027662D01*
X189979453Y-90027659D01*
X189978860Y-90020364D01*
X189976604Y-90013400D01*
X189975417Y-90007461D01*
X189974030Y-90001590D01*
X189973182Y-89994319D01*
X189970686Y-89987443D01*
X189970684Y-89987434D01*
X189948275Y-89925702D01*
X189946865Y-89921598D01*
X189924352Y-89852101D01*
X189920556Y-89845846D01*
X189918057Y-89840387D01*
X189915329Y-89834939D01*
X189912833Y-89828063D01*
X189872805Y-89767010D01*
X189870481Y-89763327D01*
X189835504Y-89705686D01*
X189835501Y-89705682D01*
X189832595Y-89700893D01*
X189828886Y-89696694D01*
X189828883Y-89696689D01*
X189825197Y-89692516D01*
X189825224Y-89692492D01*
X189822571Y-89689500D01*
X189819868Y-89686267D01*
X189815856Y-89680148D01*
X189759617Y-89626872D01*
X189757175Y-89624494D01*
X186215405Y-86082724D01*
X186181379Y-86020412D01*
X186178500Y-85993629D01*
X186178500Y-85194965D01*
X186198502Y-85126844D01*
X186238664Y-85087533D01*
X186250175Y-85080479D01*
X186309416Y-85044176D01*
X186347116Y-85011977D01*
X186486213Y-84893177D01*
X186489969Y-84889969D01*
X186644176Y-84709416D01*
X186646755Y-84705208D01*
X186646759Y-84705202D01*
X186765654Y-84511183D01*
X186768240Y-84506963D01*
X186780664Y-84476970D01*
X186857211Y-84292167D01*
X186857212Y-84292165D01*
X186859105Y-84287594D01*
X186914535Y-84056711D01*
X186933165Y-83820000D01*
X186914535Y-83583289D01*
X186906591Y-83550197D01*
X186899476Y-83520563D01*
X186896271Y-83507214D01*
X186899818Y-83436308D01*
X186929956Y-83388446D01*
X187527213Y-82794695D01*
X187589625Y-82760853D01*
X187645460Y-82761533D01*
X187725954Y-82780858D01*
X187725960Y-82780859D01*
X187730767Y-82782013D01*
X187967478Y-82800643D01*
X188204189Y-82782013D01*
X188208996Y-82780859D01*
X188209002Y-82780858D01*
X188357872Y-82745117D01*
X188435072Y-82726583D01*
X188439645Y-82724689D01*
X188649867Y-82637613D01*
X188649871Y-82637611D01*
X188654441Y-82635718D01*
X188714302Y-82599035D01*
X188852680Y-82514237D01*
X188852686Y-82514233D01*
X188856894Y-82511654D01*
X189025739Y-82367447D01*
X189033691Y-82360655D01*
X189037447Y-82357447D01*
X189191654Y-82176894D01*
X189194233Y-82172686D01*
X189194237Y-82172680D01*
X189313132Y-81978661D01*
X189315718Y-81974441D01*
X189320527Y-81962833D01*
X189404689Y-81759645D01*
X189404690Y-81759643D01*
X189406583Y-81755072D01*
X189429984Y-81657600D01*
X189460858Y-81529002D01*
X189460859Y-81528996D01*
X189462013Y-81524189D01*
X189480643Y-81287478D01*
X189462013Y-81050767D01*
X189406583Y-80819884D01*
X189394656Y-80791089D01*
X189317613Y-80605089D01*
X189317611Y-80605085D01*
X189315718Y-80600515D01*
X189278949Y-80540514D01*
X189194237Y-80402276D01*
X189194233Y-80402270D01*
X189191654Y-80398062D01*
X189037447Y-80217509D01*
X188856894Y-80063302D01*
X188852686Y-80060723D01*
X188852680Y-80060719D01*
X188658661Y-79941824D01*
X188654441Y-79939238D01*
X188649871Y-79937345D01*
X188649867Y-79937343D01*
X188439645Y-79850267D01*
X188439643Y-79850266D01*
X188435072Y-79848373D01*
X188354869Y-79829118D01*
X188209002Y-79794098D01*
X188208996Y-79794097D01*
X188204189Y-79792943D01*
X187967478Y-79774313D01*
X187730767Y-79792943D01*
X187725960Y-79794097D01*
X187725954Y-79794098D01*
X187580087Y-79829118D01*
X187499884Y-79848373D01*
X187495313Y-79850266D01*
X187495311Y-79850267D01*
X187285089Y-79937343D01*
X187285085Y-79937345D01*
X187280515Y-79939238D01*
X187276295Y-79941824D01*
X187082276Y-80060719D01*
X187082270Y-80060723D01*
X187078062Y-80063302D01*
X186897509Y-80217509D01*
X186743302Y-80398062D01*
X186740723Y-80402270D01*
X186740719Y-80402276D01*
X186656007Y-80540514D01*
X186619238Y-80600515D01*
X186617345Y-80605085D01*
X186617343Y-80605089D01*
X186540300Y-80791089D01*
X186528373Y-80819884D01*
X186472943Y-81050767D01*
X186454313Y-81287478D01*
X186472943Y-81524189D01*
X186474097Y-81528996D01*
X186474098Y-81529002D01*
X186491207Y-81600263D01*
X186487660Y-81671170D01*
X186457522Y-81719032D01*
X185890927Y-82282301D01*
X185860265Y-82312783D01*
X185797853Y-82346625D01*
X185742018Y-82345945D01*
X185661524Y-82326620D01*
X185661518Y-82326619D01*
X185656711Y-82325465D01*
X185420000Y-82306835D01*
X185183289Y-82325465D01*
X185178482Y-82326619D01*
X185178476Y-82326620D01*
X185065719Y-82353691D01*
X184952406Y-82380895D01*
X184947835Y-82382788D01*
X184947833Y-82382789D01*
X184737611Y-82469865D01*
X184737607Y-82469867D01*
X184733037Y-82471760D01*
X184728817Y-82474346D01*
X184534798Y-82593241D01*
X184534792Y-82593245D01*
X184530584Y-82595824D01*
X184396689Y-82710181D01*
X184355785Y-82745117D01*
X184350031Y-82750031D01*
X184195824Y-82930584D01*
X184193245Y-82934792D01*
X184193241Y-82934798D01*
X184104682Y-83079313D01*
X184071760Y-83133037D01*
X184069867Y-83137607D01*
X184069865Y-83137611D01*
X184006082Y-83291598D01*
X183980895Y-83352406D01*
X183975215Y-83376067D01*
X183930984Y-83560301D01*
X183925465Y-83583289D01*
X183906835Y-83820000D01*
X183925465Y-84056711D01*
X183980895Y-84287594D01*
X183982788Y-84292165D01*
X183982789Y-84292167D01*
X184059337Y-84476970D01*
X184071760Y-84506963D01*
X184074346Y-84511183D01*
X184193241Y-84705202D01*
X184193245Y-84705208D01*
X184195824Y-84709416D01*
X184350031Y-84889969D01*
X184353787Y-84893177D01*
X184492884Y-85011977D01*
X184530584Y-85044176D01*
X184589825Y-85080479D01*
X184601336Y-85087533D01*
X184648967Y-85140181D01*
X184661500Y-85194965D01*
X184661500Y-86292930D01*
X184660067Y-86311880D01*
X184658381Y-86322966D01*
X184656801Y-86333349D01*
X184657394Y-86340641D01*
X184657394Y-86340644D01*
X184661085Y-86386018D01*
X184661500Y-86396233D01*
X184661500Y-86404293D01*
X184661925Y-86407937D01*
X184664789Y-86432507D01*
X184665222Y-86436882D01*
X184671140Y-86509637D01*
X184673396Y-86516601D01*
X184674587Y-86522560D01*
X184675971Y-86528415D01*
X184676818Y-86535681D01*
X184701735Y-86604327D01*
X184703152Y-86608455D01*
X184719284Y-86658250D01*
X184725649Y-86677899D01*
X184729445Y-86684154D01*
X184731951Y-86689628D01*
X184734670Y-86695058D01*
X184737167Y-86701937D01*
X184741180Y-86708057D01*
X184741180Y-86708058D01*
X184777186Y-86762976D01*
X184779523Y-86766680D01*
X184817405Y-86829107D01*
X184821121Y-86833315D01*
X184821122Y-86833316D01*
X184824803Y-86837484D01*
X184824776Y-86837508D01*
X184827429Y-86840500D01*
X184830132Y-86843733D01*
X184834144Y-86849852D01*
X184839456Y-86854884D01*
X184890383Y-86903128D01*
X184892825Y-86905506D01*
X188170072Y-90182753D01*
X188204098Y-90245065D01*
X188199033Y-90315880D01*
X188166444Y-90362464D01*
X188167295Y-90363315D01*
X188163787Y-90366823D01*
X188160031Y-90370031D01*
X188005824Y-90550584D01*
X188003245Y-90554792D01*
X188003241Y-90554798D01*
X187925598Y-90681500D01*
X187881760Y-90753037D01*
X187879867Y-90757607D01*
X187879865Y-90757611D01*
X187819974Y-90902203D01*
X187790895Y-90972406D01*
X187776983Y-91030352D01*
X187756358Y-91116265D01*
X187735465Y-91203289D01*
X187716835Y-91440000D01*
X187735465Y-91676711D01*
X187736619Y-91681518D01*
X187736620Y-91681524D01*
X187760527Y-91781104D01*
X187790895Y-91907594D01*
X187792788Y-91912165D01*
X187792789Y-91912167D01*
X187871071Y-92101157D01*
X187881760Y-92126963D01*
X187884346Y-92131183D01*
X188003241Y-92325202D01*
X188003245Y-92325208D01*
X188005824Y-92329416D01*
X188160031Y-92509969D01*
X188340584Y-92664176D01*
X188344792Y-92666755D01*
X188344798Y-92666759D01*
X188461567Y-92738315D01*
X188543037Y-92788240D01*
X188547607Y-92790133D01*
X188547611Y-92790135D01*
X188757833Y-92877211D01*
X188762406Y-92879105D01*
X188818421Y-92892553D01*
X188988476Y-92933380D01*
X188988482Y-92933381D01*
X188993289Y-92934535D01*
X189230000Y-92953165D01*
X189466711Y-92934535D01*
X189471518Y-92933381D01*
X189471524Y-92933380D01*
X189641579Y-92892553D01*
X189697594Y-92879105D01*
X189702167Y-92877211D01*
X189912389Y-92790135D01*
X189912393Y-92790133D01*
X189916963Y-92788240D01*
X189998433Y-92738315D01*
X190115202Y-92666759D01*
X190115208Y-92666755D01*
X190119416Y-92664176D01*
X190299969Y-92509969D01*
X190454176Y-92329416D01*
X190497533Y-92258664D01*
X190550181Y-92211033D01*
X190604965Y-92198500D01*
X205016946Y-92198500D01*
X205019142Y-92198621D01*
X205020837Y-92199012D01*
X205025708Y-92198985D01*
X205025716Y-92198985D01*
X205111403Y-92198502D01*
X205112113Y-92198500D01*
X205149293Y-92198500D01*
X205150776Y-92198327D01*
X205152566Y-92198270D01*
X205197706Y-92198016D01*
X205204824Y-92196291D01*
X205231279Y-92189880D01*
X205246364Y-92187183D01*
X205273411Y-92184030D01*
X205273414Y-92184029D01*
X205280681Y-92183182D01*
X205287558Y-92180686D01*
X205287561Y-92180685D01*
X205317866Y-92169685D01*
X205331180Y-92165669D01*
X205340200Y-92163483D01*
X205369600Y-92156358D01*
X205376122Y-92153046D01*
X205376125Y-92153045D01*
X205400410Y-92140713D01*
X205414466Y-92134620D01*
X205423934Y-92131183D01*
X205446937Y-92122833D01*
X205480006Y-92101152D01*
X205492033Y-92094184D01*
X205520778Y-92079587D01*
X205527302Y-92076274D01*
X205553683Y-92053962D01*
X205565964Y-92044796D01*
X205588731Y-92029869D01*
X205594852Y-92025856D01*
X205599883Y-92020545D01*
X205599888Y-92020541D01*
X205622047Y-91997149D01*
X205632155Y-91987595D01*
X205658060Y-91965686D01*
X205658064Y-91965682D01*
X205662349Y-91962058D01*
X205669469Y-91953444D01*
X205684560Y-91932694D01*
X205694991Y-91920147D01*
X205716490Y-91897453D01*
X205738231Y-91860023D01*
X205745283Y-91849200D01*
X209125887Y-87200869D01*
X210778600Y-84928388D01*
X210784454Y-84920947D01*
X210820333Y-84878715D01*
X210852388Y-84815940D01*
X210854801Y-84811443D01*
X210889369Y-84750039D01*
X210891396Y-84743006D01*
X210894224Y-84736255D01*
X210894425Y-84736339D01*
X210895094Y-84734647D01*
X210894889Y-84734571D01*
X210897439Y-84727714D01*
X210900769Y-84721192D01*
X210914690Y-84664300D01*
X210917521Y-84652732D01*
X210918838Y-84647788D01*
X210936321Y-84587123D01*
X210938349Y-84580086D01*
X210938704Y-84572774D01*
X210939903Y-84565553D01*
X210940120Y-84565589D01*
X210940869Y-84560428D01*
X210940630Y-84560392D01*
X210941474Y-84554840D01*
X210942808Y-84549390D01*
X210943500Y-84538236D01*
X210943500Y-84476970D01*
X210943648Y-84470864D01*
X210946565Y-84410732D01*
X210946920Y-84403423D01*
X210945583Y-84396226D01*
X210945534Y-84395499D01*
X210943500Y-84373410D01*
X210943500Y-76874028D01*
X210963502Y-76805907D01*
X211021281Y-76757620D01*
X211080136Y-76733241D01*
X211316582Y-76595073D01*
X211532089Y-76426094D01*
X211573809Y-76383043D01*
X211719686Y-76232509D01*
X211722669Y-76229431D01*
X211725202Y-76225983D01*
X211725206Y-76225978D01*
X211882257Y-76012178D01*
X211884795Y-76008723D01*
X211886841Y-76004955D01*
X212013418Y-75771830D01*
X212013419Y-75771828D01*
X212015468Y-75768054D01*
X212079196Y-75599402D01*
X212110751Y-75515895D01*
X212110752Y-75515891D01*
X212112269Y-75511877D01*
X212142680Y-75379095D01*
X212177385Y-75317159D01*
X212240066Y-75283818D01*
X212310822Y-75289657D01*
X212367189Y-75332824D01*
X212391270Y-75399612D01*
X212391500Y-75407224D01*
X212391500Y-113810816D01*
X212371498Y-113878937D01*
X212317842Y-113925430D01*
X212247568Y-113935534D01*
X212182988Y-113906040D01*
X212147518Y-113855046D01*
X212138767Y-113831703D01*
X212135615Y-113823295D01*
X212048261Y-113706739D01*
X211931705Y-113619385D01*
X211795316Y-113568255D01*
X211733134Y-113561500D01*
X211069500Y-113561500D01*
X211001379Y-113541498D01*
X210954886Y-113487842D01*
X210943500Y-113435500D01*
X210943500Y-112462070D01*
X210944933Y-112443120D01*
X210947099Y-112428885D01*
X210947099Y-112428881D01*
X210948199Y-112421651D01*
X210946477Y-112400472D01*
X210943915Y-112368982D01*
X210943500Y-112358767D01*
X210943500Y-112350707D01*
X210942979Y-112346233D01*
X210940211Y-112322497D01*
X210939778Y-112318121D01*
X210937643Y-112291869D01*
X210933860Y-112245364D01*
X210931605Y-112238403D01*
X210930418Y-112232463D01*
X210929029Y-112226588D01*
X210928182Y-112219319D01*
X210903264Y-112150670D01*
X210901847Y-112146542D01*
X210881607Y-112084064D01*
X210881606Y-112084062D01*
X210879351Y-112077101D01*
X210875555Y-112070846D01*
X210873049Y-112065372D01*
X210870330Y-112059942D01*
X210867833Y-112053063D01*
X210827814Y-111992024D01*
X210825467Y-111988305D01*
X210825034Y-111987591D01*
X210787595Y-111925893D01*
X210780197Y-111917516D01*
X210780224Y-111917492D01*
X210777571Y-111914500D01*
X210774868Y-111911267D01*
X210770856Y-111905148D01*
X210714617Y-111851872D01*
X210712175Y-111849494D01*
X202513770Y-103651089D01*
X202501384Y-103636677D01*
X202492851Y-103625082D01*
X202492846Y-103625077D01*
X202488508Y-103619182D01*
X202482930Y-103614443D01*
X202482927Y-103614440D01*
X202448232Y-103584965D01*
X202440716Y-103578035D01*
X202435021Y-103572340D01*
X202428880Y-103567482D01*
X202412749Y-103554719D01*
X202409345Y-103551928D01*
X202359297Y-103509409D01*
X202359295Y-103509408D01*
X202353715Y-103504667D01*
X202347199Y-103501339D01*
X202342150Y-103497972D01*
X202337021Y-103494805D01*
X202331284Y-103490266D01*
X202265125Y-103459345D01*
X202261225Y-103457439D01*
X202196192Y-103424231D01*
X202189084Y-103422492D01*
X202183441Y-103420393D01*
X202177678Y-103418476D01*
X202171050Y-103415378D01*
X202099583Y-103400513D01*
X202095299Y-103399543D01*
X202024390Y-103382192D01*
X202018788Y-103381844D01*
X202018785Y-103381844D01*
X202013236Y-103381500D01*
X202013238Y-103381464D01*
X202009245Y-103381225D01*
X202005053Y-103380851D01*
X201997885Y-103379360D01*
X201931675Y-103381151D01*
X201920479Y-103381454D01*
X201917072Y-103381500D01*
X187804500Y-103381500D01*
X187736379Y-103361498D01*
X187689886Y-103307842D01*
X187678500Y-103255500D01*
X187678500Y-102341866D01*
X187671745Y-102279684D01*
X187620615Y-102143295D01*
X187533261Y-102026739D01*
X187416705Y-101939385D01*
X187280316Y-101888255D01*
X187218134Y-101881500D01*
X184286371Y-101881500D01*
X184218250Y-101861498D01*
X184197276Y-101844595D01*
X182405405Y-100052724D01*
X182371379Y-99990412D01*
X182368500Y-99963629D01*
X182368500Y-97857069D01*
X182369933Y-97838118D01*
X182372099Y-97823883D01*
X182372099Y-97823881D01*
X182373199Y-97816651D01*
X182371433Y-97794930D01*
X182368915Y-97763982D01*
X182368500Y-97753767D01*
X182368500Y-97745707D01*
X182365211Y-97717493D01*
X182364778Y-97713118D01*
X182359454Y-97647661D01*
X182359453Y-97647658D01*
X182358860Y-97640363D01*
X182356604Y-97633399D01*
X182355413Y-97627440D01*
X182354029Y-97621585D01*
X182353182Y-97614319D01*
X182328265Y-97545673D01*
X182326848Y-97541545D01*
X182306607Y-97479064D01*
X182306606Y-97479062D01*
X182304351Y-97472101D01*
X182300555Y-97465846D01*
X182298049Y-97460372D01*
X182295330Y-97454942D01*
X182292833Y-97448063D01*
X182252809Y-97387016D01*
X182250472Y-97383312D01*
X182215509Y-97325693D01*
X182215505Y-97325688D01*
X182212595Y-97320892D01*
X182205197Y-97312516D01*
X182205223Y-97312493D01*
X182202574Y-97309503D01*
X182199866Y-97306264D01*
X182195856Y-97300148D01*
X182190549Y-97295121D01*
X182190546Y-97295117D01*
X182139617Y-97246872D01*
X182137175Y-97244494D01*
X180923770Y-96031089D01*
X180911384Y-96016677D01*
X180902851Y-96005082D01*
X180902846Y-96005077D01*
X180898508Y-95999182D01*
X180892930Y-95994443D01*
X180892927Y-95994440D01*
X180858232Y-95964965D01*
X180850716Y-95958035D01*
X180845021Y-95952340D01*
X180838880Y-95947482D01*
X180822749Y-95934719D01*
X180819345Y-95931928D01*
X180769297Y-95889409D01*
X180769295Y-95889408D01*
X180763715Y-95884667D01*
X180757199Y-95881339D01*
X180752150Y-95877972D01*
X180747021Y-95874805D01*
X180741284Y-95870266D01*
X180675125Y-95839345D01*
X180671225Y-95837439D01*
X180606192Y-95804231D01*
X180599084Y-95802492D01*
X180593441Y-95800393D01*
X180587678Y-95798476D01*
X180581050Y-95795378D01*
X180509583Y-95780513D01*
X180505299Y-95779543D01*
X180434390Y-95762192D01*
X180428788Y-95761844D01*
X180428785Y-95761844D01*
X180423236Y-95761500D01*
X180423238Y-95761464D01*
X180419245Y-95761225D01*
X180415053Y-95760851D01*
X180407885Y-95759360D01*
X180341675Y-95761151D01*
X180330479Y-95761454D01*
X180327072Y-95761500D01*
X174855371Y-95761500D01*
X174787250Y-95741498D01*
X174740757Y-95687842D01*
X174730653Y-95617568D01*
X174760147Y-95552988D01*
X174766276Y-95546405D01*
X175748911Y-94563770D01*
X175763323Y-94551384D01*
X175774918Y-94542851D01*
X175774923Y-94542846D01*
X175780818Y-94538508D01*
X175785557Y-94532930D01*
X175785560Y-94532927D01*
X175815035Y-94498232D01*
X175821965Y-94490716D01*
X175827660Y-94485021D01*
X175845281Y-94462749D01*
X175848072Y-94459345D01*
X175890591Y-94409297D01*
X175890592Y-94409295D01*
X175895333Y-94403715D01*
X175898661Y-94397199D01*
X175902028Y-94392150D01*
X175905195Y-94387021D01*
X175909734Y-94381284D01*
X175940655Y-94315125D01*
X175942561Y-94311225D01*
X175975769Y-94246192D01*
X175977508Y-94239084D01*
X175979607Y-94233441D01*
X175981524Y-94227678D01*
X175984622Y-94221050D01*
X175999487Y-94149583D01*
X176000457Y-94145299D01*
X176016473Y-94079845D01*
X176017808Y-94074390D01*
X176018500Y-94063236D01*
X176018536Y-94063238D01*
X176018775Y-94059245D01*
X176019149Y-94055053D01*
X176020640Y-94047885D01*
X176018546Y-93970479D01*
X176018500Y-93967072D01*
X176018500Y-91795163D01*
X176038502Y-91727042D01*
X176073676Y-91690952D01*
X176208307Y-91599456D01*
X176376928Y-91440000D01*
X180096835Y-91440000D01*
X180115465Y-91676711D01*
X180116619Y-91681518D01*
X180116620Y-91681524D01*
X180140527Y-91781104D01*
X180170895Y-91907594D01*
X180172788Y-91912165D01*
X180172789Y-91912167D01*
X180251071Y-92101157D01*
X180261760Y-92126963D01*
X180264346Y-92131183D01*
X180383241Y-92325202D01*
X180383245Y-92325208D01*
X180385824Y-92329416D01*
X180540031Y-92509969D01*
X180720584Y-92664176D01*
X180797222Y-92711140D01*
X180844850Y-92763785D01*
X180856969Y-92808355D01*
X180861140Y-92859637D01*
X180863396Y-92866601D01*
X180864587Y-92872560D01*
X180865971Y-92878415D01*
X180866818Y-92885681D01*
X180891735Y-92954327D01*
X180893152Y-92958455D01*
X180915649Y-93027899D01*
X180919445Y-93034154D01*
X180921951Y-93039628D01*
X180924670Y-93045058D01*
X180927167Y-93051937D01*
X180931180Y-93058057D01*
X180931180Y-93058058D01*
X180967186Y-93112976D01*
X180969523Y-93116680D01*
X181007405Y-93179107D01*
X181011121Y-93183315D01*
X181011122Y-93183316D01*
X181014803Y-93187484D01*
X181014776Y-93187508D01*
X181017429Y-93190500D01*
X181020132Y-93193733D01*
X181024144Y-93199852D01*
X181029456Y-93204884D01*
X181080383Y-93253128D01*
X181082825Y-93255506D01*
X183354595Y-95527276D01*
X183388621Y-95589588D01*
X183391500Y-95616371D01*
X183391500Y-96415035D01*
X183371498Y-96483156D01*
X183331337Y-96522466D01*
X183260584Y-96565824D01*
X183080031Y-96720031D01*
X182925824Y-96900584D01*
X182923245Y-96904792D01*
X182923241Y-96904798D01*
X182817822Y-97076826D01*
X182801760Y-97103037D01*
X182799867Y-97107607D01*
X182799865Y-97107611D01*
X182713795Y-97315405D01*
X182710895Y-97322406D01*
X182696273Y-97383312D01*
X182657286Y-97545706D01*
X182655465Y-97553289D01*
X182636835Y-97790000D01*
X182655465Y-98026711D01*
X182656619Y-98031518D01*
X182656620Y-98031524D01*
X182687097Y-98158469D01*
X182710895Y-98257594D01*
X182801760Y-98476963D01*
X182804346Y-98481183D01*
X182923241Y-98675202D01*
X182923245Y-98675208D01*
X182925824Y-98679416D01*
X183080031Y-98859969D01*
X183260584Y-99014176D01*
X183264792Y-99016755D01*
X183264798Y-99016759D01*
X183414261Y-99108350D01*
X183463037Y-99138240D01*
X183467607Y-99140133D01*
X183467611Y-99140135D01*
X183677833Y-99227211D01*
X183682406Y-99229105D01*
X183741633Y-99243324D01*
X183908476Y-99283380D01*
X183908482Y-99283381D01*
X183913289Y-99284535D01*
X184150000Y-99303165D01*
X184386711Y-99284535D01*
X184391518Y-99283381D01*
X184391524Y-99283380D01*
X184558367Y-99243324D01*
X184617594Y-99229105D01*
X184622167Y-99227211D01*
X184832389Y-99140135D01*
X184832393Y-99140133D01*
X184836963Y-99138240D01*
X184885739Y-99108350D01*
X185035202Y-99016759D01*
X185035208Y-99016755D01*
X185039416Y-99014176D01*
X185050752Y-99004494D01*
X185115541Y-98975462D01*
X185185742Y-98986066D01*
X185239065Y-99032940D01*
X185243105Y-99039797D01*
X185245213Y-99043647D01*
X185321715Y-99145724D01*
X185334276Y-99158285D01*
X185436351Y-99234786D01*
X185451946Y-99243324D01*
X185572394Y-99288478D01*
X185587649Y-99292105D01*
X185638514Y-99297631D01*
X185645328Y-99298000D01*
X186417885Y-99298000D01*
X186433124Y-99293525D01*
X186434329Y-99292135D01*
X186436000Y-99284452D01*
X186436000Y-99279884D01*
X186944000Y-99279884D01*
X186948475Y-99295123D01*
X186949865Y-99296328D01*
X186957548Y-99297999D01*
X187734669Y-99297999D01*
X187741490Y-99297629D01*
X187792352Y-99292105D01*
X187807604Y-99288479D01*
X187928054Y-99243324D01*
X187943649Y-99234786D01*
X188045724Y-99158285D01*
X188058285Y-99145724D01*
X188134786Y-99043649D01*
X188143324Y-99028054D01*
X188188478Y-98907606D01*
X188192105Y-98892351D01*
X188197631Y-98841486D01*
X188198000Y-98834672D01*
X188198000Y-98062115D01*
X188193525Y-98046876D01*
X188192135Y-98045671D01*
X188184452Y-98044000D01*
X186962115Y-98044000D01*
X186946876Y-98048475D01*
X186945671Y-98049865D01*
X186944000Y-98057548D01*
X186944000Y-99279884D01*
X186436000Y-99279884D01*
X186436000Y-97517885D01*
X186944000Y-97517885D01*
X186948475Y-97533124D01*
X186949865Y-97534329D01*
X186957548Y-97536000D01*
X188179884Y-97536000D01*
X188195123Y-97531525D01*
X188196328Y-97530135D01*
X188197999Y-97522452D01*
X188197999Y-96745331D01*
X188197629Y-96738510D01*
X188192105Y-96687648D01*
X188188479Y-96672396D01*
X188143324Y-96551946D01*
X188134786Y-96536351D01*
X188058285Y-96434276D01*
X188045724Y-96421715D01*
X187943649Y-96345214D01*
X187928054Y-96336676D01*
X187807606Y-96291522D01*
X187792351Y-96287895D01*
X187741486Y-96282369D01*
X187734672Y-96282000D01*
X186962115Y-96282000D01*
X186946876Y-96286475D01*
X186945671Y-96287865D01*
X186944000Y-96295548D01*
X186944000Y-97517885D01*
X186436000Y-97517885D01*
X186436000Y-96300116D01*
X186431525Y-96284877D01*
X186430135Y-96283672D01*
X186422452Y-96282001D01*
X185645331Y-96282001D01*
X185638510Y-96282371D01*
X185587648Y-96287895D01*
X185572396Y-96291521D01*
X185451946Y-96336676D01*
X185436351Y-96345214D01*
X185334276Y-96421715D01*
X185321715Y-96434276D01*
X185245213Y-96536353D01*
X185243105Y-96540203D01*
X185240022Y-96543280D01*
X185239828Y-96543538D01*
X185239791Y-96543510D01*
X185192848Y-96590350D01*
X185123457Y-96605365D01*
X185056964Y-96580481D01*
X185050769Y-96575521D01*
X185039416Y-96565824D01*
X184968664Y-96522467D01*
X184921033Y-96469819D01*
X184908500Y-96415035D01*
X184908500Y-95317063D01*
X184909933Y-95298114D01*
X184912097Y-95283886D01*
X184913198Y-95276651D01*
X184908915Y-95223990D01*
X184908500Y-95213777D01*
X184908500Y-95205707D01*
X184908078Y-95202087D01*
X184908077Y-95202069D01*
X184905208Y-95177461D01*
X184904775Y-95173086D01*
X184899454Y-95107661D01*
X184899453Y-95107658D01*
X184898860Y-95100363D01*
X184896604Y-95093399D01*
X184895413Y-95087440D01*
X184894029Y-95081585D01*
X184893182Y-95074319D01*
X184868265Y-95005673D01*
X184866848Y-95001545D01*
X184846607Y-94939064D01*
X184846606Y-94939062D01*
X184844351Y-94932101D01*
X184840555Y-94925846D01*
X184838049Y-94920372D01*
X184835330Y-94914942D01*
X184832833Y-94908063D01*
X184792809Y-94847016D01*
X184790472Y-94843312D01*
X184755509Y-94785693D01*
X184755505Y-94785688D01*
X184752595Y-94780892D01*
X184745197Y-94772516D01*
X184745223Y-94772493D01*
X184742574Y-94769503D01*
X184739866Y-94766264D01*
X184735856Y-94760148D01*
X184730549Y-94755121D01*
X184730546Y-94755117D01*
X184679617Y-94706872D01*
X184677175Y-94704494D01*
X182669928Y-92697247D01*
X182635902Y-92634935D01*
X182640967Y-92564120D01*
X182673556Y-92517536D01*
X182672705Y-92516685D01*
X182676213Y-92513177D01*
X182679969Y-92509969D01*
X182834176Y-92329416D01*
X182836755Y-92325208D01*
X182836759Y-92325202D01*
X182955654Y-92131183D01*
X182958240Y-92126963D01*
X182968930Y-92101157D01*
X183047211Y-91912167D01*
X183047212Y-91912165D01*
X183049105Y-91907594D01*
X183079473Y-91781104D01*
X183103380Y-91681524D01*
X183103381Y-91681518D01*
X183104535Y-91676711D01*
X183123165Y-91440000D01*
X183104535Y-91203289D01*
X183083643Y-91116265D01*
X183063017Y-91030352D01*
X183049105Y-90972406D01*
X183020026Y-90902203D01*
X182960135Y-90757611D01*
X182960133Y-90757607D01*
X182958240Y-90753037D01*
X182914402Y-90681500D01*
X182836759Y-90554798D01*
X182836755Y-90554792D01*
X182834176Y-90550584D01*
X182679969Y-90370031D01*
X182499416Y-90215824D01*
X182495208Y-90213245D01*
X182495202Y-90213241D01*
X182301183Y-90094346D01*
X182296963Y-90091760D01*
X182292393Y-90089867D01*
X182292389Y-90089865D01*
X182082167Y-90002789D01*
X182082165Y-90002788D01*
X182077594Y-90000895D01*
X181997391Y-89981640D01*
X181851524Y-89946620D01*
X181851518Y-89946619D01*
X181846711Y-89945465D01*
X181610000Y-89926835D01*
X181373289Y-89945465D01*
X181368482Y-89946619D01*
X181368476Y-89946620D01*
X181222609Y-89981640D01*
X181142406Y-90000895D01*
X181137835Y-90002788D01*
X181137833Y-90002789D01*
X180927611Y-90089865D01*
X180927607Y-90089867D01*
X180923037Y-90091760D01*
X180918817Y-90094346D01*
X180724798Y-90213241D01*
X180724792Y-90213245D01*
X180720584Y-90215824D01*
X180540031Y-90370031D01*
X180385824Y-90550584D01*
X180383245Y-90554792D01*
X180383241Y-90554798D01*
X180305598Y-90681500D01*
X180261760Y-90753037D01*
X180259867Y-90757607D01*
X180259865Y-90757611D01*
X180199974Y-90902203D01*
X180170895Y-90972406D01*
X180156983Y-91030352D01*
X180136358Y-91116265D01*
X180115465Y-91203289D01*
X180096835Y-91440000D01*
X176376928Y-91440000D01*
X176384681Y-91432668D01*
X176430068Y-91373304D01*
X176529047Y-91243846D01*
X176529050Y-91243842D01*
X176532120Y-91239826D01*
X176646831Y-91025891D01*
X176725862Y-90796369D01*
X176767179Y-90557164D01*
X176768500Y-90528075D01*
X176768500Y-89858999D01*
X176764602Y-89810551D01*
X176754346Y-89683076D01*
X176754345Y-89683071D01*
X176753940Y-89678035D01*
X176696037Y-89442294D01*
X176601188Y-89218844D01*
X176471833Y-89013433D01*
X176430291Y-88966313D01*
X176314650Y-88835142D01*
X176314647Y-88835139D01*
X176311302Y-88831345D01*
X176204993Y-88744022D01*
X176127628Y-88680474D01*
X176127625Y-88680472D01*
X176123722Y-88677266D01*
X175992540Y-88600916D01*
X175918290Y-88557701D01*
X175918288Y-88557700D01*
X175913922Y-88555159D01*
X175883737Y-88543572D01*
X175692022Y-88469980D01*
X175692018Y-88469979D01*
X175687298Y-88468167D01*
X175682348Y-88467133D01*
X175682345Y-88467132D01*
X175454631Y-88419560D01*
X175454627Y-88419560D01*
X175449680Y-88418526D01*
X175207183Y-88407514D01*
X175202163Y-88408095D01*
X175202159Y-88408095D01*
X174971071Y-88434833D01*
X174971067Y-88434834D01*
X174966044Y-88435415D01*
X174961180Y-88436791D01*
X174961177Y-88436792D01*
X174850300Y-88468167D01*
X174732468Y-88501510D01*
X174727892Y-88503644D01*
X174727886Y-88503646D01*
X174517046Y-88601962D01*
X174517042Y-88601964D01*
X174512464Y-88604099D01*
X174508283Y-88606940D01*
X174508282Y-88606941D01*
X174446323Y-88649049D01*
X174311693Y-88740544D01*
X174135319Y-88907332D01*
X174132241Y-88911358D01*
X174132240Y-88911359D01*
X174090535Y-88965907D01*
X174033270Y-89007875D01*
X173962407Y-89012220D01*
X173895925Y-88972703D01*
X173774650Y-88835142D01*
X173774647Y-88835139D01*
X173771302Y-88831345D01*
X173583722Y-88677266D01*
X173579357Y-88674726D01*
X173579352Y-88674722D01*
X173541119Y-88652470D01*
X173492305Y-88600916D01*
X173478500Y-88543572D01*
X173478500Y-87996371D01*
X173498502Y-87928250D01*
X173515405Y-87907276D01*
X174267276Y-87155405D01*
X174329588Y-87121379D01*
X174356371Y-87118500D01*
X180272930Y-87118500D01*
X180291880Y-87119933D01*
X180306115Y-87122099D01*
X180306119Y-87122099D01*
X180313349Y-87123199D01*
X180320641Y-87122606D01*
X180320644Y-87122606D01*
X180366018Y-87118915D01*
X180376233Y-87118500D01*
X180384293Y-87118500D01*
X180397583Y-87116951D01*
X180412507Y-87115211D01*
X180416882Y-87114778D01*
X180482339Y-87109454D01*
X180482342Y-87109453D01*
X180489637Y-87108860D01*
X180496601Y-87106604D01*
X180502560Y-87105413D01*
X180508415Y-87104029D01*
X180515681Y-87103182D01*
X180584327Y-87078265D01*
X180588455Y-87076848D01*
X180650936Y-87056607D01*
X180650938Y-87056606D01*
X180657899Y-87054351D01*
X180664154Y-87050555D01*
X180669628Y-87048049D01*
X180675058Y-87045330D01*
X180681937Y-87042833D01*
X180742976Y-87002814D01*
X180746680Y-87000477D01*
X180809107Y-86962595D01*
X180817484Y-86955197D01*
X180817508Y-86955224D01*
X180820500Y-86952571D01*
X180823733Y-86949868D01*
X180829852Y-86945856D01*
X180883128Y-86889617D01*
X180885506Y-86887175D01*
X182098911Y-85673770D01*
X182113323Y-85661384D01*
X182124918Y-85652851D01*
X182124923Y-85652846D01*
X182130818Y-85648508D01*
X182135557Y-85642930D01*
X182135560Y-85642927D01*
X182165035Y-85608232D01*
X182171965Y-85600716D01*
X182177660Y-85595021D01*
X182195281Y-85572749D01*
X182198072Y-85569345D01*
X182240591Y-85519297D01*
X182240592Y-85519295D01*
X182245333Y-85513715D01*
X182248661Y-85507199D01*
X182252028Y-85502150D01*
X182255195Y-85497021D01*
X182259734Y-85491284D01*
X182290655Y-85425125D01*
X182292561Y-85421225D01*
X182319316Y-85368829D01*
X182325769Y-85356192D01*
X182327508Y-85349084D01*
X182329607Y-85343441D01*
X182331524Y-85337678D01*
X182334622Y-85331050D01*
X182349487Y-85259583D01*
X182350457Y-85255299D01*
X182367808Y-85184390D01*
X182368500Y-85173236D01*
X182368536Y-85173238D01*
X182368775Y-85169245D01*
X182369149Y-85165053D01*
X182370640Y-85157885D01*
X182368546Y-85080479D01*
X182368500Y-85077072D01*
X182368500Y-82617069D01*
X182369933Y-82598118D01*
X182372099Y-82583883D01*
X182372099Y-82583881D01*
X182373199Y-82576651D01*
X182372074Y-82562810D01*
X182368915Y-82523982D01*
X182368500Y-82513767D01*
X182368500Y-82505707D01*
X182366667Y-82489988D01*
X182365211Y-82477493D01*
X182364778Y-82473118D01*
X182359454Y-82407661D01*
X182359453Y-82407658D01*
X182358860Y-82400363D01*
X182356604Y-82393399D01*
X182355413Y-82387440D01*
X182354029Y-82381585D01*
X182353182Y-82374319D01*
X182328265Y-82305673D01*
X182326848Y-82301545D01*
X182306607Y-82239064D01*
X182306606Y-82239062D01*
X182304351Y-82232101D01*
X182300555Y-82225846D01*
X182298049Y-82220372D01*
X182295330Y-82214942D01*
X182292833Y-82208063D01*
X182252809Y-82147016D01*
X182250472Y-82143312D01*
X182215509Y-82085693D01*
X182215505Y-82085688D01*
X182212595Y-82080892D01*
X182205197Y-82072516D01*
X182205223Y-82072493D01*
X182202574Y-82069503D01*
X182199866Y-82066264D01*
X182195856Y-82060148D01*
X182190549Y-82055121D01*
X182190546Y-82055117D01*
X182139617Y-82006872D01*
X182137175Y-82004494D01*
X180923770Y-80791089D01*
X180911384Y-80776677D01*
X180902851Y-80765082D01*
X180902846Y-80765077D01*
X180898508Y-80759182D01*
X180892930Y-80754443D01*
X180892927Y-80754440D01*
X180858232Y-80724965D01*
X180850716Y-80718035D01*
X180845021Y-80712340D01*
X180838880Y-80707482D01*
X180822749Y-80694719D01*
X180819345Y-80691928D01*
X180769297Y-80649409D01*
X180769295Y-80649408D01*
X180763715Y-80644667D01*
X180757199Y-80641339D01*
X180752150Y-80637972D01*
X180747021Y-80634805D01*
X180741284Y-80630266D01*
X180675125Y-80599345D01*
X180671225Y-80597439D01*
X180668985Y-80596295D01*
X180606192Y-80564231D01*
X180599084Y-80562492D01*
X180593441Y-80560393D01*
X180587678Y-80558476D01*
X180581050Y-80555378D01*
X180509583Y-80540513D01*
X180505299Y-80539543D01*
X180434390Y-80522192D01*
X180428788Y-80521844D01*
X180428785Y-80521844D01*
X180423236Y-80521500D01*
X180423238Y-80521464D01*
X180419245Y-80521225D01*
X180415053Y-80520851D01*
X180407885Y-80519360D01*
X180341675Y-80521151D01*
X180330479Y-80521454D01*
X180327072Y-80521500D01*
X176806867Y-80521500D01*
X176738746Y-80501498D01*
X176703655Y-80467772D01*
X176681198Y-80435700D01*
X176519300Y-80273802D01*
X176514792Y-80270645D01*
X176514789Y-80270643D01*
X176422980Y-80206358D01*
X176331749Y-80142477D01*
X176326767Y-80140154D01*
X176326762Y-80140151D01*
X176292543Y-80124195D01*
X176239258Y-80077278D01*
X176219797Y-80009001D01*
X176240339Y-79941041D01*
X176292543Y-79895805D01*
X176326762Y-79879849D01*
X176326767Y-79879846D01*
X176331749Y-79877523D01*
X176450892Y-79794098D01*
X176514789Y-79749357D01*
X176514792Y-79749355D01*
X176519300Y-79746198D01*
X176681198Y-79584300D01*
X176703655Y-79552229D01*
X176759110Y-79507901D01*
X176806867Y-79498500D01*
X179602930Y-79498500D01*
X179621880Y-79499933D01*
X179636115Y-79502099D01*
X179636119Y-79502099D01*
X179643349Y-79503199D01*
X179650641Y-79502606D01*
X179650644Y-79502606D01*
X179696018Y-79498915D01*
X179706233Y-79498500D01*
X179714293Y-79498500D01*
X179727583Y-79496951D01*
X179742507Y-79495211D01*
X179746882Y-79494778D01*
X179812339Y-79489454D01*
X179812342Y-79489453D01*
X179819637Y-79488860D01*
X179826601Y-79486604D01*
X179832560Y-79485413D01*
X179838415Y-79484029D01*
X179845681Y-79483182D01*
X179914327Y-79458265D01*
X179918440Y-79456853D01*
X179965066Y-79441748D01*
X180029015Y-79438144D01*
X180177656Y-79468385D01*
X180308324Y-79473176D01*
X180403949Y-79476683D01*
X180403953Y-79476683D01*
X180409113Y-79476872D01*
X180414233Y-79476216D01*
X180414235Y-79476216D01*
X180513668Y-79463478D01*
X180638847Y-79447442D01*
X180643795Y-79445957D01*
X180643802Y-79445956D01*
X180855747Y-79382369D01*
X180860690Y-79380886D01*
X180957856Y-79333285D01*
X181064049Y-79281262D01*
X181064052Y-79281260D01*
X181068684Y-79278991D01*
X181257243Y-79144494D01*
X181273577Y-79128217D01*
X181335949Y-79094301D01*
X181406756Y-79099489D01*
X181463517Y-79142135D01*
X181480500Y-79173240D01*
X181491677Y-79203056D01*
X181500214Y-79218649D01*
X181576715Y-79320724D01*
X181589276Y-79333285D01*
X181691351Y-79409786D01*
X181706946Y-79418324D01*
X181827394Y-79463478D01*
X181842649Y-79467105D01*
X181893514Y-79472631D01*
X181900328Y-79473000D01*
X182572885Y-79473000D01*
X182588124Y-79468525D01*
X182589329Y-79467135D01*
X182591000Y-79459452D01*
X182591000Y-79454884D01*
X183099000Y-79454884D01*
X183103475Y-79470123D01*
X183104865Y-79471328D01*
X183112548Y-79472999D01*
X183789669Y-79472999D01*
X183796490Y-79472629D01*
X183847352Y-79467105D01*
X183862604Y-79463479D01*
X183983054Y-79418324D01*
X183998649Y-79409786D01*
X184100724Y-79333285D01*
X184113285Y-79320724D01*
X184189786Y-79218649D01*
X184198324Y-79203054D01*
X184243478Y-79082606D01*
X184247105Y-79067351D01*
X184252631Y-79016486D01*
X184253000Y-79009672D01*
X184253000Y-78337115D01*
X184248525Y-78321876D01*
X184247135Y-78320671D01*
X184239452Y-78319000D01*
X183117115Y-78319000D01*
X183101876Y-78323475D01*
X183100671Y-78324865D01*
X183099000Y-78332548D01*
X183099000Y-79454884D01*
X182591000Y-79454884D01*
X182591000Y-77792885D01*
X183099000Y-77792885D01*
X183103475Y-77808124D01*
X183104865Y-77809329D01*
X183112548Y-77811000D01*
X184234884Y-77811000D01*
X184250123Y-77806525D01*
X184251328Y-77805135D01*
X184252999Y-77797452D01*
X184252999Y-77120331D01*
X184252629Y-77113510D01*
X184247105Y-77062648D01*
X184243479Y-77047396D01*
X184198324Y-76926946D01*
X184189786Y-76911351D01*
X184113285Y-76809276D01*
X184100724Y-76796715D01*
X183998649Y-76720214D01*
X183983054Y-76711676D01*
X183862606Y-76666522D01*
X183847351Y-76662895D01*
X183796486Y-76657369D01*
X183789672Y-76657000D01*
X183117115Y-76657000D01*
X183101876Y-76661475D01*
X183100671Y-76662865D01*
X183099000Y-76670548D01*
X183099000Y-77792885D01*
X182591000Y-77792885D01*
X182591000Y-76675116D01*
X182586525Y-76659877D01*
X182585135Y-76658672D01*
X182577452Y-76657001D01*
X181900331Y-76657001D01*
X181893510Y-76657371D01*
X181842648Y-76662895D01*
X181827396Y-76666521D01*
X181706946Y-76711676D01*
X181691351Y-76720214D01*
X181589276Y-76796715D01*
X181576715Y-76809276D01*
X181500214Y-76911351D01*
X181491675Y-76926948D01*
X181480318Y-76957243D01*
X181437677Y-77014008D01*
X181371116Y-77038708D01*
X181301767Y-77023501D01*
X181284244Y-77011896D01*
X181131177Y-76891011D01*
X181131172Y-76891008D01*
X181127123Y-76887810D01*
X181122607Y-76885317D01*
X181122604Y-76885315D01*
X180928879Y-76778373D01*
X180928875Y-76778371D01*
X180924355Y-76775876D01*
X180919486Y-76774152D01*
X180919482Y-76774150D01*
X180710903Y-76700288D01*
X180710899Y-76700287D01*
X180706028Y-76698562D01*
X180700935Y-76697655D01*
X180700932Y-76697654D01*
X180483095Y-76658851D01*
X180483089Y-76658850D01*
X180478006Y-76657945D01*
X180400644Y-76657000D01*
X180251581Y-76655179D01*
X180251579Y-76655179D01*
X180246411Y-76655116D01*
X180017464Y-76690150D01*
X179797314Y-76762106D01*
X179792726Y-76764494D01*
X179792722Y-76764496D01*
X179625086Y-76851762D01*
X179591872Y-76869052D01*
X179587739Y-76872155D01*
X179587736Y-76872157D01*
X179472677Y-76958546D01*
X179406655Y-77008117D01*
X179246639Y-77175564D01*
X179116119Y-77366899D01*
X179018602Y-77576981D01*
X178956707Y-77800169D01*
X178953074Y-77834167D01*
X178949363Y-77868889D01*
X178922235Y-77934499D01*
X178863943Y-77975027D01*
X178824076Y-77981500D01*
X176806867Y-77981500D01*
X176738746Y-77961498D01*
X176703655Y-77927772D01*
X176681198Y-77895700D01*
X176519300Y-77733802D01*
X176514789Y-77730643D01*
X176510576Y-77727108D01*
X176511388Y-77726140D01*
X176470910Y-77675506D01*
X176463596Y-77604887D01*
X176495624Y-77541524D01*
X176556823Y-77505536D01*
X176573901Y-77502480D01*
X176577352Y-77502105D01*
X176592604Y-77498479D01*
X176713054Y-77453324D01*
X176728649Y-77444786D01*
X176830724Y-77368285D01*
X176843285Y-77355724D01*
X176919786Y-77253649D01*
X176928324Y-77238054D01*
X176973478Y-77117606D01*
X176977105Y-77102351D01*
X176982631Y-77051486D01*
X176983000Y-77044672D01*
X176983000Y-76519654D01*
X191180618Y-76519654D01*
X191187673Y-76529627D01*
X191218679Y-76555551D01*
X191225598Y-76560579D01*
X191450272Y-76701515D01*
X191457807Y-76705556D01*
X191699520Y-76814694D01*
X191707551Y-76817680D01*
X191961832Y-76893002D01*
X191970184Y-76894869D01*
X192232340Y-76934984D01*
X192240874Y-76935700D01*
X192506045Y-76939867D01*
X192514596Y-76939418D01*
X192777883Y-76907557D01*
X192786284Y-76905955D01*
X193042824Y-76838653D01*
X193050926Y-76835926D01*
X193295949Y-76734434D01*
X193303617Y-76730628D01*
X193532598Y-76596822D01*
X193539679Y-76592009D01*
X193619655Y-76529301D01*
X193628125Y-76517442D01*
X193621608Y-76505818D01*
X192417812Y-75302022D01*
X192403868Y-75294408D01*
X192402035Y-75294539D01*
X192395420Y-75298790D01*
X191187910Y-76506300D01*
X191180618Y-76519654D01*
X176983000Y-76519654D01*
X176983000Y-76472115D01*
X176978525Y-76456876D01*
X176977135Y-76455671D01*
X176969452Y-76454000D01*
X173585116Y-76454000D01*
X173569877Y-76458475D01*
X173568672Y-76459865D01*
X173567001Y-76467548D01*
X173567001Y-77044669D01*
X173567371Y-77051490D01*
X173572895Y-77102352D01*
X173576521Y-77117604D01*
X173621676Y-77238054D01*
X173630214Y-77253649D01*
X173706715Y-77355724D01*
X173719276Y-77368285D01*
X173821351Y-77444786D01*
X173836946Y-77453324D01*
X173957394Y-77498478D01*
X173972643Y-77502104D01*
X173976096Y-77502479D01*
X173978606Y-77503522D01*
X173980331Y-77503932D01*
X173980265Y-77504211D01*
X174041659Y-77529719D01*
X174082088Y-77588080D01*
X174084546Y-77659034D01*
X174048253Y-77720054D01*
X174036760Y-77729344D01*
X174035214Y-77730641D01*
X174030700Y-77733802D01*
X173868802Y-77895700D01*
X173846345Y-77927771D01*
X173790890Y-77972099D01*
X173743133Y-77981500D01*
X172802063Y-77981500D01*
X172783114Y-77980067D01*
X172782907Y-77980036D01*
X172761651Y-77976802D01*
X172754359Y-77977395D01*
X172754356Y-77977395D01*
X172708991Y-77981085D01*
X172698777Y-77981500D01*
X172690707Y-77981500D01*
X172687087Y-77981922D01*
X172687069Y-77981923D01*
X172662461Y-77984792D01*
X172658100Y-77985224D01*
X172632981Y-77987267D01*
X172592661Y-77990546D01*
X172592658Y-77990547D01*
X172585363Y-77991140D01*
X172578399Y-77993396D01*
X172572440Y-77994587D01*
X172566585Y-77995971D01*
X172559319Y-77996818D01*
X172490673Y-78021735D01*
X172486545Y-78023152D01*
X172424064Y-78043393D01*
X172424062Y-78043394D01*
X172417101Y-78045649D01*
X172410846Y-78049445D01*
X172405372Y-78051951D01*
X172399942Y-78054670D01*
X172393063Y-78057167D01*
X172332016Y-78097191D01*
X172328327Y-78099518D01*
X172308135Y-78111771D01*
X172270693Y-78134491D01*
X172270688Y-78134495D01*
X172265892Y-78137405D01*
X172257516Y-78144803D01*
X172257493Y-78144777D01*
X172254503Y-78147426D01*
X172251264Y-78150134D01*
X172245148Y-78154144D01*
X172240121Y-78159451D01*
X172240117Y-78159454D01*
X172191872Y-78210383D01*
X172189494Y-78212825D01*
X169917724Y-80484595D01*
X169855412Y-80518621D01*
X169828629Y-80521500D01*
X169186867Y-80521500D01*
X169118746Y-80501498D01*
X169083655Y-80467772D01*
X169061198Y-80435700D01*
X168899300Y-80273802D01*
X168894792Y-80270645D01*
X168894789Y-80270643D01*
X168802980Y-80206358D01*
X168711749Y-80142477D01*
X168706767Y-80140154D01*
X168706762Y-80140151D01*
X168672543Y-80124195D01*
X168619258Y-80077278D01*
X168599797Y-80009001D01*
X168620339Y-79941041D01*
X168672543Y-79895805D01*
X168706762Y-79879849D01*
X168706767Y-79879846D01*
X168711749Y-79877523D01*
X168830892Y-79794098D01*
X168894789Y-79749357D01*
X168894792Y-79749355D01*
X168899300Y-79746198D01*
X169061198Y-79584300D01*
X169192523Y-79396749D01*
X169194846Y-79391767D01*
X169194849Y-79391762D01*
X169286961Y-79194225D01*
X169286961Y-79194224D01*
X169289284Y-79189243D01*
X169335575Y-79016486D01*
X169347119Y-78973402D01*
X169347119Y-78973400D01*
X169348543Y-78968087D01*
X169368498Y-78740000D01*
X169348543Y-78511913D01*
X169325698Y-78426654D01*
X169290707Y-78296067D01*
X169290706Y-78296065D01*
X169289284Y-78290757D01*
X169251898Y-78210582D01*
X169194849Y-78088238D01*
X169194846Y-78088233D01*
X169192523Y-78083251D01*
X169107270Y-77961498D01*
X169064357Y-77900211D01*
X169064355Y-77900208D01*
X169061198Y-77895700D01*
X168899300Y-77733802D01*
X168894792Y-77730645D01*
X168894789Y-77730643D01*
X168816045Y-77675506D01*
X168711749Y-77602477D01*
X168706767Y-77600154D01*
X168706762Y-77600151D01*
X168672543Y-77584195D01*
X168619258Y-77537278D01*
X168599797Y-77469001D01*
X168620339Y-77401041D01*
X168672543Y-77355805D01*
X168706762Y-77339849D01*
X168706767Y-77339846D01*
X168711749Y-77337523D01*
X168853805Y-77238054D01*
X168894789Y-77209357D01*
X168894792Y-77209355D01*
X168899300Y-77206198D01*
X169061198Y-77044300D01*
X169083917Y-77011855D01*
X169148967Y-76918953D01*
X169192523Y-76856749D01*
X169194846Y-76851767D01*
X169194849Y-76851762D01*
X169286961Y-76654225D01*
X169286961Y-76654224D01*
X169289284Y-76649243D01*
X169331954Y-76490000D01*
X169347119Y-76433402D01*
X169347119Y-76433400D01*
X169348543Y-76428087D01*
X169353704Y-76369105D01*
X169368019Y-76205475D01*
X169368498Y-76200000D01*
X169348543Y-75971913D01*
X169347119Y-75966598D01*
X169336746Y-75927885D01*
X173567000Y-75927885D01*
X173571475Y-75943124D01*
X173572865Y-75944329D01*
X173580548Y-75946000D01*
X175002885Y-75946000D01*
X175018124Y-75941525D01*
X175019329Y-75940135D01*
X175021000Y-75932452D01*
X175021000Y-75927885D01*
X175529000Y-75927885D01*
X175533475Y-75943124D01*
X175534865Y-75944329D01*
X175542548Y-75946000D01*
X176964884Y-75946000D01*
X176980123Y-75941525D01*
X176981328Y-75940135D01*
X176982999Y-75932452D01*
X176982999Y-75355331D01*
X176982629Y-75348510D01*
X176977105Y-75297648D01*
X176973479Y-75282396D01*
X176928324Y-75161946D01*
X176919786Y-75146351D01*
X176843285Y-75044276D01*
X176830724Y-75031715D01*
X176728649Y-74955214D01*
X176713054Y-74946676D01*
X176592606Y-74901522D01*
X176577351Y-74897895D01*
X176526486Y-74892369D01*
X176519672Y-74892000D01*
X175547115Y-74892000D01*
X175531876Y-74896475D01*
X175530671Y-74897865D01*
X175529000Y-74905548D01*
X175529000Y-75927885D01*
X175021000Y-75927885D01*
X175021000Y-74910116D01*
X175016525Y-74894877D01*
X175015135Y-74893672D01*
X175007452Y-74892001D01*
X174030331Y-74892001D01*
X174023510Y-74892371D01*
X173972648Y-74897895D01*
X173957396Y-74901521D01*
X173836946Y-74946676D01*
X173821351Y-74955214D01*
X173719276Y-75031715D01*
X173706715Y-75044276D01*
X173630214Y-75146351D01*
X173621676Y-75161946D01*
X173576522Y-75282394D01*
X173572895Y-75297649D01*
X173567369Y-75348514D01*
X173567000Y-75355328D01*
X173567000Y-75927885D01*
X169336746Y-75927885D01*
X169290707Y-75756067D01*
X169290706Y-75756065D01*
X169289284Y-75750757D01*
X169280636Y-75732211D01*
X169194849Y-75548238D01*
X169194846Y-75548233D01*
X169192523Y-75543251D01*
X169083654Y-75387770D01*
X169064357Y-75360211D01*
X169064355Y-75360208D01*
X169061198Y-75355700D01*
X168899300Y-75193802D01*
X168894792Y-75190645D01*
X168894789Y-75190643D01*
X168794758Y-75120601D01*
X168711749Y-75062477D01*
X168706767Y-75060154D01*
X168706762Y-75060151D01*
X168548141Y-74986186D01*
X168504243Y-74965716D01*
X168498926Y-74964291D01*
X168496411Y-74963376D01*
X168439237Y-74921284D01*
X168413897Y-74854964D01*
X168413500Y-74844973D01*
X168413500Y-74544500D01*
X168433502Y-74476379D01*
X168487158Y-74429886D01*
X168539500Y-74418500D01*
X186323629Y-74418500D01*
X186391750Y-74438502D01*
X186412724Y-74455405D01*
X186451412Y-74494093D01*
X186485438Y-74556405D01*
X186484836Y-74612602D01*
X186466620Y-74688476D01*
X186466619Y-74688482D01*
X186465465Y-74693289D01*
X186446835Y-74930000D01*
X186465465Y-75166711D01*
X186466619Y-75171518D01*
X186466620Y-75171524D01*
X186493580Y-75283818D01*
X186520895Y-75397594D01*
X186522788Y-75402165D01*
X186522789Y-75402167D01*
X186605498Y-75601844D01*
X186611760Y-75616963D01*
X186614346Y-75621183D01*
X186733241Y-75815202D01*
X186733245Y-75815208D01*
X186735824Y-75819416D01*
X186890031Y-75999969D01*
X187070584Y-76154176D01*
X187074792Y-76156755D01*
X187074798Y-76156759D01*
X187193388Y-76229431D01*
X187273037Y-76278240D01*
X187277607Y-76280133D01*
X187277611Y-76280135D01*
X187487833Y-76367211D01*
X187492406Y-76369105D01*
X187550462Y-76383043D01*
X187718476Y-76423380D01*
X187718482Y-76423381D01*
X187723289Y-76424535D01*
X187960000Y-76443165D01*
X188196711Y-76424535D01*
X188201518Y-76423381D01*
X188201524Y-76423380D01*
X188369538Y-76383043D01*
X188427594Y-76369105D01*
X188432167Y-76367211D01*
X188642389Y-76280135D01*
X188642393Y-76280133D01*
X188646963Y-76278240D01*
X188726612Y-76229431D01*
X188845202Y-76156759D01*
X188845208Y-76156755D01*
X188849416Y-76154176D01*
X189029969Y-75999969D01*
X189184176Y-75819416D01*
X189186755Y-75815208D01*
X189186759Y-75815202D01*
X189305654Y-75621183D01*
X189308240Y-75616963D01*
X189314503Y-75601844D01*
X189397211Y-75402167D01*
X189397212Y-75402165D01*
X189399105Y-75397594D01*
X189426420Y-75283818D01*
X189453380Y-75171524D01*
X189453381Y-75171518D01*
X189454535Y-75166711D01*
X189473165Y-74930000D01*
X189471843Y-74913204D01*
X190392665Y-74913204D01*
X190407932Y-75177969D01*
X190409005Y-75186470D01*
X190460065Y-75446722D01*
X190462276Y-75454974D01*
X190548184Y-75705894D01*
X190551499Y-75713779D01*
X190670664Y-75950713D01*
X190675020Y-75958079D01*
X190804347Y-76146250D01*
X190814601Y-76154594D01*
X190828342Y-76147448D01*
X192032978Y-74942812D01*
X192039356Y-74931132D01*
X192769408Y-74931132D01*
X192769539Y-74932965D01*
X192773790Y-74939580D01*
X193980730Y-76146520D01*
X193992939Y-76153187D01*
X194004439Y-76144497D01*
X194101831Y-76011913D01*
X194106418Y-76004685D01*
X194232962Y-75771621D01*
X194236530Y-75763827D01*
X194330271Y-75515750D01*
X194332748Y-75507544D01*
X194391954Y-75249038D01*
X194393294Y-75240577D01*
X194417031Y-74974616D01*
X194417277Y-74969677D01*
X194417666Y-74932485D01*
X194417523Y-74927519D01*
X194399362Y-74661123D01*
X194398201Y-74652649D01*
X194344419Y-74392944D01*
X194342120Y-74384709D01*
X194253588Y-74134705D01*
X194250191Y-74126854D01*
X194128550Y-73891178D01*
X194124122Y-73883866D01*
X194005031Y-73714417D01*
X193994509Y-73706037D01*
X193981121Y-73713089D01*
X192777022Y-74917188D01*
X192769408Y-74931132D01*
X192039356Y-74931132D01*
X192040592Y-74928868D01*
X192040461Y-74927035D01*
X192036210Y-74920420D01*
X190828814Y-73713024D01*
X190816804Y-73706466D01*
X190805064Y-73715434D01*
X190696935Y-73865911D01*
X190692418Y-73873196D01*
X190568325Y-74107567D01*
X190564839Y-74115395D01*
X190473700Y-74364446D01*
X190471311Y-74372670D01*
X190414812Y-74631795D01*
X190413563Y-74640250D01*
X190392754Y-74904653D01*
X190392665Y-74913204D01*
X189471843Y-74913204D01*
X189454535Y-74693289D01*
X189444779Y-74652649D01*
X189414559Y-74526777D01*
X189399105Y-74462406D01*
X189366866Y-74384574D01*
X189310135Y-74247611D01*
X189310133Y-74247607D01*
X189308240Y-74243037D01*
X189241732Y-74134506D01*
X189186759Y-74044798D01*
X189186755Y-74044792D01*
X189184176Y-74040584D01*
X189029969Y-73860031D01*
X188849416Y-73705824D01*
X188845208Y-73703245D01*
X188845202Y-73703241D01*
X188651183Y-73584346D01*
X188646963Y-73581760D01*
X188642393Y-73579867D01*
X188642389Y-73579865D01*
X188432167Y-73492789D01*
X188432165Y-73492788D01*
X188427594Y-73490895D01*
X188346012Y-73471309D01*
X188201524Y-73436620D01*
X188201518Y-73436619D01*
X188196711Y-73435465D01*
X187960000Y-73416835D01*
X187723289Y-73435465D01*
X187718482Y-73436619D01*
X187718476Y-73436620D01*
X187642602Y-73454836D01*
X187571694Y-73451289D01*
X187524093Y-73421412D01*
X187445181Y-73342500D01*
X191181584Y-73342500D01*
X191187980Y-73353770D01*
X192392188Y-74557978D01*
X192406132Y-74565592D01*
X192407965Y-74565461D01*
X192414580Y-74561210D01*
X193621604Y-73354186D01*
X193628795Y-73341017D01*
X193621473Y-73330780D01*
X193574233Y-73292115D01*
X193567261Y-73287160D01*
X193341122Y-73148582D01*
X193333552Y-73144624D01*
X193090704Y-73038022D01*
X193082644Y-73035120D01*
X192827592Y-72962467D01*
X192819214Y-72960685D01*
X192556656Y-72923318D01*
X192548111Y-72922691D01*
X192282908Y-72921302D01*
X192274374Y-72921839D01*
X192011433Y-72956456D01*
X192003035Y-72958149D01*
X191747238Y-73028127D01*
X191739143Y-73030946D01*
X191495199Y-73134997D01*
X191487577Y-73138881D01*
X191260013Y-73275075D01*
X191252981Y-73279962D01*
X191190053Y-73330377D01*
X191181584Y-73342500D01*
X187445181Y-73342500D01*
X187273770Y-73171089D01*
X187261384Y-73156677D01*
X187252851Y-73145082D01*
X187252846Y-73145077D01*
X187248508Y-73139182D01*
X187242930Y-73134443D01*
X187242927Y-73134440D01*
X187208232Y-73104965D01*
X187200716Y-73098035D01*
X187195021Y-73092340D01*
X187188880Y-73087482D01*
X187172749Y-73074719D01*
X187169345Y-73071928D01*
X187119297Y-73029409D01*
X187119295Y-73029408D01*
X187113715Y-73024667D01*
X187107199Y-73021339D01*
X187102150Y-73017972D01*
X187097021Y-73014805D01*
X187091284Y-73010266D01*
X187025125Y-72979345D01*
X187021225Y-72977439D01*
X186956192Y-72944231D01*
X186949084Y-72942492D01*
X186943441Y-72940393D01*
X186937678Y-72938476D01*
X186931050Y-72935378D01*
X186906113Y-72930191D01*
X186885478Y-72925899D01*
X186859583Y-72920513D01*
X186855299Y-72919543D01*
X186784390Y-72902192D01*
X186778788Y-72901844D01*
X186778785Y-72901844D01*
X186773236Y-72901500D01*
X186773238Y-72901464D01*
X186769245Y-72901225D01*
X186765053Y-72900851D01*
X186757885Y-72899360D01*
X186697225Y-72901001D01*
X186680479Y-72901454D01*
X186677072Y-72901500D01*
X167727941Y-72901500D01*
X167716740Y-72901001D01*
X167715050Y-72900850D01*
X167707885Y-72899360D01*
X167693565Y-72899747D01*
X167669310Y-72900403D01*
X167658104Y-72900207D01*
X167621015Y-72897906D01*
X167621009Y-72897906D01*
X167613702Y-72897453D01*
X167601451Y-72899558D01*
X167591834Y-72901210D01*
X167573907Y-72902984D01*
X167551584Y-72903588D01*
X167531079Y-72904143D01*
X167523998Y-72906021D01*
X167523995Y-72906021D01*
X167487148Y-72915791D01*
X167486295Y-72916005D01*
X167479319Y-72916818D01*
X167472436Y-72919316D01*
X167471512Y-72919535D01*
X167463180Y-72922147D01*
X167456057Y-72924036D01*
X167447511Y-72925899D01*
X167446604Y-72926166D01*
X167439386Y-72927406D01*
X167432913Y-72930160D01*
X167432128Y-72930380D01*
X167360116Y-72949474D01*
X167353657Y-72952930D01*
X167210626Y-73029461D01*
X167210623Y-73029463D01*
X167204166Y-73032918D01*
X167198678Y-73037765D01*
X167198675Y-73037767D01*
X167157610Y-73074035D01*
X167071596Y-73150000D01*
X166969516Y-73294440D01*
X166966781Y-73301226D01*
X166966779Y-73301230D01*
X166937598Y-73373639D01*
X166903402Y-73458489D01*
X166902301Y-73465726D01*
X166879956Y-73612611D01*
X166876801Y-73633349D01*
X166891140Y-73809637D01*
X166893396Y-73816602D01*
X166894057Y-73819909D01*
X166896500Y-73844599D01*
X166896500Y-74844973D01*
X166876498Y-74913094D01*
X166822842Y-74959587D01*
X166813589Y-74963376D01*
X166811074Y-74964291D01*
X166805757Y-74965716D01*
X166761859Y-74986186D01*
X166603238Y-75060151D01*
X166603233Y-75060154D01*
X166598251Y-75062477D01*
X166515242Y-75120601D01*
X166415211Y-75190643D01*
X166415208Y-75190645D01*
X166410700Y-75193802D01*
X166248802Y-75355700D01*
X166226345Y-75387771D01*
X166170890Y-75432099D01*
X166123133Y-75441500D01*
X165466371Y-75441500D01*
X165398250Y-75421498D01*
X165377276Y-75404595D01*
X165163519Y-75190838D01*
X165129493Y-75128526D01*
X165134558Y-75057711D01*
X165145182Y-75035908D01*
X165157397Y-75015976D01*
X165178240Y-74981963D01*
X165187509Y-74959587D01*
X165267211Y-74767167D01*
X165267212Y-74767165D01*
X165269105Y-74762594D01*
X165294509Y-74656778D01*
X165323380Y-74536524D01*
X165323381Y-74536518D01*
X165324535Y-74531711D01*
X165343165Y-74295000D01*
X165324535Y-74058289D01*
X165323326Y-74053250D01*
X165277839Y-73863787D01*
X165269105Y-73827406D01*
X165221727Y-73713024D01*
X165180135Y-73612611D01*
X165180133Y-73612607D01*
X165178240Y-73608037D01*
X165106455Y-73490895D01*
X165056759Y-73409798D01*
X165056755Y-73409792D01*
X165054176Y-73405584D01*
X164899969Y-73225031D01*
X164719416Y-73070824D01*
X164715208Y-73068245D01*
X164715202Y-73068241D01*
X164521183Y-72949346D01*
X164516963Y-72946760D01*
X164512393Y-72944867D01*
X164512389Y-72944865D01*
X164302167Y-72857789D01*
X164302165Y-72857788D01*
X164297594Y-72855895D01*
X164217391Y-72836640D01*
X164071524Y-72801620D01*
X164071518Y-72801619D01*
X164066711Y-72800465D01*
X163830000Y-72781835D01*
X163593289Y-72800465D01*
X163588482Y-72801619D01*
X163588476Y-72801620D01*
X163442609Y-72836640D01*
X163362406Y-72855895D01*
X163357835Y-72857788D01*
X163357833Y-72857789D01*
X163147611Y-72944865D01*
X163147607Y-72944867D01*
X163143037Y-72946760D01*
X163138817Y-72949346D01*
X162944798Y-73068241D01*
X162944792Y-73068245D01*
X162940584Y-73070824D01*
X162760031Y-73225031D01*
X162605824Y-73405584D01*
X162603245Y-73409792D01*
X162603241Y-73409798D01*
X162553545Y-73490895D01*
X162481760Y-73608037D01*
X162479867Y-73612607D01*
X162479865Y-73612611D01*
X162438273Y-73713024D01*
X162390895Y-73827406D01*
X162382161Y-73863787D01*
X162336675Y-74053250D01*
X162335465Y-74058289D01*
X162316835Y-74295000D01*
X162335465Y-74531711D01*
X162336619Y-74536518D01*
X162336620Y-74536524D01*
X162365491Y-74656778D01*
X162390895Y-74762594D01*
X162392788Y-74767165D01*
X162392789Y-74767167D01*
X162478717Y-74974616D01*
X162481760Y-74981963D01*
X162484346Y-74986183D01*
X162603241Y-75180202D01*
X162603245Y-75180208D01*
X162605824Y-75184416D01*
X162702534Y-75297649D01*
X162752115Y-75355700D01*
X162760031Y-75364969D01*
X162940584Y-75519176D01*
X162944792Y-75521755D01*
X162944798Y-75521759D01*
X163021084Y-75568507D01*
X163143037Y-75643240D01*
X163147607Y-75645133D01*
X163147611Y-75645135D01*
X163357833Y-75732211D01*
X163362406Y-75734105D01*
X163460267Y-75757599D01*
X163589747Y-75788685D01*
X163649428Y-75822109D01*
X164516230Y-76688911D01*
X164528616Y-76703323D01*
X164537149Y-76714918D01*
X164537154Y-76714923D01*
X164541492Y-76720818D01*
X164547070Y-76725557D01*
X164547073Y-76725560D01*
X164581768Y-76755035D01*
X164589284Y-76761965D01*
X164594979Y-76767660D01*
X164597861Y-76769940D01*
X164617251Y-76785281D01*
X164620655Y-76788072D01*
X164655506Y-76817680D01*
X164676285Y-76835333D01*
X164682801Y-76838661D01*
X164687850Y-76842028D01*
X164692979Y-76845195D01*
X164698716Y-76849734D01*
X164764875Y-76880655D01*
X164768769Y-76882558D01*
X164833808Y-76915769D01*
X164840916Y-76917508D01*
X164846559Y-76919607D01*
X164852322Y-76921524D01*
X164858950Y-76924622D01*
X164866112Y-76926112D01*
X164866113Y-76926112D01*
X164930412Y-76939486D01*
X164934696Y-76940456D01*
X165005610Y-76957808D01*
X165011212Y-76958156D01*
X165011215Y-76958156D01*
X165016764Y-76958500D01*
X165016762Y-76958536D01*
X165020755Y-76958775D01*
X165024947Y-76959149D01*
X165032115Y-76960640D01*
X165109520Y-76958546D01*
X165112928Y-76958500D01*
X166123133Y-76958500D01*
X166191254Y-76978502D01*
X166226345Y-77012228D01*
X166248802Y-77044300D01*
X166410700Y-77206198D01*
X166415208Y-77209355D01*
X166415211Y-77209357D01*
X166456195Y-77238054D01*
X166598251Y-77337523D01*
X166603233Y-77339846D01*
X166603238Y-77339849D01*
X166637457Y-77355805D01*
X166690742Y-77402722D01*
X166710203Y-77470999D01*
X166689661Y-77538959D01*
X166637457Y-77584195D01*
X166603238Y-77600151D01*
X166603233Y-77600154D01*
X166598251Y-77602477D01*
X166493955Y-77675506D01*
X166415211Y-77730643D01*
X166415208Y-77730645D01*
X166410700Y-77733802D01*
X166248802Y-77895700D01*
X166226345Y-77927771D01*
X166170890Y-77972099D01*
X166123133Y-77981500D01*
X157744500Y-77981500D01*
X157676379Y-77961498D01*
X157629886Y-77907842D01*
X157618500Y-77855500D01*
X157618500Y-77791866D01*
X157611745Y-77729684D01*
X157560615Y-77593295D01*
X157473261Y-77476739D01*
X157356705Y-77389385D01*
X157220316Y-77338255D01*
X157158134Y-77331500D01*
X157094500Y-77331500D01*
X157026379Y-77311498D01*
X156979886Y-77257842D01*
X156968500Y-77205500D01*
X156968500Y-75669965D01*
X156988502Y-75601844D01*
X157028664Y-75562533D01*
X157051991Y-75548238D01*
X157099416Y-75519176D01*
X157179178Y-75451053D01*
X157276213Y-75368177D01*
X157279969Y-75364969D01*
X157287886Y-75355700D01*
X157337466Y-75297649D01*
X157434176Y-75184416D01*
X157436755Y-75180208D01*
X157436759Y-75180202D01*
X157555654Y-74986183D01*
X157558240Y-74981963D01*
X157561284Y-74974616D01*
X157647211Y-74767167D01*
X157647212Y-74767165D01*
X157649105Y-74762594D01*
X157674509Y-74656778D01*
X157703380Y-74536524D01*
X157703381Y-74536518D01*
X157704535Y-74531711D01*
X157723165Y-74295000D01*
X157704535Y-74058289D01*
X157703326Y-74053250D01*
X157657839Y-73863787D01*
X157649105Y-73827406D01*
X157601727Y-73713024D01*
X157560135Y-73612611D01*
X157560133Y-73612607D01*
X157558240Y-73608037D01*
X157486455Y-73490895D01*
X157436759Y-73409798D01*
X157436755Y-73409792D01*
X157434176Y-73405584D01*
X157279969Y-73225031D01*
X157099416Y-73070824D01*
X157095208Y-73068245D01*
X157095202Y-73068241D01*
X156901183Y-72949346D01*
X156896963Y-72946760D01*
X156892393Y-72944867D01*
X156892389Y-72944865D01*
X156682167Y-72857789D01*
X156682165Y-72857788D01*
X156677594Y-72855895D01*
X156597391Y-72836640D01*
X156451524Y-72801620D01*
X156451518Y-72801619D01*
X156446711Y-72800465D01*
X156210000Y-72781835D01*
X155973289Y-72800465D01*
X155968482Y-72801619D01*
X155968476Y-72801620D01*
X155822609Y-72836640D01*
X155742406Y-72855895D01*
X155737835Y-72857788D01*
X155737833Y-72857789D01*
X155527611Y-72944865D01*
X155527607Y-72944867D01*
X155523037Y-72946760D01*
X155518817Y-72949346D01*
X155324798Y-73068241D01*
X155324792Y-73068245D01*
X155320584Y-73070824D01*
X155140031Y-73225031D01*
X154985824Y-73405584D01*
X154983245Y-73409792D01*
X154983241Y-73409798D01*
X154933545Y-73490895D01*
X154861760Y-73608037D01*
X154859867Y-73612607D01*
X154859865Y-73612611D01*
X154818273Y-73713024D01*
X154770895Y-73827406D01*
X154762161Y-73863787D01*
X154716675Y-74053250D01*
X154715465Y-74058289D01*
X154696835Y-74295000D01*
X154715465Y-74531711D01*
X154716619Y-74536518D01*
X154716620Y-74536524D01*
X154745491Y-74656778D01*
X154770895Y-74762594D01*
X154772788Y-74767165D01*
X154772789Y-74767167D01*
X154858717Y-74974616D01*
X154861760Y-74981963D01*
X154864346Y-74986183D01*
X154983241Y-75180202D01*
X154983245Y-75180208D01*
X154985824Y-75184416D01*
X155082534Y-75297649D01*
X155132115Y-75355700D01*
X155140031Y-75364969D01*
X155143787Y-75368177D01*
X155240822Y-75451053D01*
X155320584Y-75519176D01*
X155368009Y-75548238D01*
X155391336Y-75562533D01*
X155438967Y-75615181D01*
X155451500Y-75669965D01*
X155451500Y-77205500D01*
X155431498Y-77273621D01*
X155377842Y-77320114D01*
X155325500Y-77331500D01*
X155261866Y-77331500D01*
X155199684Y-77338255D01*
X155063295Y-77389385D01*
X154946739Y-77476739D01*
X154859385Y-77593295D01*
X154808255Y-77729684D01*
X154801500Y-77791866D01*
X154801500Y-79688134D01*
X154808255Y-79750316D01*
X154859385Y-79886705D01*
X154946739Y-80003261D01*
X155063295Y-80090615D01*
X155071703Y-80093767D01*
X155103022Y-80105508D01*
X155159786Y-80148150D01*
X155184486Y-80214711D01*
X155169279Y-80284060D01*
X155149886Y-80310540D01*
X155111639Y-80350564D01*
X154981119Y-80541899D01*
X154883602Y-80751981D01*
X154821707Y-80975169D01*
X154797095Y-81205469D01*
X154797392Y-81210622D01*
X154797392Y-81210625D01*
X154810129Y-81431529D01*
X154810427Y-81436697D01*
X154811564Y-81441743D01*
X154811565Y-81441749D01*
X154825280Y-81502607D01*
X154861346Y-81662642D01*
X154863288Y-81667424D01*
X154863289Y-81667428D01*
X154946203Y-81871619D01*
X154948484Y-81877237D01*
X155069501Y-82074719D01*
X155221147Y-82249784D01*
X155385556Y-82386279D01*
X155396462Y-82395333D01*
X155436097Y-82454235D01*
X155437595Y-82525216D01*
X155400481Y-82585739D01*
X155391630Y-82593037D01*
X155296857Y-82664195D01*
X155271655Y-82683117D01*
X155268083Y-82686855D01*
X155133894Y-82827276D01*
X155111639Y-82850564D01*
X155108725Y-82854836D01*
X155108724Y-82854837D01*
X155093152Y-82877665D01*
X154981119Y-83041899D01*
X154883602Y-83251981D01*
X154821707Y-83475169D01*
X154797095Y-83705469D01*
X154797392Y-83710622D01*
X154797392Y-83710625D01*
X154806590Y-83870143D01*
X154810427Y-83936697D01*
X154811564Y-83941743D01*
X154811565Y-83941749D01*
X154835530Y-84048087D01*
X154861346Y-84162642D01*
X154863288Y-84167424D01*
X154863289Y-84167428D01*
X154946540Y-84372450D01*
X154948484Y-84377237D01*
X155069501Y-84574719D01*
X155221147Y-84749784D01*
X155399349Y-84897730D01*
X155599322Y-85014584D01*
X155604147Y-85016426D01*
X155604148Y-85016427D01*
X155676815Y-85044176D01*
X155815694Y-85097209D01*
X155820760Y-85098240D01*
X155820761Y-85098240D01*
X155825455Y-85099195D01*
X156042656Y-85143385D01*
X156173324Y-85148176D01*
X156268949Y-85151683D01*
X156268953Y-85151683D01*
X156274113Y-85151872D01*
X156279233Y-85151216D01*
X156279235Y-85151216D01*
X156365374Y-85140181D01*
X156503847Y-85122442D01*
X156508795Y-85120957D01*
X156508802Y-85120956D01*
X156720747Y-85057369D01*
X156725690Y-85055886D01*
X156744321Y-85046759D01*
X156929049Y-84956262D01*
X156929052Y-84956260D01*
X156933684Y-84953991D01*
X157122243Y-84819494D01*
X157286303Y-84656005D01*
X157421458Y-84467917D01*
X157426737Y-84457237D01*
X157521784Y-84264922D01*
X157521785Y-84264920D01*
X157524078Y-84260280D01*
X157591408Y-84038671D01*
X157621640Y-83809041D01*
X157622216Y-83785469D01*
X157623245Y-83743365D01*
X157623245Y-83743361D01*
X157623327Y-83740000D01*
X157611900Y-83601010D01*
X157604773Y-83514318D01*
X157604772Y-83514312D01*
X157604349Y-83509167D01*
X157566182Y-83357218D01*
X157549184Y-83289544D01*
X157549183Y-83289540D01*
X157547925Y-83284533D01*
X157545866Y-83279797D01*
X157457630Y-83076868D01*
X157457628Y-83076865D01*
X157455570Y-83072131D01*
X157329764Y-82877665D01*
X157173887Y-82706358D01*
X157169836Y-82703159D01*
X157169832Y-82703155D01*
X157023690Y-82587740D01*
X156982627Y-82529823D01*
X156979395Y-82458900D01*
X157015020Y-82397489D01*
X157028613Y-82386279D01*
X157036161Y-82380895D01*
X157122243Y-82319494D01*
X157286303Y-82156005D01*
X157333034Y-82090972D01*
X157389028Y-82047326D01*
X157435355Y-82038500D01*
X166123133Y-82038500D01*
X166191254Y-82058502D01*
X166226345Y-82092228D01*
X166248802Y-82124300D01*
X166410700Y-82286198D01*
X166415208Y-82289355D01*
X166415211Y-82289357D01*
X166448667Y-82312783D01*
X166598251Y-82417523D01*
X166603233Y-82419846D01*
X166603238Y-82419849D01*
X166637457Y-82435805D01*
X166690742Y-82482722D01*
X166710203Y-82550999D01*
X166689661Y-82618959D01*
X166637457Y-82664195D01*
X166603238Y-82680151D01*
X166603233Y-82680154D01*
X166598251Y-82682477D01*
X166533612Y-82727738D01*
X166415211Y-82810643D01*
X166415208Y-82810645D01*
X166410700Y-82813802D01*
X166248802Y-82975700D01*
X166226345Y-83007771D01*
X166170890Y-83052099D01*
X166123133Y-83061500D01*
X163830493Y-83061500D01*
X163762372Y-83041498D01*
X163724701Y-83003941D01*
X163697571Y-82962004D01*
X163694764Y-82957665D01*
X163673960Y-82934801D01*
X163632819Y-82889588D01*
X163538887Y-82786358D01*
X163534836Y-82783159D01*
X163534832Y-82783155D01*
X163361177Y-82646011D01*
X163361172Y-82646008D01*
X163357123Y-82642810D01*
X163352607Y-82640317D01*
X163352604Y-82640315D01*
X163158879Y-82533373D01*
X163158875Y-82533371D01*
X163154355Y-82530876D01*
X163149486Y-82529152D01*
X163149482Y-82529150D01*
X162940903Y-82455288D01*
X162940899Y-82455287D01*
X162936028Y-82453562D01*
X162930935Y-82452655D01*
X162930932Y-82452654D01*
X162713095Y-82413851D01*
X162713089Y-82413850D01*
X162708006Y-82412945D01*
X162635096Y-82412054D01*
X162481581Y-82410179D01*
X162481579Y-82410179D01*
X162476411Y-82410116D01*
X162247464Y-82445150D01*
X162027314Y-82517106D01*
X162022726Y-82519494D01*
X162022722Y-82519496D01*
X161826461Y-82621663D01*
X161821872Y-82624052D01*
X161817739Y-82627155D01*
X161817736Y-82627157D01*
X161649081Y-82753787D01*
X161636655Y-82763117D01*
X161633083Y-82766855D01*
X161515797Y-82889588D01*
X161476639Y-82930564D01*
X161473725Y-82934836D01*
X161473724Y-82934837D01*
X161458152Y-82957665D01*
X161346119Y-83121899D01*
X161248602Y-83331981D01*
X161186707Y-83555169D01*
X161162095Y-83785469D01*
X161162392Y-83790622D01*
X161162392Y-83790625D01*
X161166733Y-83865907D01*
X161175427Y-84016697D01*
X161176564Y-84021743D01*
X161176565Y-84021749D01*
X161185529Y-84061524D01*
X161226346Y-84242642D01*
X161228288Y-84247424D01*
X161228289Y-84247428D01*
X161288415Y-84395499D01*
X161313484Y-84457237D01*
X161434501Y-84654719D01*
X161586147Y-84829784D01*
X161695927Y-84920925D01*
X161764349Y-84977730D01*
X161763250Y-84979053D01*
X161802845Y-85028576D01*
X161810162Y-85099195D01*
X161787226Y-85151711D01*
X161780508Y-85160712D01*
X161787251Y-85173040D01*
X162562189Y-85947979D01*
X162576132Y-85955592D01*
X162577966Y-85955461D01*
X162584580Y-85951210D01*
X163363994Y-85171795D01*
X163371011Y-85158944D01*
X163361320Y-85145643D01*
X163337371Y-85078808D01*
X163353358Y-85009634D01*
X163389988Y-84968865D01*
X163410315Y-84954366D01*
X163487243Y-84899494D01*
X163651303Y-84736005D01*
X163726777Y-84630973D01*
X163782770Y-84587326D01*
X163829098Y-84578500D01*
X166123133Y-84578500D01*
X166191254Y-84598502D01*
X166226345Y-84632228D01*
X166248802Y-84664300D01*
X166410700Y-84826198D01*
X166415208Y-84829355D01*
X166415211Y-84829357D01*
X166415821Y-84829784D01*
X166598251Y-84957523D01*
X166603233Y-84959846D01*
X166603238Y-84959849D01*
X166777194Y-85040965D01*
X166805757Y-85054284D01*
X166811065Y-85055706D01*
X166811067Y-85055707D01*
X167021598Y-85112119D01*
X167021600Y-85112119D01*
X167026913Y-85113543D01*
X167126480Y-85122254D01*
X167195149Y-85128262D01*
X167195156Y-85128262D01*
X167197873Y-85128500D01*
X168112127Y-85128500D01*
X168114844Y-85128262D01*
X168114851Y-85128262D01*
X168183520Y-85122254D01*
X168283087Y-85113543D01*
X168288400Y-85112119D01*
X168288402Y-85112119D01*
X168498933Y-85055707D01*
X168498935Y-85055706D01*
X168504243Y-85054284D01*
X168532806Y-85040965D01*
X168706762Y-84959849D01*
X168706767Y-84959846D01*
X168711749Y-84957523D01*
X168894179Y-84829784D01*
X168894789Y-84829357D01*
X168894792Y-84829355D01*
X168899300Y-84826198D01*
X169061198Y-84664300D01*
X169067007Y-84656005D01*
X169145584Y-84543785D01*
X169192523Y-84476749D01*
X169194846Y-84471767D01*
X169194849Y-84471762D01*
X169286961Y-84274225D01*
X169286961Y-84274224D01*
X169289284Y-84269243D01*
X169295130Y-84247428D01*
X169347119Y-84053402D01*
X169347119Y-84053400D01*
X169348543Y-84048087D01*
X169368498Y-83820000D01*
X169348543Y-83591913D01*
X169340073Y-83560301D01*
X169290707Y-83376067D01*
X169290706Y-83376065D01*
X169289284Y-83370757D01*
X169280727Y-83352406D01*
X169194849Y-83168238D01*
X169194846Y-83168233D01*
X169192523Y-83163251D01*
X169061198Y-82975700D01*
X168899300Y-82813802D01*
X168894792Y-82810645D01*
X168894789Y-82810643D01*
X168776388Y-82727738D01*
X168711749Y-82682477D01*
X168706767Y-82680154D01*
X168706762Y-82680151D01*
X168672543Y-82664195D01*
X168619258Y-82617278D01*
X168599797Y-82549001D01*
X168620339Y-82481041D01*
X168672543Y-82435805D01*
X168706762Y-82419849D01*
X168706767Y-82419846D01*
X168711749Y-82417523D01*
X168861333Y-82312783D01*
X168894789Y-82289357D01*
X168894792Y-82289355D01*
X168899300Y-82286198D01*
X169061198Y-82124300D01*
X169083655Y-82092229D01*
X169139110Y-82047901D01*
X169186867Y-82038500D01*
X170127930Y-82038500D01*
X170146880Y-82039933D01*
X170161115Y-82042099D01*
X170161119Y-82042099D01*
X170168349Y-82043199D01*
X170175641Y-82042606D01*
X170175644Y-82042606D01*
X170221018Y-82038915D01*
X170231233Y-82038500D01*
X170239293Y-82038500D01*
X170252583Y-82036951D01*
X170267507Y-82035211D01*
X170271882Y-82034778D01*
X170337339Y-82029454D01*
X170337342Y-82029453D01*
X170344637Y-82028860D01*
X170351601Y-82026604D01*
X170357560Y-82025413D01*
X170363415Y-82024029D01*
X170370681Y-82023182D01*
X170439327Y-81998265D01*
X170443455Y-81996848D01*
X170505936Y-81976607D01*
X170505938Y-81976606D01*
X170512899Y-81974351D01*
X170519154Y-81970555D01*
X170524628Y-81968049D01*
X170530058Y-81965330D01*
X170536937Y-81962833D01*
X170569846Y-81941257D01*
X170597976Y-81922814D01*
X170601680Y-81920477D01*
X170664107Y-81882595D01*
X170672484Y-81875197D01*
X170672508Y-81875224D01*
X170675500Y-81872571D01*
X170678733Y-81869868D01*
X170684852Y-81865856D01*
X170738128Y-81809617D01*
X170740506Y-81807175D01*
X173012276Y-79535405D01*
X173074588Y-79501379D01*
X173101371Y-79498500D01*
X173743133Y-79498500D01*
X173811254Y-79518502D01*
X173846345Y-79552228D01*
X173868802Y-79584300D01*
X174030700Y-79746198D01*
X174035208Y-79749355D01*
X174035211Y-79749357D01*
X174099108Y-79794098D01*
X174218251Y-79877523D01*
X174223233Y-79879846D01*
X174223238Y-79879849D01*
X174257457Y-79895805D01*
X174310742Y-79942722D01*
X174330203Y-80010999D01*
X174309661Y-80078959D01*
X174257457Y-80124195D01*
X174223238Y-80140151D01*
X174223233Y-80140154D01*
X174218251Y-80142477D01*
X174127020Y-80206358D01*
X174035211Y-80270643D01*
X174035208Y-80270645D01*
X174030700Y-80273802D01*
X173868802Y-80435700D01*
X173737477Y-80623251D01*
X173735154Y-80628233D01*
X173735151Y-80628238D01*
X173645786Y-80819884D01*
X173640716Y-80830757D01*
X173639294Y-80836065D01*
X173639293Y-80836067D01*
X173583054Y-81045954D01*
X173581457Y-81051913D01*
X173561502Y-81280000D01*
X173581457Y-81508087D01*
X173582881Y-81513400D01*
X173582881Y-81513402D01*
X173624153Y-81667428D01*
X173640716Y-81729243D01*
X173643039Y-81734224D01*
X173643039Y-81734225D01*
X173735151Y-81931762D01*
X173735154Y-81931767D01*
X173737477Y-81936749D01*
X173806421Y-82035211D01*
X173830433Y-82069503D01*
X173868802Y-82124300D01*
X174030700Y-82286198D01*
X174035208Y-82289355D01*
X174035211Y-82289357D01*
X174068667Y-82312783D01*
X174218251Y-82417523D01*
X174223233Y-82419846D01*
X174223238Y-82419849D01*
X174257457Y-82435805D01*
X174310742Y-82482722D01*
X174330203Y-82550999D01*
X174309661Y-82618959D01*
X174257457Y-82664195D01*
X174223238Y-82680151D01*
X174223233Y-82680154D01*
X174218251Y-82682477D01*
X174153612Y-82727738D01*
X174035211Y-82810643D01*
X174035208Y-82810645D01*
X174030700Y-82813802D01*
X173868802Y-82975700D01*
X173846345Y-83007771D01*
X173790890Y-83052099D01*
X173743133Y-83061500D01*
X172787063Y-83061500D01*
X172768114Y-83060067D01*
X172767907Y-83060036D01*
X172746651Y-83056802D01*
X172739359Y-83057395D01*
X172739356Y-83057395D01*
X172693991Y-83061085D01*
X172683777Y-83061500D01*
X172675707Y-83061500D01*
X172672087Y-83061922D01*
X172672069Y-83061923D01*
X172647461Y-83064792D01*
X172643100Y-83065224D01*
X172617981Y-83067267D01*
X172577661Y-83070546D01*
X172577658Y-83070547D01*
X172570363Y-83071140D01*
X172563399Y-83073396D01*
X172557440Y-83074587D01*
X172551585Y-83075971D01*
X172544319Y-83076818D01*
X172475673Y-83101735D01*
X172471545Y-83103152D01*
X172409064Y-83123393D01*
X172409062Y-83123394D01*
X172402101Y-83125649D01*
X172395846Y-83129445D01*
X172390372Y-83131951D01*
X172384942Y-83134670D01*
X172378063Y-83137167D01*
X172317016Y-83177191D01*
X172313327Y-83179518D01*
X172293135Y-83191771D01*
X172255693Y-83214491D01*
X172255688Y-83214495D01*
X172250892Y-83217405D01*
X172242516Y-83224803D01*
X172242493Y-83224777D01*
X172239503Y-83227426D01*
X172236264Y-83230134D01*
X172230148Y-83234144D01*
X172225121Y-83239451D01*
X172225117Y-83239454D01*
X172176872Y-83290383D01*
X172174494Y-83292825D01*
X169691089Y-85776230D01*
X169676677Y-85788616D01*
X169665082Y-85797149D01*
X169665077Y-85797154D01*
X169659182Y-85801492D01*
X169654443Y-85807070D01*
X169654440Y-85807073D01*
X169624965Y-85841768D01*
X169618035Y-85849284D01*
X169612340Y-85854979D01*
X169610060Y-85857861D01*
X169594719Y-85877251D01*
X169591928Y-85880655D01*
X169549409Y-85930703D01*
X169544667Y-85936285D01*
X169541339Y-85942801D01*
X169537972Y-85947850D01*
X169534805Y-85952979D01*
X169530266Y-85958716D01*
X169499345Y-86024875D01*
X169497442Y-86028769D01*
X169464231Y-86093808D01*
X169462492Y-86100916D01*
X169460393Y-86106559D01*
X169458476Y-86112322D01*
X169455378Y-86118950D01*
X169453888Y-86126112D01*
X169453888Y-86126113D01*
X169440514Y-86190412D01*
X169439544Y-86194696D01*
X169422192Y-86265610D01*
X169421500Y-86276764D01*
X169421464Y-86276762D01*
X169421225Y-86280755D01*
X169420851Y-86284947D01*
X169419360Y-86292115D01*
X169419558Y-86299432D01*
X169421454Y-86369521D01*
X169421500Y-86372928D01*
X169421500Y-88544837D01*
X169401498Y-88612958D01*
X169366324Y-88649048D01*
X169231693Y-88740544D01*
X169055319Y-88907332D01*
X169052241Y-88911358D01*
X169052240Y-88911359D01*
X169010535Y-88965907D01*
X168953270Y-89007875D01*
X168882407Y-89012220D01*
X168815925Y-88972703D01*
X168694650Y-88835142D01*
X168694647Y-88835139D01*
X168691302Y-88831345D01*
X168584993Y-88744022D01*
X168507628Y-88680474D01*
X168507625Y-88680472D01*
X168503722Y-88677266D01*
X168372540Y-88600916D01*
X168298290Y-88557701D01*
X168298288Y-88557700D01*
X168293922Y-88555159D01*
X168263737Y-88543572D01*
X168072022Y-88469980D01*
X168072018Y-88469979D01*
X168067298Y-88468167D01*
X168062348Y-88467133D01*
X168062345Y-88467132D01*
X167834631Y-88419560D01*
X167834627Y-88419560D01*
X167829680Y-88418526D01*
X167587183Y-88407514D01*
X167582163Y-88408095D01*
X167582159Y-88408095D01*
X167351071Y-88434833D01*
X167351067Y-88434834D01*
X167346044Y-88435415D01*
X167341180Y-88436791D01*
X167341177Y-88436792D01*
X167230300Y-88468167D01*
X167112468Y-88501510D01*
X167107892Y-88503644D01*
X167107886Y-88503646D01*
X166897046Y-88601962D01*
X166897042Y-88601964D01*
X166892464Y-88604099D01*
X166888283Y-88606940D01*
X166888282Y-88606941D01*
X166826323Y-88649049D01*
X166691693Y-88740544D01*
X166515319Y-88907332D01*
X166470223Y-88966315D01*
X166412961Y-89008281D01*
X166342097Y-89012626D01*
X166275615Y-88973109D01*
X166154297Y-88835500D01*
X166147044Y-88828496D01*
X165967346Y-88680890D01*
X165959064Y-88675134D01*
X165758081Y-88558159D01*
X165748976Y-88553797D01*
X165531885Y-88470463D01*
X165522196Y-88467612D01*
X165371736Y-88436179D01*
X165357675Y-88437302D01*
X165354000Y-88447410D01*
X165354000Y-90298000D01*
X165333998Y-90366121D01*
X165280342Y-90412614D01*
X165228000Y-90424000D01*
X162832115Y-90424000D01*
X162816876Y-90428475D01*
X162815671Y-90429865D01*
X162814000Y-90437548D01*
X162814000Y-91890590D01*
X162818136Y-91904676D01*
X162831114Y-91906725D01*
X162848830Y-91904675D01*
X162858727Y-91902715D01*
X163082494Y-91839396D01*
X163091938Y-91835884D01*
X163302705Y-91737601D01*
X163311471Y-91732622D01*
X163503802Y-91601913D01*
X163511677Y-91595581D01*
X163680626Y-91435814D01*
X163687382Y-91428311D01*
X163729438Y-91373304D01*
X163786703Y-91331337D01*
X163857567Y-91326992D01*
X163924048Y-91366509D01*
X164045703Y-91504500D01*
X164052956Y-91511504D01*
X164232654Y-91659110D01*
X164240936Y-91664866D01*
X164425997Y-91772574D01*
X164474811Y-91824127D01*
X164488004Y-91893888D01*
X164461387Y-91959706D01*
X164419818Y-91993741D01*
X164417612Y-91994865D01*
X164413037Y-91996760D01*
X164408817Y-91999346D01*
X164214798Y-92118241D01*
X164214792Y-92118245D01*
X164210584Y-92120824D01*
X164030031Y-92275031D01*
X163875824Y-92455584D01*
X163832467Y-92526336D01*
X163779819Y-92573967D01*
X163725035Y-92586500D01*
X152406931Y-92586500D01*
X152405734Y-92586494D01*
X152318777Y-92585668D01*
X152311640Y-92587284D01*
X152311636Y-92587284D01*
X152278529Y-92594779D01*
X152265302Y-92597040D01*
X152260457Y-92597605D01*
X152231589Y-92600970D01*
X152231586Y-92600971D01*
X152224319Y-92601818D01*
X152217444Y-92604313D01*
X152217442Y-92604314D01*
X152193461Y-92613019D01*
X152178289Y-92617470D01*
X152153414Y-92623101D01*
X152153406Y-92623104D01*
X152146271Y-92624719D01*
X152125377Y-92634935D01*
X152109203Y-92642843D01*
X152096849Y-92648088D01*
X152064946Y-92659668D01*
X152064942Y-92659670D01*
X152058063Y-92662167D01*
X152030608Y-92680167D01*
X152016876Y-92687984D01*
X151992423Y-92699940D01*
X151992420Y-92699942D01*
X151987376Y-92702408D01*
X151978364Y-92709017D01*
X151976861Y-92710269D01*
X151976845Y-92710282D01*
X151953495Y-92729740D01*
X151941928Y-92738309D01*
X151910148Y-92759144D01*
X151885947Y-92784692D01*
X151885023Y-92785667D01*
X151874212Y-92795811D01*
X148161895Y-95889409D01*
X148125249Y-95919947D01*
X148119275Y-95924627D01*
X148069182Y-95961492D01*
X148027882Y-96010105D01*
X148023208Y-96015305D01*
X147984311Y-96056230D01*
X147984308Y-96056234D01*
X147979265Y-96061540D01*
X147974301Y-96070054D01*
X147974114Y-96070375D01*
X147961288Y-96088492D01*
X147954667Y-96096285D01*
X147951335Y-96102809D01*
X147951335Y-96102810D01*
X147925662Y-96153086D01*
X147922299Y-96159244D01*
X147890178Y-96214336D01*
X147888044Y-96221341D01*
X147887199Y-96224113D01*
X147878885Y-96244694D01*
X147874231Y-96253808D01*
X147872491Y-96260919D01*
X147859073Y-96315755D01*
X147857214Y-96322530D01*
X147838629Y-96383529D01*
X147838164Y-96390834D01*
X147837979Y-96393736D01*
X147834623Y-96415673D01*
X147833526Y-96420156D01*
X147833525Y-96420163D01*
X147832192Y-96425610D01*
X147831500Y-96436764D01*
X147831500Y-96491446D01*
X147831245Y-96499455D01*
X147827386Y-96560041D01*
X147828614Y-96567259D01*
X147829715Y-96573729D01*
X147831500Y-96594863D01*
X147831500Y-99963629D01*
X147811498Y-100031750D01*
X147794595Y-100052724D01*
X147042724Y-100804595D01*
X146980412Y-100838621D01*
X146953629Y-100841500D01*
X146610939Y-100841500D01*
X146542818Y-100821498D01*
X146505147Y-100783941D01*
X146504181Y-100782447D01*
X146495014Y-100768277D01*
X146491532Y-100764450D01*
X146347798Y-100606488D01*
X146316746Y-100542642D01*
X146325141Y-100472143D01*
X146370317Y-100417375D01*
X146396761Y-100403706D01*
X146503297Y-100363767D01*
X146511705Y-100360615D01*
X146628261Y-100273261D01*
X146715615Y-100156705D01*
X146766745Y-100020316D01*
X146773500Y-99958134D01*
X146773500Y-98161866D01*
X146766745Y-98099684D01*
X146715615Y-97963295D01*
X146628261Y-97846739D01*
X146511705Y-97759385D01*
X146375316Y-97708255D01*
X146313134Y-97701500D01*
X144516866Y-97701500D01*
X144454684Y-97708255D01*
X144318295Y-97759385D01*
X144201739Y-97846739D01*
X144114385Y-97963295D01*
X144063255Y-98099684D01*
X144056500Y-98161866D01*
X144056500Y-99958134D01*
X144063255Y-100020316D01*
X144114385Y-100156705D01*
X144201739Y-100273261D01*
X144318295Y-100360615D01*
X144326704Y-100363767D01*
X144326705Y-100363768D01*
X144435451Y-100404535D01*
X144492216Y-100447176D01*
X144516916Y-100513738D01*
X144501709Y-100583087D01*
X144482316Y-100609568D01*
X144355629Y-100742138D01*
X144352715Y-100746410D01*
X144352714Y-100746411D01*
X144290498Y-100837617D01*
X144229743Y-100926680D01*
X144227564Y-100931375D01*
X144140798Y-101118297D01*
X144135688Y-101129305D01*
X144075989Y-101344570D01*
X144052251Y-101566695D01*
X144052548Y-101571848D01*
X144052548Y-101571851D01*
X144057971Y-101665907D01*
X144065110Y-101789715D01*
X144066247Y-101794761D01*
X144066248Y-101794767D01*
X144077478Y-101844595D01*
X144114222Y-102007639D01*
X144163752Y-102129617D01*
X144191876Y-102198878D01*
X144198266Y-102214616D01*
X144237610Y-102278820D01*
X144301548Y-102383157D01*
X144314987Y-102405088D01*
X144461250Y-102573938D01*
X144633126Y-102716632D01*
X144703595Y-102757811D01*
X144706445Y-102759476D01*
X144755169Y-102811114D01*
X144768240Y-102880897D01*
X144741509Y-102946669D01*
X144701055Y-102980027D01*
X144688607Y-102986507D01*
X144684474Y-102989610D01*
X144684471Y-102989612D01*
X144514100Y-103117530D01*
X144509965Y-103120635D01*
X144355629Y-103282138D01*
X144229743Y-103466680D01*
X144218795Y-103490266D01*
X144144144Y-103651089D01*
X144135688Y-103669305D01*
X144075989Y-103884570D01*
X144052251Y-104106695D01*
X144052548Y-104111848D01*
X144052548Y-104111851D01*
X144057890Y-104204500D01*
X144065110Y-104329715D01*
X144066247Y-104334761D01*
X144066248Y-104334767D01*
X144089522Y-104438038D01*
X144114222Y-104547639D01*
X144198266Y-104754616D01*
X144200965Y-104759020D01*
X144278445Y-104885456D01*
X144314987Y-104945088D01*
X144461250Y-105113938D01*
X144633126Y-105256632D01*
X144826000Y-105369338D01*
X145034692Y-105449030D01*
X145039760Y-105450061D01*
X145039763Y-105450062D01*
X145140554Y-105470568D01*
X145253597Y-105493567D01*
X145258772Y-105493757D01*
X145258774Y-105493757D01*
X145471673Y-105501564D01*
X145471677Y-105501564D01*
X145476837Y-105501753D01*
X145481957Y-105501097D01*
X145481959Y-105501097D01*
X145693288Y-105474025D01*
X145693289Y-105474025D01*
X145698416Y-105473368D01*
X145707749Y-105470568D01*
X145907429Y-105410661D01*
X145907434Y-105410659D01*
X145912384Y-105409174D01*
X146112994Y-105310896D01*
X146294860Y-105181173D01*
X146453096Y-105023489D01*
X146505203Y-104950974D01*
X146561198Y-104907326D01*
X146607526Y-104898500D01*
X149120035Y-104898500D01*
X149188156Y-104918502D01*
X149227466Y-104958663D01*
X149270824Y-105029416D01*
X149425031Y-105209969D01*
X149605584Y-105364176D01*
X149609792Y-105366755D01*
X149609798Y-105366759D01*
X149779199Y-105470568D01*
X149808037Y-105488240D01*
X149812607Y-105490133D01*
X149812611Y-105490135D01*
X149860196Y-105509845D01*
X150027406Y-105579105D01*
X150107609Y-105598360D01*
X150253476Y-105633380D01*
X150253482Y-105633381D01*
X150258289Y-105634535D01*
X150495000Y-105653165D01*
X150731711Y-105634535D01*
X150736518Y-105633381D01*
X150736524Y-105633380D01*
X150882391Y-105598360D01*
X150962594Y-105579105D01*
X151129804Y-105509845D01*
X151177389Y-105490135D01*
X151177393Y-105490133D01*
X151181963Y-105488240D01*
X151210801Y-105470568D01*
X151380202Y-105366759D01*
X151380208Y-105366755D01*
X151384416Y-105364176D01*
X151564969Y-105209969D01*
X151719176Y-105029416D01*
X151721755Y-105025208D01*
X151721759Y-105025202D01*
X151840654Y-104831183D01*
X151843240Y-104826963D01*
X151851161Y-104807842D01*
X151932211Y-104612167D01*
X151932212Y-104612165D01*
X151934105Y-104607594D01*
X151978188Y-104423975D01*
X151988380Y-104381524D01*
X151988381Y-104381518D01*
X151989535Y-104376711D01*
X152008165Y-104140000D01*
X151989535Y-103903289D01*
X151986275Y-103889707D01*
X151947969Y-103730153D01*
X151934105Y-103672406D01*
X151905092Y-103602362D01*
X151845135Y-103457611D01*
X151845133Y-103457607D01*
X151843240Y-103453037D01*
X151825588Y-103424231D01*
X151721759Y-103254798D01*
X151721755Y-103254792D01*
X151719176Y-103250584D01*
X151564969Y-103070031D01*
X151384416Y-102915824D01*
X151313664Y-102872467D01*
X151266033Y-102819819D01*
X151253500Y-102765035D01*
X151253500Y-97521371D01*
X151273502Y-97453250D01*
X151290405Y-97432276D01*
X152677275Y-96045405D01*
X152739587Y-96011380D01*
X152766370Y-96008500D01*
X157884629Y-96008500D01*
X157952750Y-96028502D01*
X157999243Y-96082158D01*
X158009347Y-96152432D01*
X157979853Y-96217012D01*
X157973724Y-96223595D01*
X156991089Y-97206230D01*
X156976677Y-97218616D01*
X156965082Y-97227149D01*
X156965077Y-97227154D01*
X156959182Y-97231492D01*
X156954443Y-97237070D01*
X156954440Y-97237073D01*
X156924965Y-97271768D01*
X156918035Y-97279284D01*
X156912340Y-97284979D01*
X156910060Y-97287861D01*
X156894719Y-97307251D01*
X156891928Y-97310655D01*
X156877857Y-97327218D01*
X156844667Y-97366285D01*
X156841339Y-97372801D01*
X156837972Y-97377850D01*
X156834805Y-97382979D01*
X156830266Y-97388716D01*
X156799345Y-97454875D01*
X156797442Y-97458769D01*
X156764231Y-97523808D01*
X156762492Y-97530916D01*
X156760393Y-97536559D01*
X156758476Y-97542322D01*
X156755378Y-97548950D01*
X156753888Y-97556112D01*
X156753888Y-97556113D01*
X156740514Y-97620412D01*
X156739544Y-97624696D01*
X156722192Y-97695610D01*
X156721844Y-97701212D01*
X156721844Y-97701215D01*
X156721500Y-97706762D01*
X156721500Y-97706764D01*
X156721464Y-97706762D01*
X156721225Y-97710755D01*
X156720851Y-97714947D01*
X156719360Y-97722115D01*
X156719558Y-97729432D01*
X156721454Y-97799521D01*
X156721500Y-97802928D01*
X156721500Y-101244837D01*
X156701498Y-101312958D01*
X156666324Y-101349048D01*
X156531693Y-101440544D01*
X156355319Y-101607332D01*
X156352241Y-101611358D01*
X156352240Y-101611359D01*
X156210953Y-101796154D01*
X156210950Y-101796158D01*
X156207880Y-101800174D01*
X156205490Y-101804632D01*
X156205489Y-101804633D01*
X156161109Y-101887402D01*
X156093169Y-102014109D01*
X156014138Y-102243631D01*
X156001374Y-102317526D01*
X155994371Y-102358075D01*
X155972821Y-102482836D01*
X155971500Y-102511925D01*
X155971500Y-103181001D01*
X155971702Y-103183509D01*
X155971702Y-103183514D01*
X155983001Y-103323941D01*
X155986060Y-103361965D01*
X155987266Y-103366873D01*
X155987266Y-103366876D01*
X156007393Y-103448817D01*
X156043963Y-103597706D01*
X156138812Y-103821156D01*
X156268167Y-104026567D01*
X156271512Y-104030361D01*
X156425350Y-104204858D01*
X156425353Y-104204861D01*
X156428698Y-104208655D01*
X156432606Y-104211865D01*
X156432607Y-104211866D01*
X156612372Y-104359526D01*
X156612375Y-104359528D01*
X156616278Y-104362734D01*
X156721178Y-104423788D01*
X156820924Y-104481841D01*
X156826078Y-104484841D01*
X156830801Y-104486654D01*
X157047978Y-104570020D01*
X157047982Y-104570021D01*
X157052702Y-104571833D01*
X157057652Y-104572867D01*
X157057655Y-104572868D01*
X157285369Y-104620440D01*
X157285373Y-104620440D01*
X157290320Y-104621474D01*
X157532817Y-104632486D01*
X157537837Y-104631905D01*
X157537841Y-104631905D01*
X157768929Y-104605167D01*
X157768933Y-104605166D01*
X157773956Y-104604585D01*
X157778820Y-104603209D01*
X157778823Y-104603208D01*
X157975200Y-104547639D01*
X158007532Y-104538490D01*
X158012108Y-104536356D01*
X158012114Y-104536354D01*
X158222954Y-104438038D01*
X158222958Y-104438036D01*
X158227536Y-104435901D01*
X158245085Y-104423975D01*
X158339917Y-104359526D01*
X158428307Y-104299456D01*
X158604681Y-104132668D01*
X158649465Y-104074093D01*
X158706730Y-104032125D01*
X158777593Y-104027780D01*
X158844075Y-104067297D01*
X158965350Y-104204858D01*
X158965353Y-104204861D01*
X158968698Y-104208655D01*
X158972606Y-104211865D01*
X158972607Y-104211866D01*
X159152372Y-104359526D01*
X159152375Y-104359528D01*
X159156278Y-104362734D01*
X159261178Y-104423788D01*
X159360924Y-104481841D01*
X159366078Y-104484841D01*
X159370801Y-104486654D01*
X159587978Y-104570020D01*
X159587982Y-104570021D01*
X159592702Y-104571833D01*
X159597652Y-104572867D01*
X159597655Y-104572868D01*
X159825369Y-104620440D01*
X159825373Y-104620440D01*
X159830320Y-104621474D01*
X160072817Y-104632486D01*
X160077837Y-104631905D01*
X160077841Y-104631905D01*
X160308929Y-104605167D01*
X160308933Y-104605166D01*
X160313956Y-104604585D01*
X160318820Y-104603209D01*
X160318823Y-104603208D01*
X160515200Y-104547639D01*
X160547532Y-104538490D01*
X160552108Y-104536356D01*
X160552114Y-104536354D01*
X160762954Y-104438038D01*
X160762958Y-104438036D01*
X160767536Y-104435901D01*
X160785085Y-104423975D01*
X160879917Y-104359526D01*
X160968307Y-104299456D01*
X161144681Y-104132668D01*
X161189465Y-104074093D01*
X161246730Y-104032125D01*
X161317593Y-104027780D01*
X161384075Y-104067297D01*
X161505350Y-104204858D01*
X161505353Y-104204861D01*
X161508698Y-104208655D01*
X161696278Y-104362734D01*
X161700643Y-104365274D01*
X161700648Y-104365278D01*
X161738881Y-104387530D01*
X161787695Y-104439084D01*
X161801500Y-104496428D01*
X161801500Y-105043629D01*
X161781498Y-105111750D01*
X161764595Y-105132724D01*
X154604574Y-112292745D01*
X154542014Y-112326292D01*
X154542078Y-112326525D01*
X154541061Y-112326803D01*
X154541060Y-112326803D01*
X154537943Y-112327656D01*
X154537939Y-112327657D01*
X154431853Y-112356679D01*
X154277928Y-112398788D01*
X154273980Y-112400472D01*
X154029982Y-112504546D01*
X154029978Y-112504548D01*
X154026030Y-112506232D01*
X154006125Y-112518145D01*
X153794725Y-112644664D01*
X153794721Y-112644667D01*
X153791043Y-112646868D01*
X153577318Y-112818094D01*
X153465964Y-112935436D01*
X153402259Y-113002568D01*
X153388808Y-113016742D01*
X153229002Y-113239136D01*
X153100857Y-113481161D01*
X153099385Y-113485184D01*
X153099383Y-113485188D01*
X153017143Y-113709918D01*
X153006743Y-113738337D01*
X152948404Y-114005907D01*
X152926917Y-114278918D01*
X152942682Y-114552320D01*
X152943507Y-114556525D01*
X152943508Y-114556533D01*
X152954127Y-114610657D01*
X152995405Y-114821053D01*
X152996792Y-114825103D01*
X152996793Y-114825108D01*
X153082723Y-115076088D01*
X153084112Y-115080144D01*
X153086039Y-115083975D01*
X153184718Y-115280177D01*
X153207160Y-115324799D01*
X153209586Y-115328328D01*
X153209589Y-115328334D01*
X153358259Y-115544648D01*
X153362274Y-115550490D01*
X153546582Y-115753043D01*
X153756675Y-115928707D01*
X153760316Y-115930991D01*
X153985024Y-116071951D01*
X153985028Y-116071953D01*
X153988664Y-116074234D01*
X154056544Y-116104883D01*
X154234345Y-116185164D01*
X154234349Y-116185166D01*
X154238257Y-116186930D01*
X154242377Y-116188150D01*
X154242376Y-116188150D01*
X154496723Y-116263491D01*
X154496727Y-116263492D01*
X154500836Y-116264709D01*
X154505070Y-116265357D01*
X154505075Y-116265358D01*
X154767298Y-116305483D01*
X154767300Y-116305483D01*
X154771540Y-116306132D01*
X154910912Y-116308322D01*
X155041071Y-116310367D01*
X155041077Y-116310367D01*
X155045362Y-116310434D01*
X155317235Y-116277534D01*
X155582127Y-116208041D01*
X155586087Y-116206401D01*
X155586092Y-116206399D01*
X155727829Y-116147689D01*
X155835136Y-116103241D01*
X156071582Y-115965073D01*
X156287089Y-115796094D01*
X156328809Y-115753043D01*
X156474686Y-115602509D01*
X156477669Y-115599431D01*
X156480202Y-115595983D01*
X156480206Y-115595978D01*
X156637257Y-115382178D01*
X156639795Y-115378723D01*
X156667154Y-115328334D01*
X156768418Y-115141830D01*
X156768419Y-115141828D01*
X156770468Y-115138054D01*
X156867269Y-114881877D01*
X156893658Y-114766656D01*
X156927449Y-114619117D01*
X156927450Y-114619113D01*
X156928407Y-114614933D01*
X156937512Y-114512921D01*
X156952531Y-114344627D01*
X156952531Y-114344625D01*
X156952751Y-114342161D01*
X156953193Y-114300000D01*
X156953024Y-114297519D01*
X156934859Y-114031055D01*
X156934858Y-114031049D01*
X156934567Y-114026778D01*
X156879032Y-113758612D01*
X156787617Y-113500465D01*
X156662013Y-113257112D01*
X156659043Y-113252885D01*
X156507008Y-113036562D01*
X156504545Y-113033057D01*
X156348840Y-112865499D01*
X156317123Y-112801982D01*
X156324779Y-112731400D01*
X156352047Y-112690634D01*
X163048911Y-105993770D01*
X163063323Y-105981384D01*
X163074918Y-105972851D01*
X163074923Y-105972846D01*
X163080818Y-105968508D01*
X163085557Y-105962930D01*
X163085560Y-105962927D01*
X163115035Y-105928232D01*
X163121965Y-105920716D01*
X163127660Y-105915021D01*
X163145281Y-105892749D01*
X163148072Y-105889345D01*
X163190591Y-105839297D01*
X163190592Y-105839295D01*
X163195333Y-105833715D01*
X163198661Y-105827199D01*
X163202028Y-105822150D01*
X163205195Y-105817021D01*
X163209734Y-105811284D01*
X163240655Y-105745125D01*
X163242561Y-105741225D01*
X163242569Y-105741209D01*
X163275769Y-105676192D01*
X163277508Y-105669084D01*
X163279607Y-105663441D01*
X163281524Y-105657678D01*
X163284622Y-105651050D01*
X163299487Y-105579583D01*
X163300457Y-105575299D01*
X163316473Y-105509845D01*
X163316473Y-105509844D01*
X163317808Y-105504390D01*
X163318500Y-105493236D01*
X163318536Y-105493238D01*
X163318775Y-105489245D01*
X163319149Y-105485053D01*
X163320640Y-105477885D01*
X163318546Y-105400479D01*
X163318500Y-105397072D01*
X163318500Y-104495163D01*
X163338502Y-104427042D01*
X163373676Y-104390952D01*
X163508307Y-104299456D01*
X163684681Y-104132668D01*
X163729465Y-104074093D01*
X163786730Y-104032125D01*
X163857593Y-104027780D01*
X163924075Y-104067297D01*
X164045350Y-104204858D01*
X164045353Y-104204861D01*
X164048698Y-104208655D01*
X164236278Y-104362734D01*
X164240643Y-104365274D01*
X164240648Y-104365278D01*
X164278881Y-104387530D01*
X164327695Y-104439084D01*
X164341500Y-104496428D01*
X164341500Y-105043629D01*
X164321498Y-105111750D01*
X164304595Y-105132724D01*
X159531089Y-109906230D01*
X159516677Y-109918616D01*
X159505082Y-109927149D01*
X159505077Y-109927154D01*
X159499182Y-109931492D01*
X159494443Y-109937070D01*
X159494440Y-109937073D01*
X159464965Y-109971768D01*
X159458035Y-109979284D01*
X159452340Y-109984979D01*
X159450060Y-109987861D01*
X159434719Y-110007251D01*
X159431928Y-110010655D01*
X159389409Y-110060703D01*
X159384667Y-110066285D01*
X159381339Y-110072801D01*
X159377972Y-110077850D01*
X159374805Y-110082979D01*
X159370266Y-110088716D01*
X159339345Y-110154875D01*
X159337442Y-110158769D01*
X159304231Y-110223808D01*
X159302492Y-110230916D01*
X159300393Y-110236559D01*
X159298476Y-110242322D01*
X159295378Y-110248950D01*
X159280555Y-110320217D01*
X159280514Y-110320412D01*
X159279544Y-110324696D01*
X159262192Y-110395610D01*
X159261500Y-110406764D01*
X159261464Y-110406762D01*
X159261225Y-110410755D01*
X159260851Y-110414947D01*
X159259360Y-110422115D01*
X159259558Y-110429432D01*
X159261454Y-110499521D01*
X159261500Y-110502928D01*
X159261500Y-112165500D01*
X159241498Y-112233621D01*
X159187842Y-112280114D01*
X159135500Y-112291500D01*
X158471866Y-112291500D01*
X158409684Y-112298255D01*
X158273295Y-112349385D01*
X158156739Y-112436739D01*
X158069385Y-112553295D01*
X158018255Y-112689684D01*
X158011500Y-112751866D01*
X158011500Y-115848134D01*
X158018255Y-115910316D01*
X158069385Y-116046705D01*
X158156739Y-116163261D01*
X158273295Y-116250615D01*
X158409684Y-116301745D01*
X158471866Y-116308500D01*
X161568134Y-116308500D01*
X161630316Y-116301745D01*
X161766705Y-116250615D01*
X161883261Y-116163261D01*
X161970615Y-116046705D01*
X162021745Y-115910316D01*
X162028500Y-115848134D01*
X162028500Y-112751866D01*
X162021745Y-112689684D01*
X161970615Y-112553295D01*
X161883261Y-112436739D01*
X161766705Y-112349385D01*
X161630316Y-112298255D01*
X161568134Y-112291500D01*
X160904500Y-112291500D01*
X160836379Y-112271498D01*
X160789886Y-112217842D01*
X160778500Y-112165500D01*
X160778500Y-110856371D01*
X160798502Y-110788250D01*
X160815405Y-110767276D01*
X165588911Y-105993770D01*
X165603323Y-105981384D01*
X165614918Y-105972851D01*
X165614923Y-105972846D01*
X165620818Y-105968508D01*
X165625557Y-105962930D01*
X165625560Y-105962927D01*
X165655035Y-105928232D01*
X165661965Y-105920716D01*
X165667660Y-105915021D01*
X165685281Y-105892749D01*
X165688072Y-105889345D01*
X165730591Y-105839297D01*
X165730592Y-105839295D01*
X165735333Y-105833715D01*
X165738661Y-105827199D01*
X165742028Y-105822150D01*
X165745195Y-105817021D01*
X165749734Y-105811284D01*
X165780655Y-105745125D01*
X165782561Y-105741225D01*
X165782569Y-105741209D01*
X165815769Y-105676192D01*
X165817508Y-105669084D01*
X165819607Y-105663441D01*
X165821524Y-105657678D01*
X165824622Y-105651050D01*
X165839487Y-105579583D01*
X165840457Y-105575299D01*
X165856473Y-105509845D01*
X165856473Y-105509844D01*
X165857808Y-105504390D01*
X165858500Y-105493236D01*
X165858536Y-105493238D01*
X165858775Y-105489245D01*
X165859149Y-105485053D01*
X165860640Y-105477885D01*
X165858546Y-105400479D01*
X165858500Y-105397072D01*
X165858500Y-104495163D01*
X165878502Y-104427042D01*
X165913676Y-104390952D01*
X166048307Y-104299456D01*
X166224681Y-104132668D01*
X166269465Y-104074093D01*
X166326730Y-104032125D01*
X166397593Y-104027780D01*
X166464075Y-104067297D01*
X166585350Y-104204858D01*
X166585353Y-104204861D01*
X166588698Y-104208655D01*
X166776278Y-104362734D01*
X166780643Y-104365274D01*
X166780648Y-104365278D01*
X166818881Y-104387530D01*
X166867695Y-104439084D01*
X166881500Y-104496428D01*
X166881500Y-105043629D01*
X166861498Y-105111750D01*
X166844595Y-105132724D01*
X164611089Y-107366230D01*
X164596677Y-107378616D01*
X164585082Y-107387149D01*
X164585077Y-107387154D01*
X164579182Y-107391492D01*
X164574443Y-107397070D01*
X164574440Y-107397073D01*
X164544965Y-107431768D01*
X164538035Y-107439284D01*
X164532340Y-107444979D01*
X164530060Y-107447861D01*
X164514719Y-107467251D01*
X164511928Y-107470655D01*
X164469409Y-107520703D01*
X164464667Y-107526285D01*
X164461339Y-107532801D01*
X164457972Y-107537850D01*
X164454805Y-107542979D01*
X164450266Y-107548716D01*
X164419345Y-107614875D01*
X164417442Y-107618769D01*
X164384231Y-107683808D01*
X164382492Y-107690916D01*
X164380393Y-107696559D01*
X164378476Y-107702322D01*
X164375378Y-107708950D01*
X164373888Y-107716112D01*
X164373888Y-107716113D01*
X164360514Y-107780412D01*
X164359544Y-107784696D01*
X164342192Y-107855610D01*
X164341500Y-107866764D01*
X164341464Y-107866762D01*
X164341225Y-107870755D01*
X164340851Y-107874947D01*
X164339360Y-107882115D01*
X164339558Y-107889432D01*
X164341454Y-107959521D01*
X164341500Y-107962928D01*
X164341500Y-112356679D01*
X164321498Y-112424800D01*
X164264935Y-112472576D01*
X164189982Y-112504546D01*
X164189978Y-112504548D01*
X164186030Y-112506232D01*
X164166125Y-112518145D01*
X163954725Y-112644664D01*
X163954721Y-112644667D01*
X163951043Y-112646868D01*
X163737318Y-112818094D01*
X163625964Y-112935436D01*
X163562259Y-113002568D01*
X163548808Y-113016742D01*
X163389002Y-113239136D01*
X163260857Y-113481161D01*
X163259385Y-113485184D01*
X163259383Y-113485188D01*
X163177143Y-113709918D01*
X163166743Y-113738337D01*
X163108404Y-114005907D01*
X163086917Y-114278918D01*
X163102682Y-114552320D01*
X163103507Y-114556525D01*
X163103508Y-114556533D01*
X163114127Y-114610657D01*
X163155405Y-114821053D01*
X163156792Y-114825103D01*
X163156793Y-114825108D01*
X163242723Y-115076088D01*
X163244112Y-115080144D01*
X163246039Y-115083975D01*
X163344718Y-115280177D01*
X163367160Y-115324799D01*
X163369586Y-115328328D01*
X163369589Y-115328334D01*
X163518259Y-115544648D01*
X163522274Y-115550490D01*
X163706582Y-115753043D01*
X163916675Y-115928707D01*
X163920316Y-115930991D01*
X164145024Y-116071951D01*
X164145028Y-116071953D01*
X164148664Y-116074234D01*
X164216544Y-116104883D01*
X164394345Y-116185164D01*
X164394349Y-116185166D01*
X164398257Y-116186930D01*
X164402377Y-116188150D01*
X164402376Y-116188150D01*
X164656723Y-116263491D01*
X164656727Y-116263492D01*
X164660836Y-116264709D01*
X164665070Y-116265357D01*
X164665075Y-116265358D01*
X164927298Y-116305483D01*
X164927300Y-116305483D01*
X164931540Y-116306132D01*
X165070912Y-116308322D01*
X165201071Y-116310367D01*
X165201077Y-116310367D01*
X165205362Y-116310434D01*
X165477235Y-116277534D01*
X165742127Y-116208041D01*
X165746087Y-116206401D01*
X165746092Y-116206399D01*
X165887829Y-116147689D01*
X165995136Y-116103241D01*
X166231582Y-115965073D01*
X166447089Y-115796094D01*
X166488809Y-115753043D01*
X166634686Y-115602509D01*
X166637669Y-115599431D01*
X166640202Y-115595983D01*
X166640206Y-115595978D01*
X166797257Y-115382178D01*
X166799795Y-115378723D01*
X166827154Y-115328334D01*
X166928418Y-115141830D01*
X166928419Y-115141828D01*
X166930468Y-115138054D01*
X167027269Y-114881877D01*
X167053658Y-114766656D01*
X167087449Y-114619117D01*
X167087450Y-114619113D01*
X167088407Y-114614933D01*
X167097512Y-114512921D01*
X167112531Y-114344627D01*
X167112531Y-114344625D01*
X167112751Y-114342161D01*
X167113193Y-114300000D01*
X167113024Y-114297519D01*
X167094859Y-114031055D01*
X167094858Y-114031049D01*
X167094567Y-114026778D01*
X167039032Y-113758612D01*
X166947617Y-113500465D01*
X166822013Y-113257112D01*
X166819043Y-113252885D01*
X166667008Y-113036562D01*
X166664545Y-113033057D01*
X166478125Y-112832445D01*
X166474810Y-112829731D01*
X166474806Y-112829728D01*
X166304866Y-112690634D01*
X166266205Y-112658990D01*
X166032704Y-112515901D01*
X166028768Y-112514173D01*
X165933854Y-112472508D01*
X165879518Y-112426812D01*
X165858500Y-112357135D01*
X165858500Y-108316371D01*
X165878502Y-108248250D01*
X165895405Y-108227276D01*
X168128911Y-105993770D01*
X168143323Y-105981384D01*
X168154918Y-105972851D01*
X168154923Y-105972846D01*
X168160818Y-105968508D01*
X168165557Y-105962930D01*
X168165560Y-105962927D01*
X168195035Y-105928232D01*
X168201965Y-105920716D01*
X168207660Y-105915021D01*
X168225281Y-105892749D01*
X168228072Y-105889345D01*
X168270591Y-105839297D01*
X168270592Y-105839295D01*
X168275333Y-105833715D01*
X168278661Y-105827199D01*
X168282020Y-105822162D01*
X168285194Y-105817023D01*
X168289734Y-105811284D01*
X168320636Y-105745163D01*
X168322569Y-105741209D01*
X168326239Y-105734021D01*
X168355769Y-105676192D01*
X168357510Y-105669076D01*
X168359604Y-105663446D01*
X168361523Y-105657679D01*
X168364621Y-105651050D01*
X168367976Y-105634923D01*
X168379482Y-105579604D01*
X168380453Y-105575315D01*
X168396473Y-105509844D01*
X168397808Y-105504390D01*
X168398500Y-105493236D01*
X168398536Y-105493238D01*
X168398775Y-105489248D01*
X168399150Y-105485050D01*
X168400640Y-105477885D01*
X168398546Y-105400479D01*
X168398500Y-105397072D01*
X168398500Y-104495163D01*
X168418502Y-104427042D01*
X168453676Y-104390952D01*
X168588307Y-104299456D01*
X168764681Y-104132668D01*
X168809465Y-104074093D01*
X168866730Y-104032125D01*
X168937593Y-104027780D01*
X169004075Y-104067297D01*
X169125350Y-104204858D01*
X169125353Y-104204861D01*
X169128698Y-104208655D01*
X169316278Y-104362734D01*
X169320643Y-104365274D01*
X169320648Y-104365278D01*
X169358881Y-104387530D01*
X169407695Y-104439084D01*
X169421500Y-104496428D01*
X169421500Y-112165500D01*
X169401498Y-112233621D01*
X169347842Y-112280114D01*
X169295500Y-112291500D01*
X168631866Y-112291500D01*
X168569684Y-112298255D01*
X168433295Y-112349385D01*
X168316739Y-112436739D01*
X168229385Y-112553295D01*
X168178255Y-112689684D01*
X168171500Y-112751866D01*
X168171500Y-115848134D01*
X168178255Y-115910316D01*
X168229385Y-116046705D01*
X168316739Y-116163261D01*
X168433295Y-116250615D01*
X168569684Y-116301745D01*
X168631866Y-116308500D01*
X171728134Y-116308500D01*
X171790316Y-116301745D01*
X171926705Y-116250615D01*
X172043261Y-116163261D01*
X172130615Y-116046705D01*
X172181745Y-115910316D01*
X172188500Y-115848134D01*
X172188500Y-112751866D01*
X172181745Y-112689684D01*
X172130615Y-112553295D01*
X172043261Y-112436739D01*
X171926705Y-112349385D01*
X171790316Y-112298255D01*
X171728134Y-112291500D01*
X171064500Y-112291500D01*
X170996379Y-112271498D01*
X170949886Y-112217842D01*
X170938500Y-112165500D01*
X170938500Y-104495163D01*
X170958502Y-104427042D01*
X170993676Y-104390952D01*
X171128307Y-104299456D01*
X171304681Y-104132668D01*
X171349465Y-104074093D01*
X171406730Y-104032125D01*
X171477593Y-104027780D01*
X171544075Y-104067297D01*
X171665350Y-104204858D01*
X171665353Y-104204861D01*
X171668698Y-104208655D01*
X171672606Y-104211865D01*
X171672607Y-104211866D01*
X171852372Y-104359526D01*
X171852375Y-104359528D01*
X171856278Y-104362734D01*
X171961178Y-104423788D01*
X172060924Y-104481841D01*
X172066078Y-104484841D01*
X172070801Y-104486654D01*
X172287978Y-104570020D01*
X172287982Y-104570021D01*
X172292702Y-104571833D01*
X172297652Y-104572867D01*
X172297655Y-104572868D01*
X172525369Y-104620440D01*
X172525373Y-104620440D01*
X172530320Y-104621474D01*
X172772817Y-104632486D01*
X172777837Y-104631905D01*
X172777841Y-104631905D01*
X173008929Y-104605167D01*
X173008933Y-104605166D01*
X173013956Y-104604585D01*
X173018820Y-104603209D01*
X173018823Y-104603208D01*
X173215200Y-104547639D01*
X173247532Y-104538490D01*
X173252108Y-104536356D01*
X173252114Y-104536354D01*
X173462954Y-104438038D01*
X173462958Y-104438036D01*
X173467536Y-104435901D01*
X173485085Y-104423975D01*
X173579917Y-104359526D01*
X173668307Y-104299456D01*
X173844681Y-104132668D01*
X173889777Y-104073685D01*
X173947039Y-104031719D01*
X174017903Y-104027374D01*
X174084385Y-104066891D01*
X174205703Y-104204500D01*
X174212956Y-104211504D01*
X174392654Y-104359110D01*
X174400936Y-104364866D01*
X174601919Y-104481841D01*
X174611024Y-104486203D01*
X174828115Y-104569537D01*
X174837804Y-104572388D01*
X174988264Y-104603821D01*
X175002325Y-104602698D01*
X175006000Y-104592590D01*
X175006000Y-104590590D01*
X175514000Y-104590590D01*
X175518136Y-104604676D01*
X175531114Y-104606725D01*
X175548830Y-104604675D01*
X175558727Y-104602715D01*
X175782494Y-104539396D01*
X175791938Y-104535884D01*
X176002705Y-104437601D01*
X176011471Y-104432622D01*
X176203802Y-104301913D01*
X176211677Y-104295581D01*
X176380626Y-104135814D01*
X176387387Y-104128305D01*
X176528625Y-103943574D01*
X176534089Y-103935095D01*
X176643978Y-103730153D01*
X176648020Y-103720901D01*
X176723727Y-103501029D01*
X176726236Y-103491257D01*
X176766004Y-103261029D01*
X176766859Y-103253157D01*
X176767936Y-103229449D01*
X176768000Y-103226616D01*
X176768000Y-103142115D01*
X176763525Y-103126876D01*
X176762135Y-103125671D01*
X176754452Y-103124000D01*
X175532115Y-103124000D01*
X175516876Y-103128475D01*
X175515671Y-103129865D01*
X175514000Y-103137548D01*
X175514000Y-104590590D01*
X175006000Y-104590590D01*
X175006000Y-102597885D01*
X175514000Y-102597885D01*
X175518475Y-102613124D01*
X175519865Y-102614329D01*
X175527548Y-102616000D01*
X176749885Y-102616000D01*
X176765124Y-102611525D01*
X176766329Y-102610135D01*
X176768000Y-102602452D01*
X176768000Y-102561544D01*
X176767798Y-102556512D01*
X176753850Y-102383157D01*
X176752238Y-102373204D01*
X176696767Y-102147367D01*
X176693584Y-102137797D01*
X176602720Y-101923735D01*
X176598045Y-101914793D01*
X176474126Y-101718013D01*
X176468086Y-101709940D01*
X176314297Y-101535500D01*
X176307044Y-101528496D01*
X176127346Y-101380890D01*
X176119064Y-101375134D01*
X175918081Y-101258159D01*
X175908976Y-101253797D01*
X175691885Y-101170463D01*
X175682196Y-101167612D01*
X175531736Y-101136179D01*
X175517675Y-101137302D01*
X175514000Y-101147410D01*
X175514000Y-102597885D01*
X175006000Y-102597885D01*
X175006000Y-101149410D01*
X175001864Y-101135324D01*
X174988886Y-101133275D01*
X174971170Y-101135325D01*
X174961273Y-101137285D01*
X174737506Y-101200604D01*
X174728062Y-101204116D01*
X174517295Y-101302399D01*
X174508529Y-101307378D01*
X174316198Y-101438087D01*
X174308323Y-101444419D01*
X174139374Y-101604186D01*
X174132613Y-101611695D01*
X174090872Y-101666290D01*
X174033607Y-101708258D01*
X173962744Y-101712603D01*
X173896263Y-101673087D01*
X173797942Y-101561562D01*
X173774650Y-101535142D01*
X173774647Y-101535139D01*
X173771302Y-101531345D01*
X173583722Y-101377266D01*
X173579357Y-101374726D01*
X173579352Y-101374722D01*
X173541119Y-101352470D01*
X173492305Y-101300916D01*
X173478500Y-101243572D01*
X173478500Y-101032069D01*
X173479933Y-101013118D01*
X173482099Y-100998883D01*
X173482099Y-100998881D01*
X173483199Y-100991651D01*
X173478915Y-100938982D01*
X173478500Y-100928767D01*
X173478500Y-100920707D01*
X173476247Y-100901384D01*
X173475211Y-100892493D01*
X173474778Y-100888118D01*
X173469454Y-100822661D01*
X173469453Y-100822658D01*
X173468860Y-100815363D01*
X173466604Y-100808399D01*
X173465413Y-100802440D01*
X173464029Y-100796585D01*
X173463182Y-100789319D01*
X173438265Y-100720673D01*
X173436848Y-100716545D01*
X173416607Y-100654064D01*
X173416606Y-100654062D01*
X173414351Y-100647101D01*
X173410555Y-100640846D01*
X173408049Y-100635372D01*
X173405330Y-100629942D01*
X173402833Y-100623063D01*
X173362809Y-100562016D01*
X173360472Y-100558312D01*
X173325509Y-100500693D01*
X173325505Y-100500688D01*
X173322595Y-100495892D01*
X173315197Y-100487516D01*
X173315223Y-100487493D01*
X173312574Y-100484503D01*
X173309866Y-100481264D01*
X173305856Y-100475148D01*
X173300549Y-100470121D01*
X173300546Y-100470117D01*
X173249617Y-100421872D01*
X173247175Y-100419494D01*
X172033770Y-99206089D01*
X172021384Y-99191677D01*
X172012851Y-99180082D01*
X172012846Y-99180077D01*
X172008508Y-99174182D01*
X172002930Y-99169443D01*
X172002927Y-99169440D01*
X171968232Y-99139965D01*
X171960716Y-99133035D01*
X171955021Y-99127340D01*
X171948880Y-99122482D01*
X171932749Y-99109719D01*
X171929345Y-99106928D01*
X171879297Y-99064409D01*
X171879295Y-99064408D01*
X171873715Y-99059667D01*
X171867199Y-99056339D01*
X171862150Y-99052972D01*
X171857021Y-99049805D01*
X171851284Y-99045266D01*
X171785125Y-99014345D01*
X171781225Y-99012439D01*
X171716192Y-98979231D01*
X171709084Y-98977492D01*
X171703441Y-98975393D01*
X171697678Y-98973476D01*
X171691050Y-98970378D01*
X171619583Y-98955513D01*
X171615299Y-98954543D01*
X171544390Y-98937192D01*
X171538788Y-98936844D01*
X171538785Y-98936844D01*
X171533236Y-98936500D01*
X171533238Y-98936464D01*
X171529245Y-98936225D01*
X171525053Y-98935851D01*
X171517885Y-98934360D01*
X171451675Y-98936151D01*
X171440479Y-98936454D01*
X171437072Y-98936500D01*
X166474965Y-98936500D01*
X166406844Y-98916498D01*
X166367533Y-98876336D01*
X166357503Y-98859969D01*
X166324176Y-98805584D01*
X166320960Y-98801818D01*
X166320958Y-98801815D01*
X166282110Y-98756330D01*
X166253079Y-98691541D01*
X166263684Y-98621341D01*
X166310559Y-98568018D01*
X166377921Y-98548500D01*
X178734857Y-98548500D01*
X178802978Y-98568502D01*
X178818354Y-98580137D01*
X179077906Y-98809801D01*
X179697729Y-99358250D01*
X179704271Y-99364039D01*
X179742032Y-99424161D01*
X179746774Y-99458402D01*
X179746774Y-104770743D01*
X179726772Y-104838864D01*
X179673116Y-104885357D01*
X179644928Y-104894406D01*
X179578768Y-104907326D01*
X179469839Y-104928598D01*
X179469836Y-104928599D01*
X179464607Y-104929620D01*
X179245048Y-105012804D01*
X179210396Y-105033175D01*
X179103835Y-105095819D01*
X179042644Y-105131791D01*
X178863181Y-105283181D01*
X178711791Y-105462644D01*
X178709085Y-105467248D01*
X178709083Y-105467250D01*
X178690545Y-105498785D01*
X178592804Y-105665048D01*
X178509620Y-105884607D01*
X178508598Y-105889839D01*
X178508598Y-105889840D01*
X178494325Y-105962927D01*
X178464619Y-106115043D01*
X178464383Y-106119401D01*
X178463057Y-106143892D01*
X178461500Y-106172636D01*
X178461500Y-108107364D01*
X178464619Y-108164957D01*
X178509620Y-108395393D01*
X178592804Y-108614952D01*
X178711791Y-108817356D01*
X178863181Y-108996819D01*
X179042644Y-109148209D01*
X179245048Y-109267196D01*
X179464607Y-109350380D01*
X179695043Y-109395381D01*
X179699401Y-109395617D01*
X179750948Y-109398409D01*
X179750963Y-109398409D01*
X179752636Y-109398500D01*
X181687364Y-109398500D01*
X181689037Y-109398409D01*
X181689052Y-109398409D01*
X181740599Y-109395617D01*
X181744957Y-109395381D01*
X181975393Y-109350380D01*
X182194952Y-109267196D01*
X182397356Y-109148209D01*
X182576819Y-108996819D01*
X182728209Y-108817356D01*
X182847196Y-108614952D01*
X182930380Y-108395393D01*
X182975381Y-108164957D01*
X182978500Y-108107364D01*
X182978500Y-108024500D01*
X182998502Y-107956379D01*
X183052158Y-107909886D01*
X183104500Y-107898500D01*
X184170755Y-107898500D01*
X184238876Y-107918502D01*
X184285369Y-107972158D01*
X184295473Y-108042432D01*
X184265979Y-108107012D01*
X184202090Y-108146542D01*
X184003639Y-108197495D01*
X183998206Y-108198890D01*
X183793945Y-108292409D01*
X183609473Y-108420620D01*
X183450620Y-108579473D01*
X183322409Y-108763945D01*
X183228890Y-108968206D01*
X183227495Y-108973638D01*
X183227495Y-108973639D01*
X183221544Y-108996819D01*
X183173022Y-109185800D01*
X183172587Y-109191151D01*
X183162768Y-109311872D01*
X183161500Y-109327458D01*
X183161500Y-110952542D01*
X183173022Y-111094200D01*
X183228890Y-111311794D01*
X183322409Y-111516055D01*
X183450620Y-111700527D01*
X183609473Y-111859380D01*
X183793945Y-111987591D01*
X183998206Y-112081110D01*
X184003638Y-112082505D01*
X184003639Y-112082505D01*
X184167353Y-112124539D01*
X184215800Y-112136978D01*
X184269705Y-112141362D01*
X184354908Y-112148293D01*
X184354918Y-112148293D01*
X184357458Y-112148500D01*
X186482542Y-112148500D01*
X186485082Y-112148293D01*
X186485092Y-112148293D01*
X186570295Y-112141362D01*
X186624200Y-112136978D01*
X186672648Y-112124539D01*
X186836361Y-112082505D01*
X186836362Y-112082505D01*
X186841794Y-112081110D01*
X187046055Y-111987591D01*
X187230527Y-111859380D01*
X187389380Y-111700527D01*
X187517591Y-111516055D01*
X187611110Y-111311794D01*
X187666978Y-111094200D01*
X187678500Y-110952542D01*
X187678500Y-109327458D01*
X187677233Y-109311872D01*
X187667413Y-109191151D01*
X187666978Y-109185800D01*
X187618457Y-108996819D01*
X187612505Y-108973639D01*
X187612505Y-108973638D01*
X187611110Y-108968206D01*
X187517591Y-108763945D01*
X187389380Y-108579473D01*
X187230527Y-108420620D01*
X187046055Y-108292409D01*
X186841794Y-108198890D01*
X186836361Y-108197495D01*
X186637910Y-108146542D01*
X186576904Y-108110227D01*
X186545215Y-108046695D01*
X186552905Y-107976116D01*
X186597532Y-107920899D01*
X186669245Y-107898500D01*
X189323629Y-107898500D01*
X189391750Y-107918502D01*
X189412724Y-107935405D01*
X191609595Y-110132276D01*
X191643621Y-110194588D01*
X191646500Y-110221371D01*
X191646500Y-113626679D01*
X191626498Y-113694800D01*
X191569935Y-113742576D01*
X191494982Y-113774546D01*
X191494978Y-113774548D01*
X191491030Y-113776232D01*
X191471125Y-113788145D01*
X191259725Y-113914664D01*
X191259721Y-113914667D01*
X191256043Y-113916868D01*
X191042318Y-114088094D01*
X191025717Y-114105588D01*
X190861233Y-114278918D01*
X190853808Y-114286742D01*
X190694002Y-114509136D01*
X190565857Y-114751161D01*
X190564385Y-114755184D01*
X190564383Y-114755188D01*
X190557314Y-114774506D01*
X190471743Y-115008337D01*
X190413404Y-115275907D01*
X190391917Y-115548918D01*
X190407682Y-115822320D01*
X190408507Y-115826525D01*
X190408508Y-115826533D01*
X190428013Y-115925951D01*
X190460405Y-116091053D01*
X190461792Y-116095103D01*
X190461793Y-116095108D01*
X190535493Y-116310367D01*
X190549112Y-116350144D01*
X190672160Y-116594799D01*
X190674586Y-116598328D01*
X190674589Y-116598334D01*
X190741542Y-116695750D01*
X190827274Y-116820490D01*
X191011582Y-117023043D01*
X191221675Y-117198707D01*
X191225316Y-117200991D01*
X191450024Y-117341951D01*
X191450028Y-117341953D01*
X191453664Y-117344234D01*
X191521544Y-117374883D01*
X191689377Y-117450663D01*
X191743231Y-117496926D01*
X191763525Y-117564960D01*
X191743815Y-117633166D01*
X191690359Y-117679888D01*
X191637526Y-117691500D01*
X145549367Y-117691500D01*
X145529982Y-117690000D01*
X145515149Y-117687690D01*
X145515145Y-117687690D01*
X145506276Y-117686309D01*
X145489988Y-117688439D01*
X145465411Y-117689233D01*
X145420801Y-117686309D01*
X145248299Y-117675002D01*
X145231959Y-117672851D01*
X145112309Y-117649051D01*
X144992657Y-117625251D01*
X144976743Y-117620987D01*
X144760458Y-117547568D01*
X144745708Y-117542561D01*
X144730481Y-117536254D01*
X144511658Y-117428343D01*
X144497384Y-117420102D01*
X144294522Y-117284553D01*
X144281447Y-117274520D01*
X144098007Y-117113648D01*
X144086352Y-117101993D01*
X143925480Y-116918553D01*
X143915447Y-116905478D01*
X143779898Y-116702616D01*
X143771657Y-116688342D01*
X143663746Y-116469519D01*
X143657439Y-116454292D01*
X143605656Y-116301745D01*
X143579013Y-116223257D01*
X143574748Y-116207340D01*
X143527149Y-115968041D01*
X143524998Y-115951701D01*
X143511476Y-115745407D01*
X143512650Y-115722232D01*
X143512334Y-115722204D01*
X143512770Y-115717344D01*
X143513576Y-115712552D01*
X143513729Y-115700000D01*
X143509773Y-115672376D01*
X143508500Y-115654514D01*
X143508500Y-112992670D01*
X149627160Y-112992670D01*
X149632887Y-113000320D01*
X149804042Y-113105205D01*
X149812837Y-113109687D01*
X150022988Y-113196734D01*
X150032373Y-113199783D01*
X150253554Y-113252885D01*
X150263301Y-113254428D01*
X150490070Y-113272275D01*
X150499930Y-113272275D01*
X150726699Y-113254428D01*
X150736446Y-113252885D01*
X150957627Y-113199783D01*
X150967012Y-113196734D01*
X151177163Y-113109687D01*
X151185958Y-113105205D01*
X151353445Y-113002568D01*
X151362907Y-112992110D01*
X151359124Y-112983334D01*
X150507812Y-112132022D01*
X150493868Y-112124408D01*
X150492035Y-112124539D01*
X150485420Y-112128790D01*
X149633920Y-112980290D01*
X149627160Y-112992670D01*
X143508500Y-112992670D01*
X143508500Y-111764930D01*
X148982725Y-111764930D01*
X149000572Y-111991699D01*
X149002115Y-112001446D01*
X149055217Y-112222627D01*
X149058266Y-112232012D01*
X149145313Y-112442163D01*
X149149795Y-112450958D01*
X149252432Y-112618445D01*
X149262890Y-112627907D01*
X149271666Y-112624124D01*
X150122978Y-111772812D01*
X150129356Y-111761132D01*
X150859408Y-111761132D01*
X150859539Y-111762965D01*
X150863790Y-111769580D01*
X151715290Y-112621080D01*
X151727670Y-112627840D01*
X151735320Y-112622113D01*
X151840205Y-112450958D01*
X151844687Y-112442163D01*
X151931734Y-112232012D01*
X151934783Y-112222627D01*
X151987885Y-112001446D01*
X151989428Y-111991699D01*
X152007275Y-111764930D01*
X152007275Y-111755070D01*
X151989428Y-111528301D01*
X151987885Y-111518554D01*
X151934783Y-111297373D01*
X151931734Y-111287988D01*
X151844687Y-111077837D01*
X151840205Y-111069042D01*
X151737568Y-110901555D01*
X151727110Y-110892093D01*
X151718334Y-110895876D01*
X150867022Y-111747188D01*
X150859408Y-111761132D01*
X150129356Y-111761132D01*
X150130592Y-111758868D01*
X150130461Y-111757035D01*
X150126210Y-111750420D01*
X149274710Y-110898920D01*
X149262330Y-110892160D01*
X149254680Y-110897887D01*
X149149795Y-111069042D01*
X149145313Y-111077837D01*
X149058266Y-111287988D01*
X149055217Y-111297373D01*
X149002115Y-111518554D01*
X149000572Y-111528301D01*
X148982725Y-111755070D01*
X148982725Y-111764930D01*
X143508500Y-111764930D01*
X143508500Y-110527890D01*
X149627093Y-110527890D01*
X149630876Y-110536666D01*
X150482188Y-111387978D01*
X150496132Y-111395592D01*
X150497965Y-111395461D01*
X150504580Y-111391210D01*
X151356080Y-110539710D01*
X151362840Y-110527330D01*
X151357113Y-110519680D01*
X151185958Y-110414795D01*
X151177163Y-110410313D01*
X150967012Y-110323266D01*
X150957627Y-110320217D01*
X150736446Y-110267115D01*
X150726699Y-110265572D01*
X150499930Y-110247725D01*
X150490070Y-110247725D01*
X150263301Y-110265572D01*
X150253554Y-110267115D01*
X150032373Y-110320217D01*
X150022988Y-110323266D01*
X149812837Y-110410313D01*
X149804042Y-110414795D01*
X149636555Y-110517432D01*
X149627093Y-110527890D01*
X143508500Y-110527890D01*
X143508500Y-90478456D01*
X155972000Y-90478456D01*
X155972202Y-90483488D01*
X155986150Y-90656843D01*
X155987762Y-90666796D01*
X156043233Y-90892633D01*
X156046416Y-90902203D01*
X156137280Y-91116265D01*
X156141955Y-91125207D01*
X156265874Y-91321987D01*
X156271914Y-91330060D01*
X156425703Y-91504500D01*
X156432956Y-91511504D01*
X156612654Y-91659110D01*
X156620936Y-91664866D01*
X156821919Y-91781841D01*
X156831024Y-91786203D01*
X157048115Y-91869537D01*
X157057804Y-91872388D01*
X157208264Y-91903821D01*
X157222325Y-91902698D01*
X157226000Y-91892590D01*
X157226000Y-91890590D01*
X157734000Y-91890590D01*
X157738136Y-91904676D01*
X157751114Y-91906725D01*
X157768830Y-91904675D01*
X157778727Y-91902715D01*
X158002494Y-91839396D01*
X158011938Y-91835884D01*
X158222705Y-91737601D01*
X158231471Y-91732622D01*
X158423802Y-91601913D01*
X158431677Y-91595581D01*
X158600626Y-91435814D01*
X158607382Y-91428311D01*
X158649438Y-91373304D01*
X158706703Y-91331337D01*
X158777567Y-91326992D01*
X158844048Y-91366509D01*
X158965703Y-91504500D01*
X158972956Y-91511504D01*
X159152654Y-91659110D01*
X159160936Y-91664866D01*
X159361919Y-91781841D01*
X159371024Y-91786203D01*
X159588115Y-91869537D01*
X159597804Y-91872388D01*
X159748264Y-91903821D01*
X159762325Y-91902698D01*
X159766000Y-91892590D01*
X159766000Y-91890590D01*
X160274000Y-91890590D01*
X160278136Y-91904676D01*
X160291114Y-91906725D01*
X160308830Y-91904675D01*
X160318727Y-91902715D01*
X160542494Y-91839396D01*
X160551938Y-91835884D01*
X160762705Y-91737601D01*
X160771471Y-91732622D01*
X160963802Y-91601913D01*
X160971677Y-91595581D01*
X161140626Y-91435814D01*
X161147382Y-91428311D01*
X161189438Y-91373304D01*
X161246703Y-91331337D01*
X161317567Y-91326992D01*
X161384048Y-91366509D01*
X161505703Y-91504500D01*
X161512956Y-91511504D01*
X161692654Y-91659110D01*
X161700936Y-91664866D01*
X161901919Y-91781841D01*
X161911024Y-91786203D01*
X162128115Y-91869537D01*
X162137804Y-91872388D01*
X162288264Y-91903821D01*
X162302325Y-91902698D01*
X162306000Y-91892590D01*
X162306000Y-90442115D01*
X162301525Y-90426876D01*
X162300135Y-90425671D01*
X162292452Y-90424000D01*
X160292115Y-90424000D01*
X160276876Y-90428475D01*
X160275671Y-90429865D01*
X160274000Y-90437548D01*
X160274000Y-91890590D01*
X159766000Y-91890590D01*
X159766000Y-90442115D01*
X159761525Y-90426876D01*
X159760135Y-90425671D01*
X159752452Y-90424000D01*
X157752115Y-90424000D01*
X157736876Y-90428475D01*
X157735671Y-90429865D01*
X157734000Y-90437548D01*
X157734000Y-91890590D01*
X157226000Y-91890590D01*
X157226000Y-90442115D01*
X157221525Y-90426876D01*
X157220135Y-90425671D01*
X157212452Y-90424000D01*
X155990115Y-90424000D01*
X155974876Y-90428475D01*
X155973671Y-90429865D01*
X155972000Y-90437548D01*
X155972000Y-90478456D01*
X143508500Y-90478456D01*
X143508500Y-89897885D01*
X155972000Y-89897885D01*
X155976475Y-89913124D01*
X155977865Y-89914329D01*
X155985548Y-89916000D01*
X157207885Y-89916000D01*
X157223124Y-89911525D01*
X157224329Y-89910135D01*
X157226000Y-89902452D01*
X157226000Y-89897885D01*
X157734000Y-89897885D01*
X157738475Y-89913124D01*
X157739865Y-89914329D01*
X157747548Y-89916000D01*
X159747885Y-89916000D01*
X159763124Y-89911525D01*
X159764329Y-89910135D01*
X159766000Y-89902452D01*
X159766000Y-89897885D01*
X160274000Y-89897885D01*
X160278475Y-89913124D01*
X160279865Y-89914329D01*
X160287548Y-89916000D01*
X162287885Y-89916000D01*
X162303124Y-89911525D01*
X162304329Y-89910135D01*
X162306000Y-89902452D01*
X162306000Y-89897885D01*
X162814000Y-89897885D01*
X162818475Y-89913124D01*
X162819865Y-89914329D01*
X162827548Y-89916000D01*
X164827885Y-89916000D01*
X164843124Y-89911525D01*
X164844329Y-89910135D01*
X164846000Y-89902452D01*
X164846000Y-88449410D01*
X164841864Y-88435324D01*
X164828886Y-88433275D01*
X164811170Y-88435325D01*
X164801273Y-88437285D01*
X164577506Y-88500604D01*
X164568062Y-88504116D01*
X164357295Y-88602399D01*
X164348529Y-88607378D01*
X164156198Y-88738087D01*
X164148323Y-88744419D01*
X163979374Y-88904186D01*
X163972618Y-88911689D01*
X163930562Y-88966696D01*
X163873297Y-89008663D01*
X163802433Y-89013008D01*
X163735952Y-88973491D01*
X163614297Y-88835500D01*
X163607044Y-88828496D01*
X163427346Y-88680890D01*
X163419064Y-88675134D01*
X163218081Y-88558159D01*
X163208976Y-88553797D01*
X162991885Y-88470463D01*
X162982196Y-88467612D01*
X162831736Y-88436179D01*
X162817675Y-88437302D01*
X162814000Y-88447410D01*
X162814000Y-89897885D01*
X162306000Y-89897885D01*
X162306000Y-88449410D01*
X162301864Y-88435324D01*
X162288886Y-88433275D01*
X162271170Y-88435325D01*
X162261273Y-88437285D01*
X162037506Y-88500604D01*
X162028062Y-88504116D01*
X161817295Y-88602399D01*
X161808529Y-88607378D01*
X161616198Y-88738087D01*
X161608323Y-88744419D01*
X161439374Y-88904186D01*
X161432618Y-88911689D01*
X161390562Y-88966696D01*
X161333297Y-89008663D01*
X161262433Y-89013008D01*
X161195952Y-88973491D01*
X161074297Y-88835500D01*
X161067044Y-88828496D01*
X160887346Y-88680890D01*
X160879064Y-88675134D01*
X160678081Y-88558159D01*
X160668976Y-88553797D01*
X160451885Y-88470463D01*
X160442196Y-88467612D01*
X160291736Y-88436179D01*
X160277675Y-88437302D01*
X160274000Y-88447410D01*
X160274000Y-89897885D01*
X159766000Y-89897885D01*
X159766000Y-88449410D01*
X159761864Y-88435324D01*
X159748886Y-88433275D01*
X159731170Y-88435325D01*
X159721273Y-88437285D01*
X159497506Y-88500604D01*
X159488062Y-88504116D01*
X159277295Y-88602399D01*
X159268529Y-88607378D01*
X159076198Y-88738087D01*
X159068323Y-88744419D01*
X158899374Y-88904186D01*
X158892618Y-88911689D01*
X158850562Y-88966696D01*
X158793297Y-89008663D01*
X158722433Y-89013008D01*
X158655952Y-88973491D01*
X158534297Y-88835500D01*
X158527044Y-88828496D01*
X158347346Y-88680890D01*
X158339064Y-88675134D01*
X158138081Y-88558159D01*
X158128976Y-88553797D01*
X157911885Y-88470463D01*
X157902196Y-88467612D01*
X157751736Y-88436179D01*
X157737675Y-88437302D01*
X157734000Y-88447410D01*
X157734000Y-89897885D01*
X157226000Y-89897885D01*
X157226000Y-88449410D01*
X157221864Y-88435324D01*
X157208886Y-88433275D01*
X157191170Y-88435325D01*
X157181273Y-88437285D01*
X156957506Y-88500604D01*
X156948062Y-88504116D01*
X156737295Y-88602399D01*
X156728529Y-88607378D01*
X156536198Y-88738087D01*
X156528323Y-88744419D01*
X156359374Y-88904186D01*
X156352613Y-88911695D01*
X156211375Y-89096426D01*
X156205911Y-89104905D01*
X156096022Y-89309847D01*
X156091980Y-89319099D01*
X156016273Y-89538971D01*
X156013764Y-89548743D01*
X155973996Y-89778971D01*
X155973141Y-89786843D01*
X155972064Y-89810551D01*
X155972000Y-89813384D01*
X155972000Y-89897885D01*
X143508500Y-89897885D01*
X143508500Y-85990000D01*
X146196540Y-85990000D01*
X146216359Y-86305020D01*
X146275505Y-86615072D01*
X146373044Y-86915266D01*
X146374731Y-86918852D01*
X146374733Y-86918856D01*
X146505750Y-87197283D01*
X146505754Y-87197290D01*
X146507438Y-87200869D01*
X146676568Y-87467375D01*
X146694012Y-87488461D01*
X146821799Y-87642928D01*
X146877767Y-87710582D01*
X147107860Y-87926654D01*
X147363221Y-88112184D01*
X147639821Y-88264247D01*
X147643490Y-88265700D01*
X147643495Y-88265702D01*
X147929628Y-88378990D01*
X147933298Y-88380443D01*
X148239025Y-88458940D01*
X148552179Y-88498500D01*
X148867821Y-88498500D01*
X149180975Y-88458940D01*
X149486702Y-88380443D01*
X149490372Y-88378990D01*
X149776505Y-88265702D01*
X149776510Y-88265700D01*
X149780179Y-88264247D01*
X150056779Y-88112184D01*
X150312140Y-87926654D01*
X150542233Y-87710582D01*
X150598202Y-87642928D01*
X150725988Y-87488461D01*
X150731824Y-87481406D01*
X161778423Y-87481406D01*
X161783704Y-87488461D01*
X161960080Y-87591527D01*
X161969363Y-87595974D01*
X162176003Y-87674883D01*
X162185901Y-87677759D01*
X162402653Y-87721857D01*
X162412883Y-87723076D01*
X162633914Y-87731182D01*
X162644223Y-87730714D01*
X162863623Y-87702608D01*
X162873688Y-87700468D01*
X163085557Y-87636905D01*
X163095152Y-87633144D01*
X163293778Y-87535838D01*
X163302636Y-87530559D01*
X163360097Y-87489572D01*
X163368497Y-87478874D01*
X163361510Y-87465721D01*
X162587811Y-86692021D01*
X162573868Y-86684408D01*
X162572034Y-86684539D01*
X162565420Y-86688790D01*
X161785180Y-87469031D01*
X161778423Y-87481406D01*
X150731824Y-87481406D01*
X150743432Y-87467375D01*
X150912562Y-87200869D01*
X150914246Y-87197290D01*
X150914250Y-87197283D01*
X151045267Y-86918856D01*
X151045269Y-86918852D01*
X151046956Y-86915266D01*
X151144495Y-86615072D01*
X151203641Y-86305020D01*
X151204546Y-86290638D01*
X161162893Y-86290638D01*
X161175627Y-86511468D01*
X161177061Y-86521670D01*
X161225685Y-86737439D01*
X161228773Y-86747292D01*
X161311986Y-86952220D01*
X161316634Y-86961421D01*
X161405097Y-87105781D01*
X161415553Y-87115242D01*
X161424331Y-87111458D01*
X162202979Y-86332811D01*
X162209356Y-86321132D01*
X162939408Y-86321132D01*
X162939539Y-86322966D01*
X162943790Y-86329580D01*
X163721307Y-87107096D01*
X163733313Y-87113652D01*
X163745052Y-87104684D01*
X163783010Y-87051859D01*
X163788321Y-87043020D01*
X163886318Y-86844737D01*
X163890117Y-86835142D01*
X163954415Y-86623517D01*
X163956594Y-86613436D01*
X163985702Y-86392338D01*
X163986221Y-86385663D01*
X163987744Y-86323364D01*
X163987550Y-86316646D01*
X163969279Y-86094400D01*
X163967596Y-86084238D01*
X163913710Y-85869708D01*
X163910389Y-85859953D01*
X163822193Y-85657118D01*
X163817315Y-85648020D01*
X163744224Y-85535038D01*
X163733538Y-85525835D01*
X163723973Y-85530238D01*
X162947021Y-86307189D01*
X162939408Y-86321132D01*
X162209356Y-86321132D01*
X162210592Y-86318868D01*
X162210461Y-86317034D01*
X162206210Y-86310420D01*
X161428862Y-85533073D01*
X161417330Y-85526776D01*
X161405048Y-85536399D01*
X161349467Y-85617877D01*
X161344379Y-85626833D01*
X161251252Y-85827459D01*
X161247689Y-85837146D01*
X161188581Y-86050280D01*
X161186650Y-86060400D01*
X161163145Y-86280349D01*
X161162893Y-86290638D01*
X151204546Y-86290638D01*
X151223460Y-85990000D01*
X151203641Y-85674980D01*
X151144495Y-85364928D01*
X151065920Y-85123099D01*
X151048182Y-85068507D01*
X151048182Y-85068506D01*
X151046956Y-85064734D01*
X151045267Y-85061144D01*
X150914250Y-84782717D01*
X150914246Y-84782710D01*
X150912562Y-84779131D01*
X150743432Y-84512625D01*
X150542233Y-84269418D01*
X150513720Y-84242642D01*
X150477201Y-84208349D01*
X150312140Y-84053346D01*
X150056779Y-83867816D01*
X149979762Y-83825475D01*
X149783648Y-83717660D01*
X149783647Y-83717659D01*
X149780179Y-83715753D01*
X149776510Y-83714300D01*
X149776505Y-83714298D01*
X149490372Y-83601010D01*
X149490371Y-83601010D01*
X149486702Y-83599557D01*
X149180975Y-83521060D01*
X148867821Y-83481500D01*
X148552179Y-83481500D01*
X148239025Y-83521060D01*
X147933298Y-83599557D01*
X147929629Y-83601010D01*
X147929628Y-83601010D01*
X147643495Y-83714298D01*
X147643490Y-83714300D01*
X147639821Y-83715753D01*
X147636353Y-83717659D01*
X147636352Y-83717660D01*
X147440239Y-83825475D01*
X147363221Y-83867816D01*
X147107860Y-84053346D01*
X146942799Y-84208349D01*
X146906281Y-84242642D01*
X146877767Y-84269418D01*
X146676568Y-84512625D01*
X146507438Y-84779131D01*
X146505754Y-84782710D01*
X146505750Y-84782717D01*
X146374733Y-85061144D01*
X146373044Y-85064734D01*
X146371818Y-85068506D01*
X146371818Y-85068507D01*
X146354080Y-85123099D01*
X146275505Y-85364928D01*
X146216359Y-85674980D01*
X146196540Y-85990000D01*
X143508500Y-85990000D01*
X143508500Y-76490000D01*
X146196540Y-76490000D01*
X146216359Y-76805020D01*
X146275505Y-77115072D01*
X146303847Y-77202301D01*
X146348540Y-77339849D01*
X146373044Y-77415266D01*
X146374731Y-77418852D01*
X146374733Y-77418856D01*
X146505750Y-77697283D01*
X146505754Y-77697290D01*
X146507438Y-77700869D01*
X146676568Y-77967375D01*
X146721530Y-78021724D01*
X146817230Y-78137405D01*
X146877767Y-78210582D01*
X147107860Y-78426654D01*
X147363221Y-78612184D01*
X147639821Y-78764247D01*
X147643490Y-78765700D01*
X147643495Y-78765702D01*
X147929628Y-78878990D01*
X147933298Y-78880443D01*
X148239025Y-78958940D01*
X148552179Y-78998500D01*
X148867821Y-78998500D01*
X149180975Y-78958940D01*
X149486702Y-78880443D01*
X149490372Y-78878990D01*
X149776505Y-78765702D01*
X149776510Y-78765700D01*
X149780179Y-78764247D01*
X150056779Y-78612184D01*
X150312140Y-78426654D01*
X150542233Y-78210582D01*
X150602771Y-78137405D01*
X150698470Y-78021724D01*
X150743432Y-77967375D01*
X150912562Y-77700869D01*
X150914246Y-77697290D01*
X150914250Y-77697283D01*
X151045267Y-77418856D01*
X151045269Y-77418852D01*
X151046956Y-77415266D01*
X151071461Y-77339849D01*
X151116153Y-77202301D01*
X151144495Y-77115072D01*
X151203641Y-76805020D01*
X151223460Y-76490000D01*
X151203641Y-76174980D01*
X151144495Y-75864928D01*
X151046956Y-75564734D01*
X151025518Y-75519176D01*
X150914250Y-75282717D01*
X150914246Y-75282710D01*
X150912562Y-75279131D01*
X150743432Y-75012625D01*
X150542233Y-74769418D01*
X150312140Y-74553346D01*
X150299965Y-74544500D01*
X150219297Y-74485892D01*
X150056779Y-74367816D01*
X150050415Y-74364317D01*
X149783648Y-74217660D01*
X149783647Y-74217659D01*
X149780179Y-74215753D01*
X149776510Y-74214300D01*
X149776505Y-74214298D01*
X149490372Y-74101010D01*
X149490371Y-74101010D01*
X149486702Y-74099557D01*
X149180975Y-74021060D01*
X148867821Y-73981500D01*
X148552179Y-73981500D01*
X148239025Y-74021060D01*
X147933298Y-74099557D01*
X147929629Y-74101010D01*
X147929628Y-74101010D01*
X147643495Y-74214298D01*
X147643490Y-74214300D01*
X147639821Y-74215753D01*
X147636353Y-74217659D01*
X147636352Y-74217660D01*
X147369586Y-74364317D01*
X147363221Y-74367816D01*
X147200703Y-74485892D01*
X147120036Y-74544500D01*
X147107860Y-74553346D01*
X146877767Y-74769418D01*
X146676568Y-75012625D01*
X146507438Y-75279131D01*
X146505754Y-75282710D01*
X146505750Y-75282717D01*
X146394482Y-75519176D01*
X146373044Y-75564734D01*
X146275505Y-75864928D01*
X146216359Y-76174980D01*
X146196540Y-76490000D01*
X143508500Y-76490000D01*
X143508500Y-74053250D01*
X143510246Y-74032345D01*
X143512770Y-74017344D01*
X143512770Y-74017341D01*
X143513576Y-74012552D01*
X143513729Y-74000000D01*
X143512003Y-73987947D01*
X143511001Y-73961845D01*
X143524998Y-73748299D01*
X143527149Y-73731959D01*
X143557402Y-73579865D01*
X143574749Y-73492657D01*
X143579014Y-73476740D01*
X143585210Y-73458489D01*
X143645951Y-73279550D01*
X143657439Y-73245708D01*
X143663746Y-73230481D01*
X143771657Y-73011658D01*
X143779898Y-72997384D01*
X143915447Y-72794522D01*
X143925480Y-72781447D01*
X144086352Y-72598007D01*
X144098007Y-72586352D01*
X144281447Y-72425480D01*
X144294522Y-72415447D01*
X144497384Y-72279898D01*
X144511658Y-72271657D01*
X144730481Y-72163746D01*
X144745708Y-72157439D01*
X144861224Y-72118226D01*
X144976743Y-72079013D01*
X144992657Y-72074749D01*
X145112310Y-72050948D01*
X145231959Y-72027149D01*
X145248299Y-72024998D01*
X145389563Y-72015738D01*
X145458237Y-72011237D01*
X145481350Y-72012267D01*
X145484854Y-72012310D01*
X145493724Y-72013691D01*
X145502626Y-72012527D01*
X145502628Y-72012527D01*
X145519449Y-72010327D01*
X145525286Y-72009564D01*
X145541621Y-72008500D01*
X210350633Y-72008500D01*
X210370018Y-72010000D01*
G37*
%TD.AperFunction*%
%TD*%
%TA.AperFunction,NonConductor*%
G36*
X201631750Y-104918502D02*
G01*
X201652724Y-104935405D01*
X209389595Y-112672276D01*
X209423621Y-112734588D01*
X209426500Y-112761371D01*
X209426500Y-113435500D01*
X209406498Y-113503621D01*
X209352842Y-113550114D01*
X209300500Y-113561500D01*
X208636866Y-113561500D01*
X208574684Y-113568255D01*
X208438295Y-113619385D01*
X208321739Y-113706739D01*
X208234385Y-113823295D01*
X208183255Y-113959684D01*
X208176500Y-114021866D01*
X208176500Y-117118134D01*
X208183255Y-117180316D01*
X208234385Y-117316705D01*
X208321739Y-117433261D01*
X208328919Y-117438642D01*
X208328920Y-117438643D01*
X208363653Y-117464674D01*
X208406168Y-117521534D01*
X208411194Y-117592352D01*
X208377134Y-117654645D01*
X208314802Y-117688635D01*
X208288088Y-117691500D01*
X193165236Y-117691500D01*
X193097115Y-117671498D01*
X193050622Y-117617842D01*
X193040518Y-117547568D01*
X193070012Y-117482988D01*
X193117018Y-117449091D01*
X193175927Y-117424690D01*
X193300136Y-117373241D01*
X193536582Y-117235073D01*
X193752089Y-117066094D01*
X193793809Y-117023043D01*
X193939686Y-116872509D01*
X193942669Y-116869431D01*
X193945202Y-116865983D01*
X193945206Y-116865978D01*
X194102257Y-116652178D01*
X194104795Y-116648723D01*
X194132154Y-116598334D01*
X194233418Y-116411830D01*
X194233419Y-116411828D01*
X194235468Y-116408054D01*
X194310635Y-116209130D01*
X194330751Y-116155895D01*
X194330752Y-116155891D01*
X194332269Y-116151877D01*
X194378115Y-115951701D01*
X194392449Y-115889117D01*
X194392450Y-115889113D01*
X194393407Y-115884933D01*
X194396692Y-115848134D01*
X194417531Y-115614627D01*
X194417531Y-115614625D01*
X194417751Y-115612161D01*
X194417885Y-115599431D01*
X194418167Y-115572484D01*
X194418167Y-115572483D01*
X194418193Y-115570000D01*
X194405389Y-115382178D01*
X194399859Y-115301055D01*
X194399858Y-115301049D01*
X194399567Y-115296778D01*
X194344032Y-115028612D01*
X194252617Y-114770465D01*
X194127013Y-114527112D01*
X194117040Y-114512921D01*
X193998761Y-114344627D01*
X193969545Y-114303057D01*
X193783125Y-114102445D01*
X193779810Y-114099731D01*
X193779806Y-114099728D01*
X193618304Y-113967540D01*
X193571205Y-113928990D01*
X193337704Y-113785901D01*
X193333768Y-113784173D01*
X193238854Y-113742508D01*
X193184518Y-113696812D01*
X193163500Y-113627135D01*
X193163500Y-109922070D01*
X193164933Y-109903120D01*
X193167099Y-109888885D01*
X193167099Y-109888881D01*
X193168199Y-109881651D01*
X193163915Y-109828982D01*
X193163500Y-109818767D01*
X193163500Y-109810707D01*
X193160209Y-109782480D01*
X193159778Y-109778121D01*
X193154453Y-109712660D01*
X193153860Y-109705364D01*
X193151605Y-109698403D01*
X193150418Y-109692463D01*
X193149029Y-109686588D01*
X193148182Y-109679319D01*
X193123264Y-109610670D01*
X193121847Y-109606542D01*
X193101607Y-109544064D01*
X193101606Y-109544062D01*
X193099351Y-109537101D01*
X193095555Y-109530846D01*
X193093049Y-109525372D01*
X193090330Y-109519942D01*
X193087833Y-109513063D01*
X193047814Y-109452024D01*
X193045467Y-109448305D01*
X193007595Y-109385893D01*
X193000197Y-109377516D01*
X193000224Y-109377492D01*
X192997571Y-109374500D01*
X192994868Y-109371267D01*
X192990856Y-109365148D01*
X192934617Y-109311872D01*
X192932175Y-109309494D01*
X190273770Y-106651089D01*
X190261384Y-106636677D01*
X190252851Y-106625082D01*
X190252846Y-106625077D01*
X190248508Y-106619182D01*
X190242930Y-106614443D01*
X190242927Y-106614440D01*
X190208232Y-106584965D01*
X190200716Y-106578035D01*
X190195021Y-106572340D01*
X190188880Y-106567482D01*
X190172749Y-106554719D01*
X190169345Y-106551928D01*
X190119297Y-106509409D01*
X190119295Y-106509408D01*
X190113715Y-106504667D01*
X190107199Y-106501339D01*
X190102150Y-106497972D01*
X190097021Y-106494805D01*
X190091284Y-106490266D01*
X190025125Y-106459345D01*
X190021225Y-106457439D01*
X189956192Y-106424231D01*
X189949084Y-106422492D01*
X189943441Y-106420393D01*
X189937678Y-106418476D01*
X189931050Y-106415378D01*
X189859583Y-106400513D01*
X189855299Y-106399543D01*
X189784390Y-106382192D01*
X189778788Y-106381844D01*
X189778785Y-106381844D01*
X189773236Y-106381500D01*
X189773238Y-106381464D01*
X189769245Y-106381225D01*
X189765053Y-106380851D01*
X189757885Y-106379360D01*
X189691675Y-106381151D01*
X189680479Y-106381454D01*
X189677072Y-106381500D01*
X187689042Y-106381500D01*
X187620921Y-106361498D01*
X187574428Y-106307842D01*
X187564324Y-106237568D01*
X187588216Y-106179935D01*
X187615229Y-106143892D01*
X187615230Y-106143890D01*
X187620615Y-106136705D01*
X187671745Y-106000316D01*
X187678500Y-105938134D01*
X187678500Y-105024500D01*
X187698502Y-104956379D01*
X187752158Y-104909886D01*
X187804500Y-104898500D01*
X201563629Y-104898500D01*
X201631750Y-104918502D01*
G37*
%TD.AperFunction*%
M02*
