M48
; DRILL file {KiCad (6.0.8)} date Thu Dec 22 18:28:09 2022
; FORMAT={-:-/ absolute / metric / decimal}
; #@! TF.CreationDate,2022-12-22T18:28:09+01:00
; #@! TF.GenerationSoftware,Kicad,Pcbnew,(6.0.8)
; #@! TF.FileFunction,MixedPlating,1,2
FMAT,2
METRIC
; #@! TA.AperFunction,Plated,PTH,ViaDrill
T1C0.800
; #@! TA.AperFunction,Plated,PTH,ComponentDrill
T2C0.800
; #@! TA.AperFunction,Plated,PTH,ComponentDrill
T3C1.000
; #@! TA.AperFunction,Plated,PTH,ComponentDrill
T4C1.300
; #@! TA.AperFunction,Plated,PTH,ComponentDrill
T5C2.000
%
G90
G05
T1
X165.1Y-93.345
X165.1Y-99.695
X179.07Y-83.82
X185.42Y-83.82
X187.96Y-74.93
X187.967Y-81.287
T2
X150.495Y-104.14
X150.495Y-111.76
X156.21Y-74.295
X162.575Y-83.82
X162.575Y-86.32
X163.83Y-74.295
X167.655Y-76.2
X167.655Y-78.74
X167.655Y-81.28
X167.655Y-83.82
X175.275Y-76.2
X175.275Y-78.74
X175.275Y-81.28
X175.275Y-83.82
X180.345Y-78.065
X181.61Y-91.44
X182.845Y-78.065
X189.23Y-91.44
T3
X145.415Y-99.06
X145.415Y-101.6
X145.415Y-104.14
X156.21Y-78.74
X156.21Y-81.24
X156.21Y-83.74
X157.48Y-90.17
X157.48Y-102.87
X160.02Y-90.17
X160.02Y-102.87
X162.56Y-90.17
X162.56Y-102.87
X165.1Y-90.17
X165.1Y-102.87
X167.64Y-90.17
X167.64Y-102.87
X170.18Y-90.17
X170.18Y-102.87
X172.72Y-90.17
X172.72Y-102.87
X175.26Y-90.17
X175.26Y-102.87
X184.15Y-97.79
X186.69Y-97.79
X192.405Y-74.93
X192.405Y-115.57
X210.185Y-74.93
X210.185Y-115.57
T4
X154.94Y-114.3
X160.02Y-114.3
X165.1Y-114.3
X170.18Y-114.3
T5
X148.71Y-76.49
X148.71Y-85.99
T3
G00X180.72Y-108.14
M15
G01X180.72Y-106.14
M16
G05
G00X184.42Y-104.14
M15
G01X186.42Y-104.14
M16
G05
G00X184.42Y-110.14
M15
G01X186.42Y-110.14
M16
G05
T0
M30
